<?xml version="1.0" encoding="utf-8"?>
<!-- Generator: Adobe Illustrator 24.2.2, SVG Export Plug-In . SVG Version: 6.00 Build 0)  -->
<svg version="1.1" id="Layer_1" xmlns="http://www.w3.org/2000/svg" xmlns:xlink="http://www.w3.org/1999/xlink" x="0px" y="0px"
	 viewBox="0 0 115 91.19" style="enable-background:new 0 0 115 91.19;" xml:space="preserve">
<style type="text/css">
	.st0{clip-path:url(#SVGID_2_);}
	.st1{fill:#F2F2F2;}
	.st2{fill:#FFCD00;}
	.st3{fill:#323E48;}
	.st4{fill:#FFFFFF;}
</style>
<g>
	<g>
		<defs>
			<path id="SVGID_1_" d="M60.3,20.19c-20.43,0-37,16.57-37,37c0,13.67,7.41,25.59,18.43,32h37.13c11.02-6.41,18.43-18.33,18.43-32
				C97.3,36.75,80.74,20.19,60.3,20.19z"/>
		</defs>
		<clipPath id="SVGID_2_">
			<use xlink:href="#SVGID_1_"  style="overflow:visible;"/>
		</clipPath>
		<g class="st0">
			
				<rect x="37.94" y="99.44" transform="matrix(0.7071 -0.7071 0.7071 0.7071 -39.8049 103.3246)" class="st1" width="133.76" height="0.54"/>
			
				<rect x="37" y="98.49" transform="matrix(0.7071 -0.7071 0.7071 0.7071 -39.4078 102.3775)" class="st1" width="133.76" height="0.54"/>
			
				<rect x="36.05" y="97.55" transform="matrix(0.7071 -0.7071 0.7071 0.7071 -39.0207 101.4346)" class="st1" width="133.76" height="0.54"/>
			
				<rect x="35.11" y="96.6" transform="matrix(0.7071 -0.7071 0.7071 0.7071 -38.6251 100.4882)" class="st1" width="133.76" height="0.54"/>
			
				<rect x="34.16" y="95.66" transform="matrix(0.7071 -0.7071 0.7071 0.7071 -38.2365 99.5446)" class="st1" width="133.76" height="0.54"/>
			
				<rect x="33.22" y="94.7" transform="matrix(0.7071 -0.7071 0.7071 0.7071 -37.838 98.5969)" class="st1" width="133.76" height="0.54"/>
			
				<rect x="32.27" y="93.76" transform="matrix(0.7071 -0.7071 0.7071 0.7071 -37.4494 97.6475)" class="st1" width="133.76" height="0.54"/>
			
				<rect x="31.32" y="92.82" transform="matrix(0.7071 -0.7071 0.7071 0.7071 -37.0623 96.7046)" class="st1" width="133.76" height="0.54"/>
			
				<rect x="30.38" y="91.87" transform="matrix(0.7071 -0.7071 0.7071 0.7071 -36.6667 95.7582)" class="st1" width="133.76" height="0.54"/>
			
				<rect x="29.43" y="90.93" transform="matrix(0.7071 -0.7071 0.7071 0.7071 -36.2781 94.8146)" class="st1" width="133.76" height="0.54"/>
			
				<rect x="28.49" y="89.98" transform="matrix(0.7071 -0.7071 0.7071 0.7071 -35.8811 93.8675)" class="st1" width="133.76" height="0.54"/>
			
				<rect x="27.54" y="89.04" transform="matrix(0.7071 -0.7071 0.7071 0.7071 -35.494 92.9246)" class="st1" width="133.76" height="0.54"/>
			
				<rect x="26.6" y="88.08" transform="matrix(0.7071 -0.7071 0.7071 0.7071 -35.0968 91.9776)" class="st1" width="133.76" height="0.54"/>
			
				<rect x="25.65" y="87.14" transform="matrix(0.7071 -0.7071 0.7071 0.7071 -34.7069 91.0276)" class="st1" width="133.76" height="0.54"/>
			
				<rect x="24.7" y="86.2" transform="matrix(0.7071 -0.7071 0.7071 0.7071 -34.3197 90.0847)" class="st1" width="133.76" height="0.54"/>
			
				<rect x="23.76" y="85.25" transform="matrix(0.7071 -0.7071 0.7071 0.7071 -33.924 89.1382)" class="st1" width="133.76" height="0.54"/>
			
				<rect x="22.81" y="84.31" transform="matrix(0.7071 -0.7071 0.7071 0.7071 -33.5355 88.1947)" class="st1" width="133.76" height="0.54"/>
			
				<rect x="21.87" y="83.36" transform="matrix(0.7071 -0.7071 0.7071 0.7071 -33.1398 87.2483)" class="st1" width="133.76" height="0.54"/>
			
				<rect x="20.92" y="82.42" transform="matrix(0.7071 -0.7071 0.7071 0.7071 -32.7514 86.3047)" class="st1" width="133.76" height="0.54"/>
			
				<rect x="19.97" y="81.47" transform="matrix(0.7071 -0.7071 0.7071 0.7071 -32.3601 85.3541)" class="st1" width="133.76" height="0.54"/>
			
				<rect x="19.03" y="80.52" transform="matrix(0.7071 -0.7071 0.7071 0.7071 -31.9642 84.4077)" class="st1" width="133.76" height="0.54"/>
			
				<rect x="18.08" y="79.58" transform="matrix(0.7071 -0.7071 0.7071 0.7071 -31.5771 83.4647)" class="st1" width="133.76" height="0.54"/>
			
				<rect x="17.14" y="78.63" transform="matrix(0.7071 -0.7071 0.7071 0.7071 -31.1801 82.5177)" class="st1" width="133.76" height="0.54"/>
			
				<rect x="16.19" y="77.69" transform="matrix(0.7071 -0.7071 0.7071 0.7071 -30.793 81.5748)" class="st1" width="133.76" height="0.54"/>
			
				<rect x="15.25" y="76.73" transform="matrix(0.7071 -0.7071 0.7071 0.7071 -30.3959 80.6277)" class="st1" width="133.76" height="0.54"/>
			
				<rect x="14.3" y="75.79" transform="matrix(0.7071 -0.7071 0.7071 0.7071 -30.0059 79.6777)" class="st1" width="133.76" height="0.54"/>
			
				<rect x="13.35" y="74.85" transform="matrix(0.7071 -0.7071 0.7071 0.7071 -29.6188 78.7348)" class="st1" width="133.76" height="0.54"/>
			
				<rect x="12.41" y="73.9" transform="matrix(0.7071 -0.7071 0.7071 0.7071 -29.2217 77.7877)" class="st1" width="133.76" height="0.54"/>
			
				<rect x="11.46" y="72.96" transform="matrix(0.7071 -0.7071 0.7071 0.7071 -28.8346 76.8448)" class="st1" width="133.76" height="0.54"/>
			
				<rect x="10.52" y="72.01" transform="matrix(0.7071 -0.7071 0.7071 0.7071 -28.4386 75.8982)" class="st1" width="133.76" height="0.54"/>
			
				<rect x="9.57" y="71.07" transform="matrix(0.7071 -0.7071 0.7071 0.7071 -28.0504 74.9548)" class="st1" width="133.76" height="0.54"/>
			
				<rect x="8.63" y="70.11" transform="matrix(0.7071 -0.7071 0.7071 0.7071 -27.6533 74.0078)" class="st1" width="133.76" height="0.54"/>
			
				<rect x="7.68" y="69.17" transform="matrix(0.7071 -0.7071 0.7071 0.7071 -27.2633 73.0578)" class="st1" width="133.76" height="0.54"/>
			
				<rect x="6.73" y="68.23" transform="matrix(0.7071 -0.7071 0.7071 0.7071 -26.8751 72.1144)" class="st1" width="133.76" height="0.54"/>
			
				<rect x="5.79" y="67.28" transform="matrix(0.7071 -0.7071 0.7071 0.7071 -26.4791 71.1678)" class="st1" width="133.76" height="0.54"/>
			
				<rect x="4.84" y="66.34" transform="matrix(0.7071 -0.7071 0.7071 0.7071 -26.092 70.2249)" class="st1" width="133.76" height="0.54"/>
			
				<rect x="3.9" y="65.39" transform="matrix(0.7071 -0.7071 0.7071 0.7071 -25.695 69.2778)" class="st1" width="133.76" height="0.54"/>
			
				<rect x="2.95" y="64.45" transform="matrix(0.7071 -0.7071 0.7071 0.7071 -25.3079 68.3349)" class="st1" width="133.76" height="0.54"/>
			
				<rect x="2" y="63.5" transform="matrix(0.7071 -0.7071 0.7071 0.7071 -24.9178 67.3849)" class="st1" width="133.76" height="0.54"/>
			
				<rect x="1.06" y="62.55" transform="matrix(0.7071 -0.7071 0.7071 0.7071 -24.5207 66.4378)" class="st1" width="133.76" height="0.54"/>
			
				<rect x="0.11" y="61.61" transform="matrix(0.7071 -0.7071 0.7071 0.7071 -24.1336 65.4949)" class="st1" width="133.76" height="0.54"/>
			
				<rect x="-0.83" y="60.66" transform="matrix(0.7071 -0.7071 0.7071 0.7071 -23.7365 64.5478)" class="st1" width="133.76" height="0.54"/>
			
				<rect x="-1.78" y="59.72" transform="matrix(0.7071 -0.7071 0.7071 0.7071 -23.3494 63.6049)" class="st1" width="133.76" height="0.54"/>
			
				<rect x="-2.72" y="58.77" transform="matrix(0.7071 -0.7071 0.7071 0.7071 -22.9532 62.6583)" class="st1" width="133.76" height="0.54"/>
			
				<rect x="-3.67" y="57.82" transform="matrix(0.7071 -0.7071 0.7071 0.7071 -22.5623 61.7079)" class="st1" width="133.76" height="0.54"/>
			
				<rect x="-4.62" y="56.88" transform="matrix(0.7071 -0.7071 0.7071 0.7071 -22.1753 60.765)" class="st1" width="133.76" height="0.54"/>
			
				<rect x="-5.56" y="55.93" transform="matrix(0.7071 -0.7071 0.7071 0.7071 -21.7781 59.8179)" class="st1" width="133.76" height="0.54"/>
			
				<rect x="-6.51" y="54.99" transform="matrix(0.7071 -0.7071 0.7071 0.7071 -21.3902 58.8745)" class="st1" width="133.76" height="0.54"/>
			
				<rect x="-7.45" y="54.04" transform="matrix(0.7071 -0.7071 0.7071 0.7071 -20.994 57.928)" class="st1" width="133.76" height="0.54"/>
			
				<rect x="-8.4" y="53.1" transform="matrix(0.7071 -0.7071 0.7071 0.7071 -20.6068 56.985)" class="st1" width="133.76" height="0.54"/>
			
				<rect x="-9.34" y="52.14" transform="matrix(0.7071 -0.7071 0.7071 0.7071 -20.2098 56.038)" class="st1" width="133.76" height="0.54"/>
			
				<rect x="-10.29" y="51.2" transform="matrix(0.7071 -0.7071 0.7071 0.7071 -19.8198 55.0879)" class="st1" width="133.76" height="0.54"/>
			
				<rect x="-11.24" y="50.26" transform="matrix(0.7071 -0.7071 0.7071 0.7071 -19.4327 54.145)" class="st1" width="133.76" height="0.54"/>
			
				<rect x="-12.18" y="49.31" transform="matrix(0.7071 -0.7071 0.7071 0.7071 -19.0356 53.198)" class="st1" width="133.76" height="0.54"/>
			
				<rect x="-13.13" y="48.37" transform="matrix(0.7071 -0.7071 0.7071 0.7071 -18.6485 52.255)" class="st1" width="133.76" height="0.54"/>
			
				<rect x="-14.07" y="47.42" transform="matrix(0.7071 -0.7071 0.7071 0.7071 -18.2514 51.308)" class="st1" width="133.76" height="0.54"/>
			
				<rect x="-15.02" y="46.48" transform="matrix(0.7071 -0.7071 0.7071 0.7071 -17.8643 50.3651)" class="st1" width="133.76" height="0.54"/>
			
				<rect x="-15.97" y="45.53" transform="matrix(0.7071 -0.7071 0.7071 0.7071 -17.475 49.4154)" class="st1" width="133.76" height="0.54"/>
			
				<rect x="-16.91" y="44.58" transform="matrix(0.7071 -0.7071 0.7071 0.7071 -17.0772 48.468)" class="st1" width="133.76" height="0.54"/>
			
				<rect x="-17.86" y="43.64" transform="matrix(0.7071 -0.7071 0.7071 0.7071 -16.6894 47.5248)" class="st1" width="133.76" height="0.54"/>
			
				<rect x="-18.8" y="42.69" transform="matrix(0.7071 -0.7071 0.7071 0.7071 -16.293 46.5781)" class="st1" width="133.76" height="0.54"/>
			
				<rect x="-19.75" y="41.75" transform="matrix(0.7071 -0.7071 0.7071 0.7071 -15.9052 45.6348)" class="st1" width="133.76" height="0.54"/>
			
				<rect x="-20.69" y="40.79" transform="matrix(0.7071 -0.7071 0.7071 0.7071 -15.5088 44.6881)" class="st1" width="133.76" height="0.54"/>
			
				<rect x="-21.64" y="39.85" transform="matrix(0.7071 -0.7071 0.7071 0.7071 -15.1188 43.738)" class="st1" width="133.76" height="0.54"/>
			
				<rect x="-22.59" y="38.91" transform="matrix(0.7071 -0.7071 0.7071 0.7071 -14.7317 42.7951)" class="st1" width="133.76" height="0.54"/>
			
				<rect x="-23.53" y="37.96" transform="matrix(0.7071 -0.7071 0.7071 0.7071 -14.3346 41.8481)" class="st1" width="133.76" height="0.54"/>
			
				<rect x="-24.48" y="37.02" transform="matrix(0.7071 -0.7071 0.7071 0.7071 -13.9475 40.9051)" class="st1" width="133.76" height="0.54"/>
			
				<rect x="-25.42" y="36.07" transform="matrix(0.7071 -0.7071 0.7071 0.7071 -13.5504 39.9581)" class="st1" width="133.76" height="0.54"/>
			
				<rect x="-26.37" y="35.13" transform="matrix(0.7071 -0.7071 0.7071 0.7071 -13.1633 39.0152)" class="st1" width="133.76" height="0.54"/>
			
				<rect x="-27.31" y="34.17" transform="matrix(0.7071 -0.7071 0.7071 0.7071 -12.7662 38.0681)" class="st1" width="133.76" height="0.54"/>
			
				<rect x="-28.26" y="33.23" transform="matrix(0.7071 -0.7071 0.7071 0.7071 -12.3762 37.1181)" class="st1" width="133.76" height="0.54"/>
			
				<rect x="-29.21" y="32.29" transform="matrix(0.7071 -0.7071 0.7071 0.7071 -11.9897 36.1755)" class="st1" width="133.76" height="0.54"/>
			
				<rect x="-30.15" y="31.34" transform="matrix(0.7071 -0.7071 0.7071 0.7071 -11.592 35.2281)" class="st1" width="133.76" height="0.54"/>
			
				<rect x="-31.1" y="30.4" transform="matrix(0.7071 -0.7071 0.7071 0.7071 -11.2045 34.285)" class="st1" width="133.76" height="0.54"/>
			
				<rect x="-32.04" y="29.45" transform="matrix(0.7071 -0.7071 0.7071 0.7071 -10.8079 33.3382)" class="st1" width="133.76" height="0.54"/>
			
				<rect x="-32.99" y="28.51" transform="matrix(0.7071 -0.7071 0.7071 0.7071 -10.4208 32.3953)" class="st1" width="133.76" height="0.54"/>
			
				<rect x="-33.94" y="27.56" transform="matrix(0.7071 -0.7071 0.7071 0.7071 -10.0307 31.4453)" class="st1" width="133.76" height="0.54"/>
			
				<rect x="-34.88" y="26.61" transform="matrix(0.7071 -0.7071 0.7071 0.7071 -9.6337 30.4982)" class="st1" width="133.76" height="0.54"/>
			
				<rect x="-35.83" y="25.67" transform="matrix(0.7071 -0.7071 0.7071 0.7071 -9.2466 29.5553)" class="st1" width="133.76" height="0.54"/>
			
				<rect x="-36.77" y="24.72" transform="matrix(0.7071 -0.7071 0.7071 0.7071 -8.8495 28.6082)" class="st1" width="133.76" height="0.54"/>
			
				<rect x="-37.72" y="23.78" transform="matrix(0.7071 -0.7071 0.7071 0.7071 -8.4624 27.6653)" class="st1" width="133.76" height="0.54"/>
			
				<rect x="-38.66" y="22.82" transform="matrix(0.7071 -0.7071 0.7071 0.7071 -8.0653 26.7183)" class="st1" width="133.76" height="0.54"/>
			
				<rect x="-39.61" y="21.88" transform="matrix(0.7071 -0.7071 0.7071 0.7071 -7.6752 25.7682)" class="st1" width="133.76" height="0.54"/>
			
				<rect x="-40.56" y="20.94" transform="matrix(0.7071 -0.7071 0.7071 0.7071 -7.2885 24.8255)" class="st1" width="133.76" height="0.54"/>
			
				<rect x="-41.5" y="19.99" transform="matrix(0.7071 -0.7071 0.7071 0.7071 -6.8911 23.8782)" class="st1" width="133.76" height="0.54"/>
			
				<rect x="-42.45" y="19.05" transform="matrix(0.7071 -0.7071 0.7071 0.7071 -6.5043 22.9356)" class="st1" width="133.76" height="0.54"/>
			
				<rect x="-43.39" y="18.1" transform="matrix(0.7071 -0.7071 0.7071 0.7071 -6.1068 21.9883)" class="st1" width="133.76" height="0.54"/>
			
				<rect x="-44.34" y="17.16" transform="matrix(0.7071 -0.7071 0.7071 0.7071 -5.7195 21.0452)" class="st1" width="133.76" height="0.54"/>
			
				<rect x="-45.28" y="16.2" transform="matrix(0.7071 -0.7071 0.7071 0.7071 -5.3227 20.0983)" class="st1" width="133.76" height="0.54"/>
			
				<rect x="-46.23" y="15.26" transform="matrix(0.7071 -0.7071 0.7071 0.7071 -4.9327 19.1484)" class="st1" width="133.76" height="0.54"/>
			
				<rect x="-47.18" y="14.32" transform="matrix(0.7071 -0.7071 0.7071 0.7071 -4.5456 18.2054)" class="st1" width="133.76" height="0.54"/>
			
				<rect x="-48.12" y="13.37" transform="matrix(0.7071 -0.7071 0.7071 0.7071 -4.1485 17.2584)" class="st1" width="133.76" height="0.54"/>
			
				<rect x="-49.07" y="12.43" transform="matrix(0.7071 -0.7071 0.7071 0.7071 -3.7614 16.3154)" class="st1" width="133.76" height="0.54"/>
			
				<rect x="-50.01" y="11.48" transform="matrix(0.7071 -0.7071 0.7071 0.7071 -3.3643 15.3684)" class="st1" width="133.76" height="0.54"/>
			
				<rect x="-50.95" y="10.54" transform="matrix(0.7071 -0.7071 0.7071 0.7071 -2.9772 14.4254)" class="st1" width="133.76" height="0.54"/>
			
				<rect x="-51.91" y="9.59" transform="matrix(0.7071 -0.7071 0.7071 0.7071 -2.5872 13.4754)" class="st1" width="133.76" height="0.54"/>
			
				<rect x="-52.85" y="8.64" transform="matrix(0.7071 -0.7071 0.7071 0.7071 -2.1902 12.5284)" class="st1" width="133.76" height="0.54"/>
			
				<rect x="-53.8" y="7.7" transform="matrix(0.7071 -0.7071 0.7071 0.7071 -1.803 11.5854)" class="st1" width="133.76" height="0.54"/>
			
				<rect x="-54.74" y="6.75" transform="matrix(0.7071 -0.7071 0.7071 0.7071 -1.4059 10.6384)" class="st1" width="133.76" height="0.54"/>
			
				<rect x="-55.69" y="5.81" transform="matrix(0.7071 -0.7071 0.7071 0.7071 -1.0189 9.6955)" class="st1" width="133.76" height="0.54"/>
			
				<rect x="-56.63" y="4.85" transform="matrix(0.7071 -0.7071 0.7071 0.7071 -0.6217 8.7484)" class="st1" width="133.76" height="0.54"/>
			
				<rect x="-57.58" y="3.91" transform="matrix(0.7071 -0.7071 0.7071 0.7071 -0.2316 7.7983)" class="st1" width="133.76" height="0.54"/>
			
				<rect x="-58.53" y="2.97" transform="matrix(0.7071 -0.7071 0.7071 0.7071 0.1553 6.8555)" class="st1" width="133.76" height="0.54"/>
		</g>
	</g>
</g>
<g>
	<rect x="79.98" y="5.68" class="st2" width="5.83" height="5.83"/>
	<path class="st3" d="M85.81,12.2h-5.83c-0.38,0-0.69-0.31-0.69-0.69V5.69C79.29,5.31,79.6,5,79.98,5h5.83
		c0.38,0,0.69,0.31,0.69,0.69v5.83C86.49,11.89,86.19,12.2,85.81,12.2z M80.66,10.83h4.46V6.37h-4.46V10.83z"/>
</g>
<g>
	<polyline class="st2" points="18.24,70.31 11.76,70.31 11.76,63.84 	"/>
	<path class="st3" d="M18.24,71h-6.48c-0.38,0-0.69-0.31-0.69-0.69v-6.48c0-0.38,0.31-0.69,0.69-0.69s0.69,0.31,0.69,0.69v5.79h5.79
		c0.38,0,0.69,0.31,0.69,0.69S18.62,71,18.24,71z"/>
</g>
<g>
	<circle class="st2" cx="103.8" cy="32.62" r="3.56"/>
	<path class="st3" d="M103.8,36.87c-2.34,0-4.25-1.91-4.25-4.25s1.91-4.25,4.25-4.25s4.25,1.91,4.25,4.25S106.14,36.87,103.8,36.87z
		 M103.8,29.75c-1.59,0-2.88,1.29-2.88,2.88s1.29,2.88,2.88,2.88s2.88-1.29,2.88-2.88C106.67,31.04,105.38,29.75,103.8,29.75z"/>
</g>
<g>
	<path class="st2" d="M15.7,21.22c1.64,1.64,1.64,4.31,0,5.95s-4.31,1.64-5.95,0"/>
	<path class="st3" d="M12.72,29.1c-1.25,0-2.51-0.48-3.46-1.43c-0.27-0.27-0.27-0.7,0-0.97c0.27-0.27,0.7-0.27,0.97,0
		c1.33,1.33,3.65,1.33,4.98,0c0.67-0.67,1.03-1.55,1.03-2.49s-0.37-1.83-1.03-2.49c-0.27-0.27-0.27-0.7,0-0.97
		c0.27-0.27,0.7-0.27,0.97,0c0.93,0.92,1.43,2.15,1.43,3.46s-0.51,2.54-1.43,3.46C15.23,28.62,13.98,29.1,12.72,29.1z"/>
</g>
<g>
	<path class="st3" d="M36.62,12.49c-0.18,0-0.35-0.07-0.49-0.2l-4.24-4.24c-0.27-0.27-0.27-0.7,0-0.97c0.27-0.27,0.7-0.27,0.97,0
		l4.24,4.24c0.27,0.27,0.27,0.7,0,0.97C36.97,12.43,36.8,12.49,36.62,12.49z"/>
	<path class="st3" d="M32.38,12.49c-0.18,0-0.35-0.07-0.49-0.2c-0.27-0.27-0.27-0.7,0-0.97l4.24-4.24c0.27-0.27,0.7-0.27,0.97,0
		s0.27,0.7,0,0.97l-4.24,4.24C32.73,12.43,32.55,12.49,32.38,12.49z"/>
</g>
<g>
	<path class="st3" d="M104.5,78.37c-0.38,0-0.69-0.31-0.69-0.69v-6c0-0.38,0.31-0.69,0.69-0.69s0.69,0.31,0.69,0.69v6
		C105.19,78.06,104.88,78.37,104.5,78.37z"/>
	<path class="st3" d="M107.5,75.37h-6c-0.38,0-0.69-0.31-0.69-0.69S101.12,74,101.5,74h6c0.38,0,0.69,0.31,0.69,0.69
		S107.88,75.37,107.5,75.37z"/>
</g>
<ellipse class="st1" cx="57.5" cy="89.69" rx="57.5" ry="1.5"/>
<g>
	<path class="st2" d="M36.53,65.3c-3.09,0.45-6.14-1.43-7.05-4.51s0.62-6.32,3.46-7.63L36.53,65.3z"/>
	<polygon class="st4" points="72.77,29.03 76.58,41.88 53.69,52.5 51.62,45.52 	"/>
	<path class="st4" d="M60.07,85.07l-8.09,2.4l-4.24-14.3c-0.05-0.16-0.14-0.3-0.26-0.41l-4.04-3.71l8.09-2.4l4.24,14.3
		c0.05,0.16,0.14,0.3,0.26,0.41L60.07,85.07z"/>
	<path class="st4" d="M57.64,71.18c0.81-0.24,1.65,0.22,1.89,1.03l0.69,2.34c0.24,0.8-0.22,1.65-1.03,1.89l-2.63,0.78L55,71.97
		L57.64,71.18z"/>
	<path class="st4" d="M55.01,63.39c0.05,0.16-0.04,0.33-0.21,0.38l-15.18,4.5c-0.16,0.05-0.33-0.04-0.38-0.21L33.7,49.38
		c-0.05-0.16,0.05-0.33,0.21-0.38l15.18-4.5c0.16-0.05,0.33,0.04,0.38,0.21L55.01,63.39z"/>
	<polygon class="st2" points="56.37,61.53 54.22,54.27 77.11,43.65 83.09,63.83 	"/>
	<path class="st4" d="M89.65,64.55c0.05,0.16-0.05,0.33-0.21,0.38l-3.5,1.04c-0.16,0.05-0.33-0.05-0.38-0.21L73.8,26.06
		c-0.05-0.16,0.05-0.33,0.21-0.38l3.5-1.04c0.16-0.05,0.33,0.05,0.38,0.21L89.65,64.55z"/>
	<g>
		<path class="st3" d="M76.99,22.89l-3.5,1.04c-1.13,0.33-1.77,1.52-1.44,2.65l0.17,0.57L51,43.69c-0.49-0.81-1.47-1.22-2.42-0.94
			l-15.18,4.5c-1.13,0.33-1.77,1.52-1.44,2.65l0.45,1.51c-3.81,1.6-5.89,5.86-4.68,9.91s5.26,6.48,9.33,5.75l0.45,1.51
			c0.33,1.13,1.52,1.77,2.65,1.44l1.26-0.37l4.67,4.28l4.43,14.94c0.14,0.48,0.65,0.76,1.14,0.62l10.51-3.12
			c0.32-0.09,0.56-0.35,0.63-0.67c0.08-0.32-0.03-0.66-0.27-0.88l-5.05-4.63l-0.36-1.22l2.63-0.78c1.77-0.53,2.78-2.39,2.26-4.16
			l-0.69-2.34c-0.53-1.77-2.39-2.78-4.16-2.26l-2.63,0.78l-1.21-4.09l2.04-0.61c0.95-0.28,1.54-1.17,1.52-2.11l26.8,2.3l0.17,0.57
			c0.33,1.13,1.52,1.77,2.65,1.44l3.5-1.04c1.13-0.33,1.77-1.52,1.44-2.65l-11.77-39.7C79.3,23.2,78.11,22.56,76.99,22.89z
			 M36.53,65.3c-3.09,0.45-6.14-1.43-7.05-4.51s0.62-6.32,3.46-7.63L36.53,65.3z M72.77,29.03l3.81,12.85L53.69,52.5l-2.07-6.98
			L72.77,29.03z M60.07,85.07l-8.09,2.4l-4.24-14.3c-0.05-0.16-0.14-0.3-0.26-0.41l-4.04-3.71l8.09-2.4l4.24,14.3
			c0.05,0.16,0.14,0.3,0.26,0.41L60.07,85.07z M57.64,71.18c0.81-0.24,1.65,0.22,1.89,1.03l0.69,2.34c0.24,0.8-0.22,1.65-1.03,1.89
			l-2.63,0.78L55,71.97L57.64,71.18z M55.01,63.39c0.05,0.16-0.04,0.33-0.21,0.38l-15.18,4.5c-0.16,0.05-0.33-0.04-0.38-0.21
			L33.7,49.38c-0.05-0.16,0.05-0.33,0.21-0.38l15.18-4.5c0.16-0.05,0.33,0.04,0.38,0.21L55.01,63.39z M56.37,61.53l-2.15-7.26
			l22.89-10.62l5.98,20.17L56.37,61.53z M89.65,64.55c0.05,0.16-0.05,0.33-0.21,0.38l-3.5,1.04c-0.16,0.05-0.33-0.05-0.38-0.21
			L73.8,26.06c-0.05-0.16,0.05-0.33,0.21-0.38l3.5-1.04c0.16-0.05,0.33,0.05,0.38,0.21L89.65,64.55z"/>
	</g>
	<g>
		<path class="st3" d="M48.19,54.29l-8.17,2.42c-0.48,0.14-0.76,0.65-0.62,1.14c0.14,0.48,0.65,0.76,1.13,0.62l8.17-2.42
			c0.48-0.14,0.76-0.65,0.62-1.14C49.18,54.43,48.67,54.15,48.19,54.29z"/>
	</g>
	<g>
		<path class="st3" d="M49.74,59.54l-8.17,2.42c-0.48,0.14-0.76,0.65-0.62,1.13s0.65,0.76,1.13,0.62l8.17-2.42
			c0.48-0.14,0.76-0.65,0.62-1.14C50.74,59.67,50.23,59.4,49.74,59.54z"/>
	</g>
	<g>
		<path class="st3" d="M46.63,49.03l-8.17,2.42c-0.48,0.14-0.76,0.65-0.62,1.14c0.14,0.48,0.65,0.76,1.13,0.62l8.17-2.42
			c0.48-0.14,0.76-0.65,0.62-1.14C47.62,49.16,47.11,48.88,46.63,49.03z"/>
	</g>
</g>
</svg>
