<?xml version="1.0" encoding="utf-8"?>
<!-- Generator: Adobe Illustrator 24.2.2, SVG Export Plug-In . SVG Version: 6.00 Build 0)  -->
<svg version="1.1" id="Layer_1" xmlns="http://www.w3.org/2000/svg" xmlns:xlink="http://www.w3.org/1999/xlink" x="0px" y="0px"
	 viewBox="0 0 119.31 95.39" style="enable-background:new 0 0 119.31 95.39;" xml:space="preserve">
<style type="text/css">
	.st0{clip-path:url(#SVGID_2_);}
	.st1{fill:#F2F2F2;}
	.st2{fill:#FFCD00;}
	.st3{fill:#323E48;}
</style>
<g>
	<g>
		<g>
			<defs>
				<path id="SVGID_1_" d="M62.75,22.39c-20.74,0-37.56,16.82-37.56,37.56c0,13.87,7.53,25.98,18.71,32.48h37.69
					c11.19-6.5,18.71-18.61,18.71-32.48C100.31,39.21,83.49,22.39,62.75,22.39z"/>
			</defs>
			<clipPath id="SVGID_2_">
				<use xlink:href="#SVGID_1_"  style="overflow:visible;"/>
			</clipPath>
			<g class="st0">
				
					<rect x="40.05" y="102.85" transform="matrix(0.7071 -0.7071 0.7071 0.7071 -41.3018 106.5216)" class="st1" width="135.77" height="0.54"/>
				
					<rect x="39.09" y="101.89" transform="matrix(0.7071 -0.7071 0.7071 0.7071 -40.904 105.5616)" class="st1" width="135.77" height="0.54"/>
				
					<rect x="38.13" y="100.93" transform="matrix(0.7071 -0.7071 0.7071 0.7071 -40.5063 104.6016)" class="st1" width="135.77" height="0.54"/>
				
					<rect x="37.17" y="99.97" transform="matrix(0.7071 -0.7071 0.7071 0.7071 -40.1101 103.6423)" class="st1" width="135.77" height="0.54"/>
				
					<rect x="36.21" y="99.01" transform="matrix(0.7071 -0.7071 0.7071 0.7071 -39.7108 102.6816)" class="st1" width="135.77" height="0.54"/>
				
					<rect x="35.25" y="98.04" transform="matrix(0.7071 -0.7071 0.7071 0.7071 -39.3117 101.721)" class="st1" width="135.77" height="0.54"/>
				
					<rect x="34.29" y="97.09" transform="matrix(0.7071 -0.7071 0.7071 0.7071 -38.9155 100.7616)" class="st1" width="135.77" height="0.54"/>
				
					<rect x="33.33" y="96.13" transform="matrix(0.7071 -0.7071 0.7071 0.7071 -38.5177 99.8017)" class="st1" width="135.77" height="0.54"/>
				
					<rect x="32.37" y="95.17" transform="matrix(0.7071 -0.7071 0.7071 0.7071 -38.1216 98.8423)" class="st1" width="135.77" height="0.54"/>
				
					<rect x="31.41" y="94.21" transform="matrix(0.7071 -0.7071 0.7071 0.7071 -37.7224 97.8817)" class="st1" width="135.77" height="0.54"/>
				
					<rect x="30.45" y="93.25" transform="matrix(0.7071 -0.7071 0.7071 0.7071 -37.3246 96.9217)" class="st1" width="135.77" height="0.54"/>
				
					<rect x="29.49" y="92.29" transform="matrix(0.7071 -0.7071 0.7071 0.7071 -36.927 95.9617)" class="st1" width="135.77" height="0.54"/>
				
					<rect x="28.53" y="91.33" transform="matrix(0.7071 -0.7071 0.7071 0.7071 -36.5292 95.0017)" class="st1" width="135.77" height="0.54"/>
				
					<rect x="27.57" y="90.37" transform="matrix(0.7071 -0.7071 0.7071 0.7071 -36.1315 94.0417)" class="st1" width="135.77" height="0.54"/>
				
					<rect x="26.61" y="89.41" transform="matrix(0.7071 -0.7071 0.7071 0.7071 -35.7339 93.0817)" class="st1" width="135.77" height="0.54"/>
				
					<rect x="25.65" y="88.45" transform="matrix(0.7071 -0.7071 0.7071 0.7071 -35.3375 92.1223)" class="st1" width="135.77" height="0.54"/>
				
					<rect x="24.69" y="87.49" transform="matrix(0.7071 -0.7071 0.7071 0.7071 -34.9384 91.1617)" class="st1" width="135.77" height="0.54"/>
				
					<rect x="23.73" y="86.53" transform="matrix(0.7071 -0.7071 0.7071 0.7071 -34.5421 90.2024)" class="st1" width="135.77" height="0.54"/>
				
					<rect x="22.77" y="85.57" transform="matrix(0.7071 -0.7071 0.7071 0.7071 -34.143 89.2418)" class="st1" width="135.77" height="0.54"/>
				
					<rect x="21.81" y="84.6" transform="matrix(0.7071 -0.7071 0.7071 0.7071 -33.744 88.2812)" class="st1" width="135.77" height="0.54"/>
				
					<rect x="20.85" y="83.65" transform="matrix(0.7071 -0.7071 0.7071 0.7071 -33.3476 87.3218)" class="st1" width="135.77" height="0.54"/>
				
					<rect x="19.89" y="82.68" transform="matrix(0.7071 -0.7071 0.7071 0.7071 -32.9499 86.3618)" class="st1" width="135.77" height="0.54"/>
				
					<rect x="18.93" y="81.72" transform="matrix(0.7071 -0.7071 0.7071 0.7071 -32.5522 85.4018)" class="st1" width="135.77" height="0.54"/>
				
					<rect x="17.97" y="80.76" transform="matrix(0.7071 -0.7071 0.7071 0.7071 -32.1545 84.4419)" class="st1" width="135.77" height="0.54"/>
				
					<rect x="17.01" y="79.8" transform="matrix(0.7071 -0.7071 0.7071 0.7071 -31.7568 83.4818)" class="st1" width="135.77" height="0.54"/>
				
					<rect x="16.05" y="78.84" transform="matrix(0.7071 -0.7071 0.7071 0.7071 -31.3591 82.5218)" class="st1" width="135.77" height="0.54"/>
				
					<rect x="15.09" y="77.88" transform="matrix(0.7071 -0.7071 0.7071 0.7071 -30.9614 81.5619)" class="st1" width="135.77" height="0.54"/>
				
					<rect x="14.13" y="76.92" transform="matrix(0.7071 -0.7071 0.7071 0.7071 -30.5637 80.6019)" class="st1" width="135.77" height="0.54"/>
				
					<rect x="13.17" y="75.96" transform="matrix(0.7071 -0.7071 0.7071 0.7071 -30.166 79.6418)" class="st1" width="135.77" height="0.54"/>
				
					<rect x="12.21" y="75.01" transform="matrix(0.7071 -0.7071 0.7071 0.7071 -29.7694 78.6824)" class="st1" width="135.77" height="0.54"/>
				
					<rect x="11.25" y="74.04" transform="matrix(0.7071 -0.7071 0.7071 0.7071 -29.3706 77.7219)" class="st1" width="135.77" height="0.54"/>
				
					<rect x="10.29" y="73.08" transform="matrix(0.7071 -0.7071 0.7071 0.7071 -28.9729 76.7619)" class="st1" width="135.77" height="0.54"/>
				
					<rect x="9.33" y="72.12" transform="matrix(0.7071 -0.7071 0.7071 0.7071 -28.5751 75.8019)" class="st1" width="135.77" height="0.54"/>
				
					<rect x="8.37" y="71.16" transform="matrix(0.7071 -0.7071 0.7071 0.7071 -28.1763 74.8414)" class="st1" width="135.77" height="0.54"/>
				
					<rect x="7.41" y="70.2" transform="matrix(0.7071 -0.7071 0.7071 0.7071 -27.7798 73.882)" class="st1" width="135.77" height="0.54"/>
				
					<rect x="6.45" y="69.24" transform="matrix(0.7071 -0.7071 0.7071 0.7071 -27.382 72.9219)" class="st1" width="135.77" height="0.54"/>
				
					<rect x="5.49" y="68.28" transform="matrix(0.7071 -0.7071 0.7071 0.7071 -26.9843 71.9619)" class="st1" width="135.77" height="0.54"/>
				
					<rect x="4.53" y="67.32" transform="matrix(0.7071 -0.7071 0.7071 0.7071 -26.5866 71.002)" class="st1" width="135.77" height="0.54"/>
				
					<rect x="3.57" y="66.36" transform="matrix(0.7071 -0.7071 0.7071 0.7071 -26.1889 70.042)" class="st1" width="135.77" height="0.54"/>
				
					<rect x="2.61" y="65.4" transform="matrix(0.7071 -0.7071 0.7071 0.7071 -25.7912 69.082)" class="st1" width="135.77" height="0.54"/>
				
					<rect x="1.65" y="64.44" transform="matrix(0.7071 -0.7071 0.7071 0.7071 -25.3935 68.122)" class="st1" width="135.77" height="0.54"/>
				
					<rect x="0.69" y="63.48" transform="matrix(0.7071 -0.7071 0.7071 0.7071 -24.9958 67.162)" class="st1" width="135.77" height="0.54"/>
				
					<rect x="-0.27" y="62.52" transform="matrix(0.7071 -0.7071 0.7071 0.7071 -24.5981 66.202)" class="st1" width="135.77" height="0.54"/>
				
					<rect x="-1.23" y="61.56" transform="matrix(0.7071 -0.7071 0.7071 0.7071 -24.2014 65.2425)" class="st1" width="135.77" height="0.54"/>
				
					<rect x="-2.19" y="60.6" transform="matrix(0.7071 -0.7071 0.7071 0.7071 -23.8027 64.282)" class="st1" width="135.77" height="0.54"/>
				
					<rect x="-3.15" y="59.64" transform="matrix(0.7071 -0.7071 0.7071 0.7071 -23.405 63.322)" class="st1" width="135.77" height="0.54"/>
				
					<rect x="-4.11" y="58.68" transform="matrix(0.7071 -0.7071 0.7071 0.7071 -23.0073 62.362)" class="st1" width="135.77" height="0.54"/>
				
					<rect x="-5.07" y="57.72" transform="matrix(0.7071 -0.7071 0.7071 0.7071 -22.6087 61.4017)" class="st1" width="135.77" height="0.54"/>
				
					<rect x="-6.03" y="56.76" transform="matrix(0.7071 -0.7071 0.7071 0.7071 -22.2119 60.4421)" class="st1" width="135.77" height="0.54"/>
				
					<rect x="-6.99" y="55.8" transform="matrix(0.7071 -0.7071 0.7071 0.7071 -21.8141 59.4821)" class="st1" width="135.77" height="0.54"/>
				
					<rect x="-7.95" y="54.84" transform="matrix(0.7071 -0.7071 0.7071 0.7071 -21.4165 58.5221)" class="st1" width="135.77" height="0.54"/>
				
					<rect x="-8.91" y="53.88" transform="matrix(0.7071 -0.7071 0.7071 0.7071 -21.0188 57.5621)" class="st1" width="135.77" height="0.54"/>
				
					<rect x="-9.87" y="52.92" transform="matrix(0.7071 -0.7071 0.7071 0.7071 -20.621 56.6021)" class="st1" width="135.77" height="0.54"/>
				
					<rect x="-10.83" y="51.96" transform="matrix(0.7071 -0.7071 0.7071 0.7071 -20.2233 55.6421)" class="st1" width="135.77" height="0.54"/>
				
					<rect x="-11.79" y="51" transform="matrix(0.7071 -0.7071 0.7071 0.7071 -19.8256 54.6822)" class="st1" width="135.77" height="0.54"/>
				
					<rect x="-12.75" y="50.04" transform="matrix(0.7071 -0.7071 0.7071 0.7071 -19.4279 53.7221)" class="st1" width="135.77" height="0.54"/>
				
					<rect x="-13.71" y="49.08" transform="matrix(0.7071 -0.7071 0.7071 0.7071 -19.0303 52.7622)" class="st1" width="135.77" height="0.54"/>
				
					<rect x="-14.67" y="48.12" transform="matrix(0.7071 -0.7071 0.7071 0.7071 -18.6333 51.8025)" class="st1" width="135.77" height="0.54"/>
				
					<rect x="-15.63" y="47.16" transform="matrix(0.7071 -0.7071 0.7071 0.7071 -18.2348 50.8421)" class="st1" width="135.77" height="0.54"/>
				
					<rect x="-16.59" y="46.2" transform="matrix(0.7071 -0.7071 0.7071 0.7071 -17.8364 49.8819)" class="st1" width="135.77" height="0.54"/>
				
					<rect x="-17.55" y="45.24" transform="matrix(0.7071 -0.7071 0.7071 0.7071 -17.4394 48.9222)" class="st1" width="135.77" height="0.54"/>
				
					<rect x="-18.51" y="44.28" transform="matrix(0.7071 -0.7071 0.7071 0.7071 -17.041 47.9618)" class="st1" width="135.77" height="0.54"/>
				
					<rect x="-19.47" y="43.32" transform="matrix(0.7071 -0.7071 0.7071 0.7071 -16.6441 47.0022)" class="st1" width="135.77" height="0.54"/>
				
					<rect x="-20.43" y="42.36" transform="matrix(0.7071 -0.7071 0.7071 0.7071 -16.2463 46.0422)" class="st1" width="135.77" height="0.54"/>
				
					<rect x="-21.39" y="41.4" transform="matrix(0.7071 -0.7071 0.7071 0.7071 -15.8486 45.0822)" class="st1" width="135.77" height="0.54"/>
				
					<rect x="-22.35" y="40.44" transform="matrix(0.7071 -0.7071 0.7071 0.7071 -15.4509 44.1223)" class="st1" width="135.77" height="0.54"/>
				
					<rect x="-23.31" y="39.48" transform="matrix(0.7071 -0.7071 0.7071 0.7071 -15.0532 43.1622)" class="st1" width="135.77" height="0.54"/>
				
					<rect x="-24.27" y="38.52" transform="matrix(0.7071 -0.7071 0.7071 0.7071 -14.6555 42.2022)" class="st1" width="135.77" height="0.54"/>
				
					<rect x="-25.23" y="37.56" transform="matrix(0.7071 -0.7071 0.7071 0.7071 -14.2578 41.2423)" class="st1" width="135.77" height="0.54"/>
				
					<rect x="-26.19" y="36.6" transform="matrix(0.7071 -0.7071 0.7071 0.7071 -13.8601 40.2822)" class="st1" width="135.77" height="0.54"/>
				
					<rect x="-27.15" y="35.64" transform="matrix(0.7071 -0.7071 0.7071 0.7071 -13.4624 39.3223)" class="st1" width="135.77" height="0.54"/>
				
					<rect x="-28.11" y="34.68" transform="matrix(0.7071 -0.7071 0.7071 0.7071 -13.0652 38.3626)" class="st1" width="135.77" height="0.54"/>
				
					<rect x="-29.07" y="33.72" transform="matrix(0.7071 -0.7071 0.7071 0.7071 -12.667 37.4023)" class="st1" width="135.77" height="0.54"/>
				
					<rect x="-30.03" y="32.76" transform="matrix(0.7071 -0.7071 0.7071 0.7071 -12.2688 36.4421)" class="st1" width="135.77" height="0.54"/>
				
					<rect x="-30.99" y="31.8" transform="matrix(0.7071 -0.7071 0.7071 0.7071 -11.8715 35.4823)" class="st1" width="135.77" height="0.54"/>
				
					<rect x="-31.95" y="30.84" transform="matrix(0.7071 -0.7071 0.7071 0.7071 -11.4739 34.5223)" class="st1" width="135.77" height="0.54"/>
				
					<rect x="-32.91" y="29.88" transform="matrix(0.7071 -0.7071 0.7071 0.7071 -11.0761 33.5624)" class="st1" width="135.77" height="0.54"/>
				
					<rect x="-33.87" y="28.92" transform="matrix(0.7071 -0.7071 0.7071 0.7071 -10.6784 32.6023)" class="st1" width="135.77" height="0.54"/>
				
					<rect x="-34.83" y="27.96" transform="matrix(0.7071 -0.7071 0.7071 0.7071 -10.2808 31.6424)" class="st1" width="135.77" height="0.54"/>
				
					<rect x="-35.79" y="27" transform="matrix(0.7071 -0.7071 0.7071 0.7071 -9.883 30.6824)" class="st1" width="135.77" height="0.54"/>
				
					<rect x="-36.75" y="26.04" transform="matrix(0.7071 -0.7071 0.7071 0.7071 -9.4853 29.7223)" class="st1" width="135.77" height="0.54"/>
				
					<rect x="-37.71" y="25.08" transform="matrix(0.7071 -0.7071 0.7071 0.7071 -9.0876 28.7624)" class="st1" width="135.77" height="0.54"/>
				
					<rect x="-38.67" y="24.12" transform="matrix(0.7071 -0.7071 0.7071 0.7071 -8.6899 27.8024)" class="st1" width="135.77" height="0.54"/>
				
					<rect x="-39.63" y="23.16" transform="matrix(0.7071 -0.7071 0.7071 0.7071 -8.2926 26.8426)" class="st1" width="135.77" height="0.54"/>
				
					<rect x="-40.59" y="22.2" transform="matrix(0.7071 -0.7071 0.7071 0.7071 -7.8945 25.8825)" class="st1" width="135.77" height="0.54"/>
				
					<rect x="-41.55" y="21.24" transform="matrix(0.7071 -0.7071 0.7071 0.7071 -7.4971 24.9226)" class="st1" width="135.77" height="0.54"/>
				
					<rect x="-42.51" y="20.28" transform="matrix(0.7071 -0.7071 0.7071 0.7071 -7.0991 23.9624)" class="st1" width="135.77" height="0.54"/>
				
					<rect x="-43.47" y="19.32" transform="matrix(0.7071 -0.7071 0.7071 0.7071 -6.7011 23.0023)" class="st1" width="135.77" height="0.54"/>
				
					<rect x="-44.43" y="18.36" transform="matrix(0.7071 -0.7071 0.7071 0.7071 -6.3037 22.0425)" class="st1" width="135.77" height="0.54"/>
				
					<rect x="-45.39" y="17.4" transform="matrix(0.7071 -0.7071 0.7071 0.7071 -5.906 21.0824)" class="st1" width="135.77" height="0.54"/>
				
					<rect x="-46.35" y="16.44" transform="matrix(0.7071 -0.7071 0.7071 0.7071 -5.5083 20.1225)" class="st1" width="135.77" height="0.54"/>
				
					<rect x="-47.31" y="15.48" transform="matrix(0.7071 -0.7071 0.7071 0.7071 -5.1106 19.1625)" class="st1" width="135.77" height="0.54"/>
				
					<rect x="-48.27" y="14.52" transform="matrix(0.7071 -0.7071 0.7071 0.7071 -4.7129 18.2025)" class="st1" width="135.77" height="0.54"/>
				
					<rect x="-49.23" y="13.56" transform="matrix(0.7071 -0.7071 0.7071 0.7071 -4.3152 17.2425)" class="st1" width="135.77" height="0.54"/>
				
					<rect x="-50.19" y="12.6" transform="matrix(0.7071 -0.7071 0.7071 0.7071 -3.9175 16.2825)" class="st1" width="135.77" height="0.54"/>
				
					<rect x="-51.15" y="11.64" transform="matrix(0.7071 -0.7071 0.7071 0.7071 -3.5197 15.3225)" class="st1" width="135.77" height="0.54"/>
				
					<rect x="-52.11" y="10.68" transform="matrix(0.7071 -0.7071 0.7071 0.7071 -3.1221 14.3625)" class="st1" width="135.77" height="0.54"/>
				
					<rect x="-53.07" y="9.72" transform="matrix(0.7071 -0.7071 0.7071 0.7071 -2.7244 13.4025)" class="st1" width="135.77" height="0.54"/>
				
					<rect x="-54.03" y="8.76" transform="matrix(0.7071 -0.7071 0.7071 0.7071 -2.3266 12.4426)" class="st1" width="135.77" height="0.54"/>
				
					<rect x="-54.99" y="7.8" transform="matrix(0.7071 -0.7071 0.7071 0.7071 -1.929 11.4826)" class="st1" width="135.77" height="0.54"/>
				
					<rect x="-55.95" y="6.84" transform="matrix(0.7071 -0.7071 0.7071 0.7071 -1.5312 10.5225)" class="st1" width="135.77" height="0.54"/>
				
					<rect x="-56.91" y="5.88" transform="matrix(0.7071 -0.7071 0.7071 0.7071 -1.1334 9.5624)" class="st1" width="135.77" height="0.54"/>
				
					<rect x="-57.87" y="4.92" transform="matrix(0.7071 -0.7071 0.7071 0.7071 -0.7358 8.6026)" class="st1" width="135.77" height="0.54"/>
			</g>
		</g>
	</g>
	<g>
		
			<rect x="33.29" y="1.89" transform="matrix(0.7071 -0.7071 0.7071 0.7071 7.2038 27.0099)" class="st2" width="5.83" height="5.83"/>
		<path class="st3" d="M36.2,9.62L36.2,9.62c-0.18,0-0.36-0.07-0.49-0.2L31.59,5.3c-0.27-0.27-0.27-0.7,0-0.97l4.12-4.12
			c0.26-0.26,0.71-0.26,0.97,0l4.12,4.12c0.13,0.13,0.2,0.3,0.2,0.48s-0.07,0.36-0.2,0.48l-4.12,4.12
			C36.56,9.54,36.38,9.62,36.2,9.62z M33.05,4.81l3.15,3.15l3.15-3.15L36.2,1.66L33.05,4.81z"/>
	</g>
	<g>
		<polyline class="st2" points="8.31,69.7 12.89,74.28 8.31,78.86 		"/>
		<path class="st3" d="M8.31,79.55c-0.18,0-0.35-0.07-0.49-0.2c-0.27-0.27-0.27-0.7,0-0.97l4.1-4.1l-4.1-4.1
			c-0.27-0.27-0.27-0.7,0-0.97c0.27-0.27,0.7-0.27,0.97,0l4.58,4.58c0.13,0.13,0.2,0.3,0.2,0.48s-0.07,0.36-0.2,0.48l-4.58,4.58
			C8.66,79.48,8.49,79.55,8.31,79.55z"/>
	</g>
	<ellipse class="st1" cx="61.81" cy="93.89" rx="57.5" ry="1.5"/>
	<g>
		<circle class="st2" cx="104.1" cy="15.83" r="3.56"/>
		<path class="st3" d="M104.1,20.08c-2.34,0-4.25-1.91-4.25-4.25s1.91-4.25,4.25-4.25s4.25,1.91,4.25,4.25S106.45,20.08,104.1,20.08
			z M104.1,12.95c-1.59,0-2.88,1.29-2.88,2.88s1.29,2.88,2.88,2.88s2.88-1.29,2.88-2.88S105.69,12.95,104.1,12.95z"/>
	</g>
	<g>
		<path class="st2" d="M115.73,72.79c0,2.33-1.89,4.21-4.21,4.21s-4.21-1.89-4.21-4.21"/>
		<path class="st3" d="M111.52,77.69c-2.7,0-4.9-2.2-4.9-4.9c0-0.38,0.31-0.69,0.69-0.69s0.69,0.31,0.69,0.69
			c0,1.94,1.58,3.53,3.53,3.53s3.52-1.58,3.52-3.53c0-0.38,0.31-0.69,0.69-0.69s0.69,0.31,0.69,0.69
			C116.41,75.49,114.22,77.69,111.52,77.69z"/>
	</g>
	<g>
		<path class="st3" d="M4.93,46.7c-0.18,0-0.35-0.07-0.49-0.2L0.2,42.26c-0.27-0.27-0.27-0.7,0-0.97s0.7-0.27,0.97,0l4.24,4.24
			c0.27,0.27,0.27,0.7,0,0.97C5.28,46.63,5.1,46.7,4.93,46.7z"/>
		<path class="st3" d="M0.69,46.7c-0.18,0-0.35-0.07-0.49-0.2c-0.27-0.27-0.27-0.7,0-0.97l4.24-4.24c0.27-0.27,0.7-0.27,0.97,0
			c0.27,0.27,0.27,0.7,0,0.97L1.17,46.5C1.04,46.63,0.86,46.7,0.69,46.7z"/>
	</g>
	<g>
		<path class="st3" d="M77.81,8.58c-0.38,0-0.69-0.31-0.69-0.69v-6c0-0.38,0.31-0.69,0.69-0.69s0.69,0.31,0.69,0.69v6
			C78.49,8.27,78.19,8.58,77.81,8.58z"/>
		<path class="st3" d="M80.81,5.58h-6c-0.38,0-0.69-0.31-0.69-0.69s0.31-0.69,0.69-0.69h6c0.38,0,0.69,0.31,0.69,0.69
			S81.19,5.58,80.81,5.58z"/>
	</g>
	<g>
		<g>
			<path class="st3" d="M45.38,34.34c0.18,0,0.36-0.05,0.53-0.15c8.05-4.94,17.99-5.77,26.76-2.3l-0.9,1.79l6.05-0.36l-3.34-5.07
				l-0.91,1.82c-9.4-3.78-20.07-2.92-28.73,2.39c-0.48,0.29-0.63,0.92-0.34,1.4C44.7,34.17,45.03,34.34,45.38,34.34z"/>
		</g>
		<g>
			<path class="st3" d="M89.06,65.68l1.35,5.92l4.45-4.13l-1.94-0.6c1.3-5.89,0.96-11.99-1.05-17.69c-0.19-0.53-0.77-0.8-1.29-0.62
				c-0.53,0.19-0.81,0.77-0.62,1.29c1.86,5.29,2.2,10.94,1.02,16.42L89.06,65.68z"/>
		</g>
		<g>
			<path class="st3" d="M31.58,71.33c0.15,0.41,0.54,0.65,0.95,0.65c0.12,0,0.24-0.02,0.36-0.07c0.52-0.2,0.79-0.79,0.59-1.31
				c-1.93-5.08-2.43-10.57-1.49-15.93l1.93,0.52l-1.58-5.86l-4.28,4.3l1.97,0.53C28.98,59.93,29.5,65.85,31.58,71.33z"/>
		</g>
		<g>
			<path class="st3" d="M40.89,82.12c-0.43,0.36-0.5,0.99-0.14,1.43c0.6,0.73,0.91,1.61,0.91,2.55v5.27H30.17V86.1
				c0-0.94,0.31-1.82,0.91-2.55c0.36-0.43,0.29-1.07-0.14-1.43c-0.43-0.35-1.07-0.29-1.43,0.14c-0.88,1.08-1.37,2.44-1.37,3.84v6.28
				c0,0.56,0.45,1.01,1.01,1.01h13.52c0.56,0,1.01-0.45,1.01-1.01V86.1c0-1.39-0.49-2.76-1.37-3.84
				C41.96,81.83,41.32,81.76,40.89,82.12z"/>
		</g>
		<g>
			<path class="st3" d="M31.52,78.17c0,2.42,1.97,4.4,4.39,4.4c2.42,0,4.39-1.97,4.39-4.4s-1.97-4.4-4.39-4.4
				S31.52,75.74,31.52,78.17z M38.28,78.17c0,1.31-1.06,2.37-2.37,2.37c-1.3,0-2.37-1.06-2.37-2.37c0-1.31,1.06-2.37,2.37-2.37
				C37.22,75.8,38.28,76.86,38.28,78.17z"/>
		</g>
		<g>
			<path class="st3" d="M92.26,82.12c-0.43,0.36-0.5,0.99-0.14,1.43c0.6,0.73,0.91,1.61,0.91,2.55v5.27H81.54V86.1
				c0-0.94,0.32-1.82,0.91-2.55c0.36-0.43,0.29-1.07-0.14-1.43c-0.43-0.35-1.07-0.29-1.43,0.14c-0.88,1.08-1.37,2.44-1.37,3.84v6.28
				c0,0.56,0.46,1.01,1.01,1.01h13.52c0.56,0,1.01-0.45,1.01-1.01V86.1c0-1.39-0.49-2.76-1.37-3.84
				C93.33,81.83,92.69,81.76,92.26,82.12z"/>
		</g>
		<g>
			<path class="st3" d="M82.89,78.17c0,2.42,1.97,4.4,4.39,4.4s4.39-1.97,4.39-4.4s-1.97-4.4-4.39-4.4S82.89,75.74,82.89,78.17z
				 M89.65,78.17c0,1.31-1.06,2.37-2.36,2.37s-2.37-1.06-2.37-2.37c0-1.31,1.06-2.37,2.37-2.37C88.59,75.8,89.65,76.86,89.65,78.17z
				"/>
		</g>
		<g>
			<path class="st3" d="M29.15,46.02h13.52c0.56,0,1.01-0.45,1.01-1.02v-6.28c0-1.4-0.49-2.76-1.37-3.84c-0.36-0.44-1-0.5-1.43-0.14
				c-0.43,0.35-0.5,1-0.14,1.43c0.6,0.73,0.91,1.61,0.91,2.55v5.26H30.17v-5.26c0-0.94,0.31-1.82,0.91-2.55
				c0.36-0.43,0.29-1.07-0.14-1.43c-0.43-0.35-1.07-0.29-1.43,0.14c-0.88,1.08-1.37,2.44-1.37,3.84V45
				C28.14,45.57,28.59,46.02,29.15,46.02z"/>
		</g>
		<g>
			<path class="st3" d="M35.91,35.19c2.42,0,4.39-1.97,4.39-4.4s-1.97-4.4-4.39-4.4c-2.42,0-4.39,1.97-4.39,4.4
				S33.49,35.19,35.91,35.19z M35.91,28.42c1.3,0,2.37,1.06,2.37,2.37s-1.06,2.37-2.37,2.37c-1.3,0-2.37-1.06-2.37-2.37
				C33.55,29.49,34.61,28.42,35.91,28.42z"/>
		</g>
		<g>
			<path class="st3" d="M93.68,34.89c-0.36-0.44-1-0.5-1.43-0.14c-0.43,0.35-0.5,1-0.14,1.43c0.6,0.73,0.91,1.61,0.91,2.55v5.26
				H81.54v-5.26c0-0.94,0.32-1.82,0.91-2.55c0.36-0.43,0.29-1.07-0.14-1.43c-0.43-0.35-1.07-0.29-1.43,0.14
				c-0.88,1.08-1.37,2.44-1.37,3.84v6.28c0,0.56,0.46,1.02,1.01,1.02h13.52c0.56,0,1.01-0.45,1.01-1.02v-6.28
				C95.05,37.33,94.57,35.97,93.68,34.89z"/>
		</g>
		<g>
			<path class="st3" d="M87.28,35.19c2.42,0,4.39-1.97,4.39-4.4s-1.97-4.4-4.39-4.4s-4.39,1.97-4.39,4.4S84.86,35.19,87.28,35.19z
				 M87.28,28.42c1.3,0,2.36,1.06,2.36,2.37s-1.06,2.37-2.36,2.37s-2.37-1.06-2.37-2.37C84.92,29.49,85.98,28.42,87.28,28.42z"/>
		</g>
		<g>
			<path class="st3" d="M61.6,46.25c-0.56,0-1.01,0.46-1.01,1.02s0.46,1.02,1.01,1.02c5.75,0,10.57,4.12,11.46,9.8
				c0.08,0.5,0.51,0.86,1,0.86c0.05,0,0.1,0,0.16-0.01c0.55-0.09,0.93-0.61,0.85-1.16C74.02,51.09,68.35,46.25,61.6,46.25z"/>
		</g>
		<g>
			<path class="st3" d="M61.6,39.93c-10.99,0-19.94,8.96-19.94,19.96c0,5.29,2.05,10.28,5.78,14.04c1.75,1.77,2.71,4.13,2.71,6.65
				v4.65c0,1.14,0.93,2.07,2.07,2.07h1.01v1.02c0,2.8,2.28,5.07,5.07,5.07h6.76c2.79,0,5.07-2.28,5.07-5.07V87.3h1.01
				c1.14,0,2.07-0.93,2.07-2.07v-4.81c0-2.49,0.94-4.83,2.66-6.59c3.66-3.75,5.67-8.7,5.67-13.95
				C81.54,48.88,72.59,39.93,61.6,39.93z M68.1,88.32c0,1.68-1.36,3.05-3.04,3.05H58.3c-1.68,0-3.04-1.37-3.04-3.05V87.3H68.1V88.32
				z M71.14,85.27l-18.96-0.04v-4.02h19L71.14,85.27z M56.53,68.35H54.5c-1.12,0-2.03-0.91-2.03-2.03c0-1.12,0.91-2.03,2.03-2.03
				s2.03,0.91,2.03,2.03V68.35z M58.56,79.18v-8.8h6.08v8.8H58.56z M74.42,72.42c-1.8,1.84-2.9,4.21-3.17,6.76h-4.58v-8.8h2.03
				c2.24,0,4.06-1.82,4.06-4.06s-1.82-4.06-4.06-4.06s-4.06,1.82-4.06,4.06v2.03h-6.08v-2.03c0-2.24-1.82-4.06-4.06-4.06
				s-4.06,1.82-4.06,4.06s1.82,4.06,4.06,4.06h2.03v8.8h-4.45c-0.3-2.52-1.41-4.86-3.21-6.67c-3.35-3.38-5.19-7.86-5.19-12.62
				c0-9.89,8.04-17.93,17.91-17.93S79.5,50.01,79.5,59.89C79.51,64.6,77.7,69.05,74.42,72.42z M66.67,68.35v-2.03
				c0-1.12,0.91-2.03,2.03-2.03c1.12,0,2.03,0.91,2.03,2.03c0,1.12-0.91,2.03-2.03,2.03H66.67z"/>
		</g>
	</g>
	<g>
		<path class="st2" d="M56.53,68.35H54.5c-1.12,0-2.03-0.91-2.03-2.03c0-1.12,0.91-2.03,2.03-2.03s2.03,0.91,2.03,2.03V68.35z"/>
		<rect x="58.56" y="70.38" class="st2" width="6.08" height="8.8"/>
		<path class="st2" d="M74.42,72.42c-1.8,1.84-2.9,4.21-3.17,6.76h-4.58v-8.8h2.03c2.24,0,4.06-1.82,4.06-4.06s-1.82-4.06-4.06-4.06
			s-4.06,1.82-4.06,4.06v2.03h-6.08v-2.03c0-2.24-1.82-4.06-4.06-4.06s-4.06,1.82-4.06,4.06s1.82,4.06,4.06,4.06h2.03v8.8h-4.45
			c-0.3-2.52-1.41-4.86-3.21-6.67c-3.35-3.38-5.19-7.86-5.19-12.62c0-9.89,8.04-17.93,17.91-17.93S79.5,50.01,79.5,59.89
			C79.51,64.6,77.7,69.05,74.42,72.42z"/>
		<path class="st2" d="M66.67,68.35v-2.03c0-1.12,0.91-2.03,2.03-2.03c1.12,0,2.03,0.91,2.03,2.03c0,1.12-0.91,2.03-2.03,2.03H66.67
			z"/>
	</g>
</g>
</svg>
