<?xml version="1.0" encoding="utf-8"?>
<!-- Generator: Adobe Illustrator 24.2.2, SVG Export Plug-In . SVG Version: 6.00 Build 0)  -->
<svg version="1.1" id="Layer_1" xmlns="http://www.w3.org/2000/svg" xmlns:xlink="http://www.w3.org/1999/xlink" x="0px" y="0px"
	 viewBox="0 0 119.31 95.39" style="enable-background:new 0 0 119.31 95.39;" xml:space="preserve">
<style type="text/css">
	.st0{clip-path:url(#SVGID_2_);}
	.st1{fill:#F2F2F2;}
	.st2{fill:#FFCD00;}
	.st3{fill:#323E48;}
	.st4{fill:#FFFFFF;}
</style>
<g>
	<g>
		<defs>
			<path id="SVGID_1_" d="M65.31,24.39c-20.43,0-37,16.57-37,37c0,13.67,7.41,25.59,18.43,32h37.13c11.02-6.41,18.43-18.33,18.43-32
				C102.31,40.96,85.74,24.39,65.31,24.39z"/>
		</defs>
		<clipPath id="SVGID_2_">
			<use xlink:href="#SVGID_1_"  style="overflow:visible;"/>
		</clipPath>
		<g class="st0">
			
				<rect x="42.95" y="103.65" transform="matrix(0.7071 -0.7071 0.7071 0.7071 -41.3115 108.0993)" class="st1" width="133.76" height="0.54"/>
			
				<rect x="42" y="102.7" transform="matrix(0.7071 -0.7071 0.7071 0.7071 -40.9214 107.1493)" class="st1" width="133.76" height="0.54"/>
			
				<rect x="41.06" y="101.76" transform="matrix(0.7071 -0.7071 0.7071 0.7071 -40.5273 106.2094)" class="st1" width="133.76" height="0.54"/>
			
				<rect x="40.11" y="100.81" transform="matrix(0.7071 -0.7071 0.7071 0.7071 -40.1388 105.26)" class="st1" width="133.76" height="0.54"/>
			
				<rect x="39.17" y="99.86" transform="matrix(0.7071 -0.7071 0.7071 0.7071 -39.7402 104.3123)" class="st1" width="133.76" height="0.54"/>
			
				<rect x="38.22" y="98.92" transform="matrix(0.7071 -0.7071 0.7071 0.7071 -39.3515 103.3687)" class="st1" width="133.76" height="0.54"/>
			
				<rect x="37.28" y="97.97" transform="matrix(0.7071 -0.7071 0.7071 0.7071 -38.956 102.4223)" class="st1" width="133.76" height="0.54"/>
			
				<rect x="36.33" y="97.03" transform="matrix(0.7071 -0.7071 0.7071 0.7071 -38.5689 101.4794)" class="st1" width="133.76" height="0.54"/>
			
				<rect x="35.38" y="96.08" transform="matrix(0.7071 -0.7071 0.7071 0.7071 -38.1804 100.5301)" class="st1" width="133.76" height="0.54"/>
			
				<rect x="34.44" y="95.13" transform="matrix(0.7071 -0.7071 0.7071 0.7071 -37.7847 99.5894)" class="st1" width="133.76" height="0.54"/>
			
				<rect x="33.49" y="94.19" transform="matrix(0.7071 -0.7071 0.7071 0.7071 -37.3947 98.6394)" class="st1" width="133.76" height="0.54"/>
			
				<rect x="32.55" y="93.24" transform="matrix(0.7071 -0.7071 0.7071 0.7071 -36.9976 97.6923)" class="st1" width="133.76" height="0.54"/>
			
				<rect x="31.6" y="92.3" transform="matrix(0.7071 -0.7071 0.7071 0.7071 -36.6105 96.7494)" class="st1" width="133.76" height="0.54"/>
			
				<rect x="30.65" y="91.35" transform="matrix(0.7071 -0.7071 0.7071 0.7071 -36.2205 95.7994)" class="st1" width="133.76" height="0.54"/>
			
				<rect x="29.71" y="90.41" transform="matrix(0.7071 -0.7071 0.7071 0.7071 -35.8263 94.8595)" class="st1" width="133.76" height="0.54"/>
			
				<rect x="28.76" y="89.46" transform="matrix(0.7071 -0.7071 0.7071 0.7071 -35.4377 93.91)" class="st1" width="133.76" height="0.54"/>
			
				<rect x="27.82" y="88.51" transform="matrix(0.7071 -0.7071 0.7071 0.7071 -35.0392 92.9624)" class="st1" width="133.76" height="0.54"/>
			
				<rect x="26.87" y="87.57" transform="matrix(0.7071 -0.7071 0.7071 0.7071 -34.6535 92.0201)" class="st1" width="133.76" height="0.54"/>
			
				<rect x="25.93" y="86.62" transform="matrix(0.7071 -0.7071 0.7071 0.7071 -34.255 91.0724)" class="st1" width="133.76" height="0.54"/>
			
				<rect x="24.98" y="85.68" transform="matrix(0.7071 -0.7071 0.7071 0.7071 -33.8666 90.1289)" class="st1" width="133.76" height="0.54"/>
			
				<rect x="24.03" y="84.73" transform="matrix(0.7071 -0.7071 0.7071 0.7071 -33.4779 89.1795)" class="st1" width="133.76" height="0.54"/>
			
				<rect x="23.09" y="83.79" transform="matrix(0.7071 -0.7071 0.7071 0.7071 -33.0837 88.2395)" class="st1" width="133.76" height="0.54"/>
			
				<rect x="22.14" y="82.84" transform="matrix(0.7071 -0.7071 0.7071 0.7071 -32.6938 87.2895)" class="st1" width="133.76" height="0.54"/>
			
				<rect x="21.2" y="81.89" transform="matrix(0.7071 -0.7071 0.7071 0.7071 -32.2966 86.3425)" class="st1" width="133.76" height="0.54"/>
			
				<rect x="20.25" y="80.95" transform="matrix(0.7071 -0.7071 0.7071 0.7071 -31.9095 85.3995)" class="st1" width="133.76" height="0.54"/>
			
				<rect x="19.31" y="80" transform="matrix(0.7071 -0.7071 0.7071 0.7071 -31.5125 84.4525)" class="st1" width="133.76" height="0.54"/>
			
				<rect x="18.36" y="79.06" transform="matrix(0.7071 -0.7071 0.7071 0.7071 -31.1254 83.5095)" class="st1" width="133.76" height="0.54"/>
			
				<rect x="17.41" y="78.11" transform="matrix(0.7071 -0.7071 0.7071 0.7071 -30.7354 82.5596)" class="st1" width="133.76" height="0.54"/>
			
				<rect x="16.47" y="77.16" transform="matrix(0.7071 -0.7071 0.7071 0.7071 -30.3382 81.6125)" class="st1" width="133.76" height="0.54"/>
			
				<rect x="15.52" y="76.22" transform="matrix(0.7071 -0.7071 0.7071 0.7071 -29.9523 80.6702)" class="st1" width="133.76" height="0.54"/>
			
				<rect x="14.58" y="75.27" transform="matrix(0.7071 -0.7071 0.7071 0.7071 -29.5541 79.7225)" class="st1" width="133.76" height="0.54"/>
			
				<rect x="13.63" y="74.33" transform="matrix(0.7071 -0.7071 0.7071 0.7071 -29.1669 78.7797)" class="st1" width="133.76" height="0.54"/>
			
				<rect x="12.68" y="73.38" transform="matrix(0.7071 -0.7071 0.7071 0.7071 -28.7769 77.8296)" class="st1" width="133.76" height="0.54"/>
			
				<rect x="11.74" y="72.43" transform="matrix(0.7071 -0.7071 0.7071 0.7071 -28.3817 76.8891)" class="st1" width="133.76" height="0.54"/>
			
				<rect x="10.79" y="71.49" transform="matrix(0.7071 -0.7071 0.7071 0.7071 -27.9928 75.9396)" class="st1" width="133.76" height="0.54"/>
			
				<rect x="9.85" y="70.54" transform="matrix(0.7071 -0.7071 0.7071 0.7071 -27.5956 74.9926)" class="st1" width="133.76" height="0.54"/>
			
				<rect x="8.9" y="69.6" transform="matrix(0.7071 -0.7071 0.7071 0.7071 -27.2086 74.0496)" class="st1" width="133.76" height="0.54"/>
			
				<rect x="7.96" y="68.65" transform="matrix(0.7071 -0.7071 0.7071 0.7071 -26.8115 73.1026)" class="st1" width="133.76" height="0.54"/>
			
				<rect x="7.01" y="67.71" transform="matrix(0.7071 -0.7071 0.7071 0.7071 -26.4243 72.1597)" class="st1" width="133.76" height="0.54"/>
			
				<rect x="6.06" y="66.76" transform="matrix(0.7071 -0.7071 0.7071 0.7071 -26.0344 71.2097)" class="st1" width="133.76" height="0.54"/>
			
				<rect x="5.12" y="65.82" transform="matrix(0.7071 -0.7071 0.7071 0.7071 -25.6402 70.2697)" class="st1" width="133.76" height="0.54"/>
			
				<rect x="4.17" y="64.87" transform="matrix(0.7071 -0.7071 0.7071 0.7071 -25.2502 69.3197)" class="st1" width="133.76" height="0.54"/>
			
				<rect x="3.23" y="63.92" transform="matrix(0.7071 -0.7071 0.7071 0.7071 -24.8531 68.3726)" class="st1" width="133.76" height="0.54"/>
			
				<rect x="2.28" y="62.98" transform="matrix(0.7071 -0.7071 0.7071 0.7071 -24.467 67.4302)" class="st1" width="133.76" height="0.54"/>
			
				<rect x="1.34" y="62.03" transform="matrix(0.7071 -0.7071 0.7071 0.7071 -24.0689 66.4826)" class="st1" width="133.76" height="0.54"/>
			
				<rect x="0.39" y="61.09" transform="matrix(0.7071 -0.7071 0.7071 0.7071 -23.6818 65.5397)" class="st1" width="133.76" height="0.54"/>
			
				<rect x="-0.56" y="60.14" transform="matrix(0.7071 -0.7071 0.7071 0.7071 -23.2918 64.5897)" class="st1" width="133.76" height="0.54"/>
			
				<rect x="-1.5" y="59.19" transform="matrix(0.7071 -0.7071 0.7071 0.7071 -22.8938 63.6422)" class="st1" width="133.76" height="0.54"/>
			
				<rect x="-2.45" y="58.25" transform="matrix(0.7071 -0.7071 0.7071 0.7071 -22.5077 62.6998)" class="st1" width="133.76" height="0.54"/>
			
				<rect x="-3.39" y="57.3" transform="matrix(0.7071 -0.7071 0.7071 0.7071 -22.1105 61.7527)" class="st1" width="133.76" height="0.54"/>
			
				<rect x="-4.34" y="56.36" transform="matrix(0.7071 -0.7071 0.7071 0.7071 -21.7235 60.8098)" class="st1" width="133.76" height="0.54"/>
			
				<rect x="-5.29" y="55.41" transform="matrix(0.7071 -0.7071 0.7071 0.7071 -21.3334 59.8598)" class="st1" width="133.76" height="0.54"/>
			
				<rect x="-6.23" y="54.47" transform="matrix(0.7071 -0.7071 0.7071 0.7071 -20.9392 58.9198)" class="st1" width="133.76" height="0.54"/>
			
				<rect x="-7.18" y="53.52" transform="matrix(0.7071 -0.7071 0.7071 0.7071 -20.5492 57.9698)" class="st1" width="133.76" height="0.54"/>
			
				<rect x="-8.12" y="52.57" transform="matrix(0.7071 -0.7071 0.7071 0.7071 -20.1522 57.0227)" class="st1" width="133.76" height="0.54"/>
			
				<rect x="-9.07" y="51.63" transform="matrix(0.7071 -0.7071 0.7071 0.7071 -19.7651 56.0798)" class="st1" width="133.76" height="0.54"/>
			
				<rect x="-10.01" y="50.68" transform="matrix(0.7071 -0.7071 0.7071 0.7071 -19.3679 55.1328)" class="st1" width="133.76" height="0.54"/>
			
				<rect x="-10.96" y="49.74" transform="matrix(0.7071 -0.7071 0.7071 0.7071 -18.9816 54.1902)" class="st1" width="133.76" height="0.54"/>
			
				<rect x="-11.91" y="48.79" transform="matrix(0.7071 -0.7071 0.7071 0.7071 -18.5909 53.2398)" class="st1" width="133.76" height="0.54"/>
			
				<rect x="-12.85" y="47.84" transform="matrix(0.7071 -0.7071 0.7071 0.7071 -18.1959 52.2995)" class="st1" width="133.76" height="0.54"/>
			
				<rect x="-13.8" y="46.9" transform="matrix(0.7071 -0.7071 0.7071 0.7071 -17.8066 51.3499)" class="st1" width="133.76" height="0.54"/>
			
				<rect x="-14.74" y="45.95" transform="matrix(0.7071 -0.7071 0.7071 0.7071 -17.4088 50.4025)" class="st1" width="133.76" height="0.54"/>
			
				<rect x="-15.69" y="45.01" transform="matrix(0.7071 -0.7071 0.7071 0.7071 -17.0225 49.4599)" class="st1" width="133.76" height="0.54"/>
			
				<rect x="-16.63" y="44.05" transform="matrix(0.7071 -0.7071 0.7071 0.7071 -16.6253 48.5128)" class="st1" width="133.76" height="0.54"/>
			
				<rect x="-17.58" y="43.12" transform="matrix(0.7071 -0.7071 0.7071 0.7071 -16.2382 47.57)" class="st1" width="133.76" height="0.54"/>
			
				<rect x="-18.53" y="42.17" transform="matrix(0.7071 -0.7071 0.7071 0.7071 -15.8483 46.6199)" class="st1" width="133.76" height="0.54"/>
			
				<rect x="-19.47" y="41.22" transform="matrix(0.7071 -0.7071 0.7071 0.7071 -15.4512 45.6728)" class="st1" width="133.76" height="0.54"/>
			
				<rect x="-20.42" y="40.28" transform="matrix(0.7071 -0.7071 0.7071 0.7071 -15.0641 44.7299)" class="st1" width="133.76" height="0.54"/>
			
				<rect x="-21.36" y="39.33" transform="matrix(0.7071 -0.7071 0.7071 0.7071 -14.667 43.7829)" class="st1" width="133.76" height="0.54"/>
			
				<rect x="-22.31" y="38.39" transform="matrix(0.7071 -0.7071 0.7071 0.7071 -14.2799 42.8399)" class="st1" width="133.76" height="0.54"/>
			
				<rect x="-23.26" y="37.44" transform="matrix(0.7071 -0.7071 0.7071 0.7071 -13.8899 41.89)" class="st1" width="133.76" height="0.54"/>
			
				<rect x="-24.2" y="36.5" transform="matrix(0.7071 -0.7071 0.7071 0.7071 -13.4963 40.9503)" class="st1" width="133.76" height="0.54"/>
			
				<rect x="-25.15" y="35.55" transform="matrix(0.7071 -0.7071 0.7071 0.7071 -13.1057 40)" class="st1" width="133.76" height="0.54"/>
			
				<rect x="-26.09" y="34.6" transform="matrix(0.7071 -0.7071 0.7071 0.7071 -12.708 39.0526)" class="st1" width="133.76" height="0.54"/>
			
				<rect x="-27.04" y="33.66" transform="matrix(0.7071 -0.7071 0.7071 0.7071 -12.3215 38.11)" class="st1" width="133.76" height="0.54"/>
			
				<rect x="-27.98" y="32.71" transform="matrix(0.7071 -0.7071 0.7071 0.7071 -11.9244 37.1629)" class="st1" width="133.76" height="0.54"/>
			
				<rect x="-28.93" y="31.77" transform="matrix(0.7071 -0.7071 0.7071 0.7071 -11.5373 36.2201)" class="st1" width="133.76" height="0.54"/>
			
				<rect x="-29.88" y="30.82" transform="matrix(0.7071 -0.7071 0.7071 0.7071 -11.1473 35.27)" class="st1" width="133.76" height="0.54"/>
			
				<rect x="-30.82" y="29.88" transform="matrix(0.7071 -0.7071 0.7071 0.7071 -10.7532 34.3301)" class="st1" width="133.76" height="0.54"/>
			
				<rect x="-31.77" y="28.93" transform="matrix(0.7071 -0.7071 0.7071 0.7071 -10.3632 33.38)" class="st1" width="133.76" height="0.54"/>
			
				<rect x="-32.71" y="27.98" transform="matrix(0.7071 -0.7071 0.7071 0.7071 -9.966 32.433)" class="st1" width="133.76" height="0.54"/>
			
				<rect x="-33.66" y="27.04" transform="matrix(0.7071 -0.7071 0.7071 0.7071 -9.5789 31.4901)" class="st1" width="133.76" height="0.54"/>
			
				<rect x="-34.6" y="26.08" transform="matrix(0.7071 -0.7071 0.7071 0.7071 -9.1819 30.543)" class="st1" width="133.76" height="0.54"/>
			
				<rect x="-35.55" y="25.15" transform="matrix(0.7071 -0.7071 0.7071 0.7071 -8.7952 29.6003)" class="st1" width="133.76" height="0.54"/>
			
				<rect x="-36.5" y="24.2" transform="matrix(0.7071 -0.7071 0.7071 0.7071 -8.4047 28.6501)" class="st1" width="133.76" height="0.54"/>
			
				<rect x="-37.44" y="23.25" transform="matrix(0.7071 -0.7071 0.7071 0.7071 -8.008 27.7033)" class="st1" width="133.76" height="0.54"/>
			
				<rect x="-38.39" y="22.31" transform="matrix(0.7071 -0.7071 0.7071 0.7071 -7.6205 26.7601)" class="st1" width="133.76" height="0.54"/>
			
				<rect x="-39.33" y="21.36" transform="matrix(0.7071 -0.7071 0.7071 0.7071 -7.2231 25.8129)" class="st1" width="133.76" height="0.54"/>
			
				<rect x="-40.28" y="20.42" transform="matrix(0.7071 -0.7071 0.7071 0.7071 -6.8364 24.8702)" class="st1" width="133.76" height="0.54"/>
			
				<rect x="-41.23" y="19.47" transform="matrix(0.7071 -0.7071 0.7071 0.7071 -6.4463 23.9202)" class="st1" width="133.76" height="0.54"/>
			
				<rect x="-42.17" y="18.53" transform="matrix(0.7071 -0.7071 0.7071 0.7071 -6.0522 22.9802)" class="st1" width="133.76" height="0.54"/>
			
				<rect x="-43.12" y="17.58" transform="matrix(0.7071 -0.7071 0.7071 0.7071 -5.6622 22.0302)" class="st1" width="133.76" height="0.54"/>
			
				<rect x="-44.06" y="16.63" transform="matrix(0.7071 -0.7071 0.7071 0.7071 -5.2651 21.0831)" class="st1" width="133.76" height="0.54"/>
			
				<rect x="-45.01" y="15.69" transform="matrix(0.7071 -0.7071 0.7071 0.7071 -4.878 20.1402)" class="st1" width="133.76" height="0.54"/>
			
				<rect x="-45.95" y="14.74" transform="matrix(0.7071 -0.7071 0.7071 0.7071 -4.4809 19.1931)" class="st1" width="133.76" height="0.54"/>
			
				<rect x="-46.9" y="13.8" transform="matrix(0.7071 -0.7071 0.7071 0.7071 -4.0938 18.2502)" class="st1" width="133.76" height="0.54"/>
			
				<rect x="-47.85" y="12.85" transform="matrix(0.7071 -0.7071 0.7071 0.7071 -3.7038 17.3002)" class="st1" width="133.76" height="0.54"/>
			
				<rect x="-48.79" y="11.91" transform="matrix(0.7071 -0.7071 0.7071 0.7071 -3.3096 16.3602)" class="st1" width="133.76" height="0.54"/>
			
				<rect x="-49.74" y="10.96" transform="matrix(0.7071 -0.7071 0.7071 0.7071 -2.9196 15.4102)" class="st1" width="133.76" height="0.54"/>
			
				<rect x="-50.68" y="10.01" transform="matrix(0.7071 -0.7071 0.7071 0.7071 -2.5225 14.4632)" class="st1" width="133.76" height="0.54"/>
			
				<rect x="-51.63" y="9.07" transform="matrix(0.7071 -0.7071 0.7071 0.7071 -2.1354 13.5202)" class="st1" width="133.76" height="0.54"/>
			
				<rect x="-52.57" y="8.11" transform="matrix(0.7071 -0.7071 0.7071 0.7071 -1.7382 12.5731)" class="st1" width="133.76" height="0.54"/>
			
				<rect x="-53.52" y="7.18" transform="matrix(0.7071 -0.7071 0.7071 0.7071 -1.3513 11.6303)" class="st1" width="133.76" height="0.54"/>
		</g>
	</g>
</g>
<g>
	
		<rect x="27.29" y="10.89" transform="matrix(0.7071 -0.7071 0.7071 0.7071 -0.9174 25.4033)" class="st2" width="5.83" height="5.83"/>
	<path class="st3" d="M30.2,18.62L30.2,18.62c-0.18,0-0.36-0.07-0.49-0.2l-4.12-4.12c-0.27-0.27-0.27-0.7,0-0.97l4.12-4.12
		c0.27-0.27,0.7-0.27,0.97,0l4.12,4.12c0.13,0.13,0.2,0.3,0.2,0.49s-0.07,0.36-0.2,0.49l-4.12,4.12
		C30.56,18.54,30.38,18.62,30.2,18.62z M27.05,13.81l3.15,3.15l3.15-3.15l-3.15-3.15L27.05,13.81z"/>
</g>
<g>
	<polyline class="st2" points="8.31,69.7 12.89,74.28 8.31,78.86 	"/>
	<path class="st3" d="M8.31,79.55c-0.18,0-0.35-0.07-0.49-0.2c-0.27-0.27-0.27-0.7,0-0.97l4.1-4.1l-4.1-4.09
		c-0.27-0.27-0.27-0.7,0-0.97c0.27-0.27,0.7-0.27,0.97,0l4.58,4.58c0.13,0.13,0.2,0.3,0.2,0.49s-0.07,0.36-0.2,0.49L8.8,79.35
		C8.66,79.48,8.49,79.55,8.31,79.55z"/>
</g>
<ellipse class="st1" cx="57.31" cy="93.39" rx="28" ry="2"/>
<g>
	<circle class="st2" cx="106.1" cy="13.83" r="3.56"/>
	<path class="st3" d="M106.1,18.08c-2.34,0-4.25-1.91-4.25-4.25s1.91-4.25,4.25-4.25s4.25,1.91,4.25,4.25S108.45,18.08,106.1,18.08z
		 M106.1,10.95c-1.59,0-2.88,1.29-2.88,2.88s1.29,2.88,2.88,2.88s2.88-1.29,2.88-2.88C108.98,12.24,107.69,10.95,106.1,10.95z"/>
</g>
<g>
	<path class="st2" d="M109.01,71.43c1.64,1.64,1.64,4.31,0,5.95s-4.31,1.64-5.95,0"/>
	<path class="st3" d="M106.03,79.3c-1.25,0-2.51-0.48-3.46-1.43c-0.27-0.27-0.27-0.7,0-0.97c0.27-0.27,0.7-0.27,0.97,0
		c1.33,1.33,3.65,1.33,4.98,0c0.67-0.67,1.03-1.55,1.03-2.49s-0.37-1.83-1.03-2.49c-0.27-0.27-0.27-0.7,0-0.97
		c0.27-0.27,0.7-0.27,0.97,0c0.93,0.92,1.43,2.15,1.43,3.46s-0.51,2.54-1.43,3.46C108.54,78.83,107.28,79.3,106.03,79.3z"/>
</g>
<g>
	<path class="st3" d="M12.93,35.7c-0.18,0-0.35-0.07-0.49-0.2L8.2,31.26c-0.27-0.27-0.27-0.7,0-0.97c0.27-0.27,0.7-0.27,0.97,0
		l4.24,4.24c0.27,0.27,0.27,0.7,0,0.97C13.28,35.63,13.1,35.7,12.93,35.7z"/>
	<path class="st3" d="M8.69,35.7c-0.18,0-0.35-0.07-0.49-0.2c-0.27-0.27-0.27-0.7,0-0.97l4.24-4.24c0.27-0.27,0.7-0.27,0.97,0
		s0.27,0.7,0,0.97L9.17,35.5C9.04,35.63,8.86,35.7,8.69,35.7z"/>
</g>
<g>
	<path class="st3" d="M74.81,14.58c-0.38,0-0.69-0.31-0.69-0.69v-6c0-0.38,0.31-0.69,0.69-0.69s0.69,0.31,0.69,0.69v6
		C75.49,14.27,75.19,14.58,74.81,14.58z"/>
	<path class="st3" d="M77.81,11.58h-6c-0.38,0-0.69-0.31-0.69-0.69s0.31-0.69,0.69-0.69h6c0.38,0,0.69,0.31,0.69,0.69
		S78.19,11.58,77.81,11.58z"/>
</g>
<g>
	<path class="st2" d="M94.21,59.53c0,0.92-0.37,1.78-1.05,2.43c-0.63,0.6-1.45,0.93-2.31,0.93H62.46c-2.73,0-5.42,0.71-7.8,2.05
		l-10.35,5.85V29.2c0-0.92,0.37-1.78,1.05-2.43c0.63-0.6,1.45-0.93,2.3-0.93h43.17c0.85,0,1.67,0.33,2.3,0.93
		c0.68,0.65,1.05,1.51,1.05,2.43v30.33H94.21z"/>
	<path class="st4" d="M68.19,91.48l-7.21-4.08c-2.37-1.34-5.07-2.05-7.8-2.05H31.15c-1.85,0-3.36-1.51-3.36-3.36v-23.2
		c0-1.85,1.51-3.36,3.36-3.36h11.03v17.19c0,0.38,0.2,0.73,0.53,0.92c0.17,0.1,0.35,0.15,0.54,0.15c0.18,0,0.37-0.05,0.53-0.14
		l11.94-6.75c2.05-1.16,4.38-1.77,6.74-1.77h5.73V91.48z"/>
	<g>
		<path class="st3" d="M94.63,25.21L94.63,25.21c-1.03-0.98-2.38-1.52-3.78-1.52H47.68c-1.41,0-2.75,0.54-3.78,1.52
			c-1.11,1.06-1.72,2.47-1.72,3.98v24.09H31.15c-3.03,0-5.5,2.47-5.5,5.5v23.21c0,3.03,2.47,5.5,5.5,5.5h22.03
			c2.36,0,4.69,0.61,6.74,1.77l8.81,4.98c0.16,0.09,0.35,0.14,0.53,0.14c0.19,0,0.37-0.05,0.54-0.15c0.33-0.19,0.53-0.54,0.53-0.92
			V65.03h20.51c1.41,0,2.75-0.54,3.79-1.52c1.1-1.05,1.71-2.47,1.71-3.98V29.2C96.35,27.68,95.74,26.27,94.63,25.21z M68.19,91.48
			l-7.21-4.08c-2.37-1.34-5.07-2.05-7.8-2.05H31.15c-1.85,0-3.36-1.51-3.36-3.36v-23.2c0-1.85,1.51-3.36,3.36-3.36h11.03v17.19
			c0,0.38,0.2,0.73,0.53,0.92c0.17,0.1,0.35,0.15,0.54,0.15c0.18,0,0.37-0.05,0.53-0.14l11.94-6.75c2.05-1.16,4.38-1.77,6.74-1.77
			h5.73V91.48z M94.21,59.53c0,0.92-0.37,1.78-1.05,2.43c-0.63,0.6-1.45,0.93-2.31,0.93H62.46c-2.73,0-5.42,0.71-7.8,2.05
			l-10.35,5.85V29.2c0-0.92,0.37-1.78,1.05-2.43c0.63-0.6,1.45-0.93,2.3-0.93h43.17c0.85,0,1.67,0.33,2.3,0.93
			c0.68,0.65,1.05,1.51,1.05,2.43v30.33H94.21z"/>
	</g>
	<g>
		<path class="st3" d="M37.23,77.48c-0.2,0.2-0.31,0.49-0.31,0.77c0,0.27,0.12,0.54,0.31,0.76c0.2,0.19,0.49,0.31,0.77,0.31
			c0.27,0,0.56-0.13,0.76-0.33c0.19-0.2,0.3-0.47,0.3-0.74c0-0.28-0.12-0.57-0.3-0.76C38.36,77.09,37.63,77.1,37.23,77.48z"/>
	</g>
	<g>
		<path class="st3" d="M48,77.19c-0.6,0-1.08,0.47-1.08,1.07c0,0.59,0.48,1.07,1.08,1.07c0.59,0,1.07-0.48,1.07-1.07
			C49.07,77.66,48.59,77.19,48,77.19z"/>
	</g>
	<g>
		<path class="st3" d="M57.23,77.48c-0.2,0.2-0.3,0.49-0.3,0.77c0,0.27,0.1,0.54,0.3,0.76c0.2,0.2,0.47,0.31,0.76,0.31
			c0.29,0,0.56-0.11,0.77-0.33c0.19-0.2,0.31-0.47,0.31-0.74c0-0.28-0.13-0.56-0.33-0.77C58.34,77.09,57.63,77.1,57.23,77.48z"/>
	</g>
	<g>
		<path class="st3" d="M52.13,45.43h6.73c0.59,0,1.07-0.48,1.07-1.07s-0.48-1.07-1.07-1.07h-6.73c-0.59,0-1.07,0.48-1.07,1.07
			C51.05,44.95,51.53,45.43,52.13,45.43z"/>
	</g>
	<g>
		<path class="st3" d="M86.4,43.29H66c-0.59,0-1.07,0.48-1.07,1.07s0.48,1.07,1.07,1.07h20.4c0.59,0,1.07-0.48,1.07-1.07
			S86.99,43.29,86.4,43.29z"/>
	</g>
	<g>
		<path class="st3" d="M52.13,35.43h19.41c0.59,0,1.07-0.48,1.07-1.07s-0.48-1.07-1.07-1.07H52.13c-0.59,0-1.07,0.48-1.07,1.07
			C51.05,34.96,51.53,35.43,52.13,35.43z"/>
	</g>
	<g>
		<path class="st3" d="M86.4,33.29h-7.73c-0.59,0-1.07,0.48-1.07,1.07s0.48,1.07,1.07,1.07h7.73c0.59,0,1.07-0.48,1.07-1.07
			S86.99,33.29,86.4,33.29z"/>
	</g>
	<g>
		<path class="st3" d="M76.4,53.29H52.13c-0.59,0-1.07,0.48-1.07,1.07s0.48,1.07,1.07,1.07H76.4c0.59,0,1.07-0.48,1.07-1.07
			C77.48,53.77,77,53.29,76.4,53.29z"/>
	</g>
</g>
</svg>
