<?xml version="1.0" encoding="utf-8"?>
<!-- Generator: Adobe Illustrator 24.2.2, SVG Export Plug-In . SVG Version: 6.00 Build 0)  -->
<svg version="1.1" id="Layer_1" xmlns="http://www.w3.org/2000/svg" xmlns:xlink="http://www.w3.org/1999/xlink" x="0px" y="0px"
	 viewBox="0 0 258 258" style="enable-background:new 0 0 258 258;" xml:space="preserve">
<style type="text/css">
	.st0{opacity:0.15;}
	.st1{clip-path:url(#SVGID_2_);}
	.st2{fill:#9D9D9D;}
	.st3{fill:#FFCD00;}
	.st4{fill:#323E48;}
	.st5{fill:#FFFFFF;}
</style>
<g class="st0">
	<g>
		<defs>
			<circle id="SVGID_1_" cx="129" cy="129" r="129"/>
		</defs>
		<clipPath id="SVGID_2_">
			<use xlink:href="#SVGID_1_"  style="overflow:visible;"/>
		</clipPath>
		<g class="st1">
			
				<rect x="51.1" y="276.3" transform="matrix(0.7071 -0.7071 0.7071 0.7071 -112.7991 282.1804)" class="st2" width="466.3" height="1.9"/>
			
				<rect x="47.8" y="273" transform="matrix(0.7071 -0.7071 0.7071 0.7071 -111.433 278.883)" class="st2" width="466.3" height="1.9"/>
			
				<rect x="44.5" y="269.7" transform="matrix(0.7071 -0.7071 0.7071 0.7071 -110.0673 275.5856)" class="st2" width="466.3" height="1.9"/>
			
				<rect x="41.2" y="266.4" transform="matrix(0.7071 -0.7071 0.7071 0.7071 -108.7007 272.2946)" class="st2" width="466.3" height="1.9"/>
			
				<rect x="37.9" y="263.1" transform="matrix(0.7071 -0.7071 0.7071 0.7071 -107.3357 268.9901)" class="st2" width="466.3" height="1.9"/>
			
				<rect x="34.6" y="259.8" transform="matrix(0.7071 -0.7071 0.7071 0.7071 -105.9701 265.6863)" class="st2" width="466.3" height="1.9"/>
			
				<rect x="31.3" y="256.5" transform="matrix(0.7071 -0.7071 0.7071 0.7071 -104.6039 262.3953)" class="st2" width="466.3" height="1.9"/>
			
				<rect x="28" y="253.2" transform="matrix(0.7071 -0.7071 0.7071 0.7071 -103.2379 259.0978)" class="st2" width="466.3" height="1.9"/>
			
				<rect x="24.7" y="249.9" transform="matrix(0.7071 -0.7071 0.7071 0.7071 -101.8712 255.8069)" class="st2" width="466.3" height="1.9"/>
			
				<rect x="21.4" y="246.6" transform="matrix(0.7071 -0.7071 0.7071 0.7071 -100.5061 252.503)" class="st2" width="466.3" height="1.9"/>
			
				<rect x="18.1" y="243.3" transform="matrix(0.7071 -0.7071 0.7071 0.7071 -99.1396 249.2059)" class="st2" width="466.3" height="1.9"/>
			
				<rect x="14.8" y="240" transform="matrix(0.7071 -0.7071 0.7071 0.7071 -97.7743 245.9082)" class="st2" width="466.3" height="1.9"/>
			
				<rect x="11.5" y="236.7" transform="matrix(0.7071 -0.7071 0.7071 0.7071 -96.4088 242.6101)" class="st2" width="466.3" height="1.9"/>
			
				<rect x="8.2" y="233.5" transform="matrix(0.7071 -0.7071 0.7071 0.7071 -95.0427 239.3127)" class="st2" width="466.3" height="1.9"/>
			
				<rect x="4.9" y="230.2" transform="matrix(0.7071 -0.7071 0.7071 0.7071 -93.677 236.0159)" class="st2" width="466.3" height="1.9"/>
			
				<rect x="1.6" y="226.9" transform="matrix(0.7071 -0.7071 0.7071 0.7071 -92.3104 232.7233)" class="st2" width="466.3" height="1.9"/>
			
				<rect x="-1.7" y="223.6" transform="matrix(0.7071 -0.7071 0.7071 0.7071 -90.9444 229.4208)" class="st2" width="466.3" height="1.9"/>
			
				<rect x="-5" y="220.3" transform="matrix(0.7071 -0.7071 0.7071 0.7071 -89.5787 226.1283)" class="st2" width="466.3" height="1.9"/>
			
				<rect x="-8.3" y="217" transform="matrix(0.7071 -0.7071 0.7071 0.7071 -88.2126 222.826)" class="st2" width="466.3" height="1.9"/>
			
				<rect x="-11.6" y="213.7" transform="matrix(0.7071 -0.7071 0.7071 0.7071 -86.8482 219.523)" class="st2" width="466.3" height="1.9"/>
			
				<rect x="-14.9" y="210.4" transform="matrix(0.7071 -0.7071 0.7071 0.7071 -85.4818 216.2301)" class="st2" width="466.3" height="1.9"/>
			
				<rect x="-18.2" y="207.1" transform="matrix(0.7071 -0.7071 0.7071 0.7071 -84.1161 212.9334)" class="st2" width="466.3" height="1.9"/>
			
				<rect x="-21.5" y="203.8" transform="matrix(0.7071 -0.7071 0.7071 0.7071 -82.75 209.6359)" class="st2" width="466.3" height="1.9"/>
			
				<rect x="-24.8" y="200.5" transform="matrix(0.7071 -0.7071 0.7071 0.7071 -81.3839 206.3379)" class="st2" width="466.3" height="1.9"/>
			
				<rect x="-28.1" y="197.2" transform="matrix(0.7071 -0.7071 0.7071 0.7071 -80.0182 203.0411)" class="st2" width="466.3" height="1.9"/>
			
				<rect x="-31.4" y="193.9" transform="matrix(0.7071 -0.7071 0.7071 0.7071 -78.6524 199.7438)" class="st2" width="466.3" height="1.9"/>
			
				<rect x="-34.7" y="190.6" transform="matrix(0.7071 -0.7071 0.7071 0.7071 -77.2864 196.4463)" class="st2" width="466.3" height="1.9"/>
			
				<rect x="-38" y="187.3" transform="matrix(0.7071 -0.7071 0.7071 0.7071 -75.9209 193.1482)" class="st2" width="466.3" height="1.9"/>
			
				<rect x="-41.3" y="184" transform="matrix(0.7071 -0.7071 0.7071 0.7071 -74.5548 189.8508)" class="st2" width="466.3" height="1.9"/>
			
				<rect x="-44.6" y="180.7" transform="matrix(0.7071 -0.7071 0.7071 0.7071 -73.1886 186.5578)" class="st2" width="466.3" height="1.9"/>
			
				<rect x="-47.9" y="177.4" transform="matrix(0.7071 -0.7071 0.7071 0.7071 -71.823 183.256)" class="st2" width="466.3" height="1.9"/>
			
				<rect x="-51.2" y="174.1" transform="matrix(0.7071 -0.7071 0.7071 0.7071 -70.457 179.9579)" class="st2" width="466.3" height="1.9"/>
			
				<rect x="-54.5" y="170.8" transform="matrix(0.7071 -0.7071 0.7071 0.7071 -69.0912 176.6611)" class="st2" width="466.3" height="1.9"/>
			
				<rect x="-57.8" y="167.5" transform="matrix(0.7071 -0.7071 0.7071 0.7071 -67.7257 173.3597)" class="st2" width="466.3" height="1.9"/>
			
				<rect x="-61.1" y="164.2" transform="matrix(0.7071 -0.7071 0.7071 0.7071 -66.3594 170.0663)" class="st2" width="466.3" height="1.9"/>
			
				<rect x="-64.4" y="160.9" transform="matrix(0.7071 -0.7071 0.7071 0.7071 -64.9939 166.7683)" class="st2" width="466.3" height="1.9"/>
			
				<rect x="-67.7" y="157.6" transform="matrix(0.7071 -0.7071 0.7071 0.7071 -63.6279 163.4708)" class="st2" width="466.3" height="1.9"/>
			
				<rect x="-71" y="154.3" transform="matrix(0.7071 -0.7071 0.7071 0.7071 -62.2621 160.1735)" class="st2" width="466.3" height="1.9"/>
			
				<rect x="-74.2" y="151" transform="matrix(0.7071 -0.7071 0.7071 0.7071 -60.8961 156.876)" class="st2" width="466.3" height="1.9"/>
			
				<rect x="-77.5" y="147.7" transform="matrix(0.7071 -0.7071 0.7071 0.7071 -59.5303 153.5786)" class="st2" width="466.3" height="1.9"/>
			
				<rect x="-80.8" y="144.4" transform="matrix(0.7071 -0.7071 0.7071 0.7071 -58.1643 150.2812)" class="st2" width="466.3" height="1.9"/>
			
				<rect x="-84.1" y="141.1" transform="matrix(0.7071 -0.7071 0.7071 0.7071 -56.7985 146.9838)" class="st2" width="466.3" height="1.9"/>
			
				<rect x="-87.4" y="137.8" transform="matrix(0.7071 -0.7071 0.7071 0.7071 -55.4324 143.6864)" class="st2" width="466.3" height="1.9"/>
			
				<rect x="-90.7" y="134.5" transform="matrix(0.7071 -0.7071 0.7071 0.7071 -54.0666 140.3916)" class="st2" width="466.3" height="1.9"/>
			
				<rect x="-94" y="131.2" transform="matrix(0.7071 -0.7071 0.7071 0.7071 -52.7009 137.0908)" class="st2" width="466.3" height="1.9"/>
			
				<rect x="-97.3" y="127.9" transform="matrix(0.7071 -0.7071 0.7071 0.7071 -51.3352 133.7935)" class="st2" width="466.3" height="1.9"/>
			
				<rect x="-100.6" y="124.6" transform="matrix(0.7071 -0.7071 0.7071 0.7071 -49.9691 130.496)" class="st2" width="466.3" height="1.9"/>
			
				<rect x="-103.9" y="121.3" transform="matrix(0.7071 -0.7071 0.7071 0.7071 -48.6042 127.196)" class="st2" width="466.3" height="1.9"/>
			
				<rect x="-107.2" y="118" transform="matrix(0.7071 -0.7071 0.7071 0.7071 -47.2373 123.9012)" class="st2" width="466.3" height="1.9"/>
			
				<rect x="-110.5" y="114.7" transform="matrix(0.7071 -0.7071 0.7071 0.7071 -45.8718 120.6031)" class="st2" width="466.3" height="1.9"/>
			
				<rect x="-113.8" y="111.4" transform="matrix(0.7071 -0.7071 0.7071 0.7071 -44.5058 117.3057)" class="st2" width="466.3" height="1.9"/>
			
				<rect x="-117.1" y="108.1" transform="matrix(0.7071 -0.7071 0.7071 0.7071 -43.1393 114.0086)" class="st2" width="466.3" height="1.9"/>
			
				<rect x="-120.4" y="104.8" transform="matrix(0.7071 -0.7071 0.7071 0.7071 -41.7739 110.7109)" class="st2" width="466.3" height="1.9"/>
			
				<rect x="-123.7" y="101.6" transform="matrix(0.7071 -0.7071 0.7071 0.7071 -40.4082 107.4135)" class="st2" width="466.3" height="1.9"/>
			
				<rect x="-127" y="98.3" transform="matrix(0.7071 -0.7071 0.7071 0.7071 -39.0421 104.1161)" class="st2" width="466.3" height="1.9"/>
			
				<rect x="-130.3" y="95" transform="matrix(0.7071 -0.7071 0.7071 0.7071 -37.6764 100.8187)" class="st2" width="466.3" height="1.9"/>
			
				<rect x="-133.6" y="91.7" transform="matrix(0.7071 -0.7071 0.7071 0.7071 -36.3103 97.5212)" class="st2" width="466.3" height="1.9"/>
			
				<rect x="-136.9" y="88.4" transform="matrix(0.7071 -0.7071 0.7071 0.7071 -34.9443 94.226)" class="st2" width="466.3" height="1.9"/>
			
				<rect x="-140.2" y="85.1" transform="matrix(0.7071 -0.7071 0.7071 0.7071 -33.5788 90.9257)" class="st2" width="466.3" height="1.9"/>
			
				<rect x="-143.5" y="81.8" transform="matrix(0.7071 -0.7071 0.7071 0.7071 -32.2132 87.6269)" class="st2" width="466.3" height="1.9"/>
			
				<rect x="-146.8" y="78.5" transform="matrix(0.7071 -0.7071 0.7071 0.7071 -30.847 84.3309)" class="st2" width="466.3" height="1.9"/>
			
				<rect x="-150.1" y="75.2" transform="matrix(0.7071 -0.7071 0.7071 0.7071 -29.4812 81.0322)" class="st2" width="466.3" height="1.9"/>
			
				<rect x="-153.4" y="71.9" transform="matrix(0.7071 -0.7071 0.7071 0.7071 -28.1152 77.7361)" class="st2" width="466.3" height="1.9"/>
			
				<rect x="-156.7" y="68.6" transform="matrix(0.7071 -0.7071 0.7071 0.7071 -26.7494 74.4387)" class="st2" width="466.3" height="1.9"/>
			
				<rect x="-160" y="65.3" transform="matrix(0.7071 -0.7071 0.7071 0.7071 -25.3833 71.1413)" class="st2" width="466.3" height="1.9"/>
			
				<rect x="-163.3" y="62" transform="matrix(0.7071 -0.7071 0.7071 0.7071 -24.0172 67.8435)" class="st2" width="466.3" height="1.9"/>
			
				<rect x="-166.6" y="58.7" transform="matrix(0.7071 -0.7071 0.7071 0.7071 -22.6518 64.5457)" class="st2" width="466.3" height="1.9"/>
			
				<rect x="-169.9" y="55.4" transform="matrix(0.7071 -0.7071 0.7071 0.7071 -21.2854 61.2487)" class="st2" width="466.3" height="1.9"/>
			
				<rect x="-173.2" y="52.1" transform="matrix(0.7071 -0.7071 0.7071 0.7071 -19.92 57.9509)" class="st2" width="466.3" height="1.9"/>
			
				<rect x="-176.5" y="48.8" transform="matrix(0.7071 -0.7071 0.7071 0.7071 -18.5543 54.6536)" class="st2" width="466.3" height="1.9"/>
			
				<rect x="-179.8" y="45.5" transform="matrix(0.7071 -0.7071 0.7071 0.7071 -17.1882 51.3561)" class="st2" width="466.3" height="1.9"/>
			
				<rect x="-183.1" y="42.2" transform="matrix(0.7071 -0.7071 0.7071 0.7071 -15.8223 48.0604)" class="st2" width="466.3" height="1.9"/>
			
				<rect x="-186.4" y="38.9" transform="matrix(0.7071 -0.7071 0.7071 0.7071 -14.4567 44.7606)" class="st2" width="466.3" height="1.9"/>
			
				<rect x="-189.7" y="35.6" transform="matrix(0.7071 -0.7071 0.7071 0.7071 -13.091 41.4629)" class="st2" width="466.3" height="1.9"/>
			
				<rect x="-193" y="32.3" transform="matrix(0.7071 -0.7071 0.7071 0.7071 -11.7249 38.1658)" class="st2" width="466.3" height="1.9"/>
			
				<rect x="-196.3" y="29" transform="matrix(0.7071 -0.7071 0.7071 0.7071 -10.3584 34.8687)" class="st2" width="466.3" height="1.9"/>
			
				<rect x="-199.6" y="25.7" transform="matrix(0.7071 -0.7071 0.7071 0.7071 -8.993 31.571)" class="st2" width="466.3" height="1.9"/>
			
				<rect x="-202.9" y="22.4" transform="matrix(0.7071 -0.7071 0.7071 0.7071 -7.628 28.2739)" class="st2" width="466.3" height="1.9"/>
			
				<rect x="-206.1" y="19.1" transform="matrix(0.7071 -0.7071 0.7071 0.7071 -6.2612 24.9762)" class="st2" width="466.3" height="1.9"/>
			
				<rect x="-209.4" y="15.8" transform="matrix(0.7071 -0.7071 0.7071 0.7071 -4.8955 21.6794)" class="st2" width="466.3" height="1.9"/>
			
				<rect x="-212.7" y="12.5" transform="matrix(0.7071 -0.7071 0.7071 0.7071 -3.5297 18.3806)" class="st2" width="466.3" height="1.9"/>
			
				<rect x="-216" y="9.2" transform="matrix(0.7071 -0.7071 0.7071 0.7071 -2.1632 15.0836)" class="st2" width="466.3" height="1.9"/>
			
				<rect x="-219.3" y="5.9" transform="matrix(0.7071 -0.7071 0.7071 0.7071 -0.7979 11.7858)" class="st2" width="466.3" height="1.9"/>
			
				<rect x="-222.6" y="2.6" transform="matrix(0.7071 -0.7071 0.7071 0.7071 0.5681 8.4891)" class="st2" width="466.3" height="1.9"/>
			
				<rect x="-225.9" y="-0.7" transform="matrix(0.7071 -0.7071 0.7071 0.7071 1.9339 5.191)" class="st2" width="466.3" height="1.9"/>
			
				<rect x="-229.2" y="-4" transform="matrix(0.7071 -0.7071 0.7071 0.7071 3.2998 1.8942)" class="st2" width="466.3" height="1.9"/>
			
				<rect x="-232.5" y="-7.3" transform="matrix(0.7071 -0.7071 0.7071 0.7071 4.6657 -1.4038)" class="st2" width="466.3" height="1.9"/>
			
				<rect x="-235.8" y="-10.6" transform="matrix(0.7071 -0.7071 0.7071 0.7071 6.0313 -4.7011)" class="st2" width="466.3" height="1.9"/>
			
				<rect x="-239.1" y="-13.9" transform="matrix(0.7071 -0.7071 0.7071 0.7071 7.3973 -7.9993)" class="st2" width="466.3" height="1.9"/>
			
				<rect x="-242.4" y="-17.2" transform="matrix(0.7071 -0.7071 0.7071 0.7071 8.7637 -11.2964)" class="st2" width="466.3" height="1.9"/>
			
				<rect x="-245.7" y="-20.5" transform="matrix(0.7071 -0.7071 0.7071 0.7071 10.1291 -14.5941)" class="st2" width="466.3" height="1.9"/>
			
				<rect x="-249" y="-23.8" transform="matrix(0.7071 -0.7071 0.7071 0.7071 11.4948 -17.8909)" class="st2" width="466.3" height="1.9"/>
			
				<rect x="-252.3" y="-27.1" transform="matrix(0.7071 -0.7071 0.7071 0.7071 12.8609 -21.189)" class="st2" width="466.3" height="1.9"/>
			
				<rect x="-255.6" y="-30.3" transform="matrix(0.7071 -0.7071 0.7071 0.7071 14.2267 -24.4857)" class="st2" width="466.3" height="1.9"/>
			
				<rect x="-258.9" y="-33.6" transform="matrix(0.7071 -0.7071 0.7071 0.7071 15.5927 -27.7838)" class="st2" width="466.3" height="1.9"/>
			
				<rect x="-262.2" y="-36.9" transform="matrix(0.7071 -0.7071 0.7071 0.7071 16.9582 -31.0812)" class="st2" width="466.3" height="1.9"/>
			
				<rect x="-265.5" y="-40.2" transform="matrix(0.7071 -0.7071 0.7071 0.7071 18.3242 -34.3793)" class="st2" width="466.3" height="1.9"/>
			
				<rect x="-268.8" y="-43.5" transform="matrix(0.7071 -0.7071 0.7071 0.7071 19.69 -37.6761)" class="st2" width="466.3" height="1.9"/>
			
				<rect x="-272.1" y="-46.8" transform="matrix(0.7071 -0.7071 0.7071 0.7071 21.056 -40.9741)" class="st2" width="466.3" height="1.9"/>
			
				<rect x="-275.4" y="-50.1" transform="matrix(0.7071 -0.7071 0.7071 0.7071 22.4218 -44.2709)" class="st2" width="466.3" height="1.9"/>
			
				<rect x="-278.7" y="-53.4" transform="matrix(0.7071 -0.7071 0.7071 0.7071 23.7879 -47.5689)" class="st2" width="466.3" height="1.9"/>
			
				<rect x="-282" y="-56.7" transform="matrix(0.7071 -0.7071 0.7071 0.7071 25.1538 -50.8644)" class="st2" width="466.3" height="1.9"/>
			
				<rect x="-285.3" y="-60" transform="matrix(0.7071 -0.7071 0.7071 0.7071 26.5197 -54.1637)" class="st2" width="466.3" height="1.9"/>
		</g>
	</g>
</g>
<circle class="st3" cx="177.3" cy="179.2" r="21.3"/>
<path class="st4" d="M177.3,202.3c-12.8,0-23.1-10.3-23.1-23.1c0-12.8,10.3-23.1,23.1-23.1c12.8,0,23.1,10.3,23.1,23.1
	C200.4,191.9,190.1,202.3,177.3,202.3z M177.3,159.7c-10.8,0-19.5,8.7-19.5,19.5s8.7,19.5,19.5,19.5c10.8,0,19.5-8.7,19.5-19.5
	C196.8,168.4,188.1,159.7,177.3,159.7L177.3,159.7z"/>
<circle class="st3" cx="85.8" cy="155.1" r="21.3"/>
<path class="st4" d="M85.8,178.2c-12.8,0-23.1-10.3-23.1-23.1S73.1,132,85.8,132c12.8,0,23.1,10.3,23.1,23.1c0,0,0,0,0,0
	C108.9,167.8,98.6,178.2,85.8,178.2z M85.8,135.6c-10.8,0-19.5,8.7-19.5,19.5s8.7,19.5,19.5,19.5s19.5-8.7,19.5-19.5c0,0,0,0,0,0
	C105.3,144.3,96.6,135.6,85.8,135.6L85.8,135.6z"/>
<circle class="st5" cx="131.3" cy="167.4" r="7.8"/>
<path class="st4" d="M131.3,177c-5.3,0-9.6-4.3-9.6-9.6c0-2.3,0.8-4.5,2.4-6.3l0,0c3.5-4,9.5-4.4,13.5-0.9c4,3.5,4.4,9.5,0.9,13.5
	c-1.7,1.9-4.1,3.1-6.6,3.3C131.7,177,131.5,177,131.3,177z M126.8,163.4c-2.2,2.5-1.9,6.3,0.6,8.5c2.5,2.2,6.3,1.9,8.5-0.6
	s1.9-6.3-0.6-8.5c0,0,0,0,0,0C132.7,160.7,128.9,160.9,126.8,163.4z"/>
<circle class="st3" cx="121.7" cy="90.3" r="7.8"/>
<path class="st4" d="M121.6,99.9c-5.3,0-9.6-4.3-9.6-9.6c0-2.3,0.8-4.6,2.4-6.3l0,0c3.5-4,9.5-4.4,13.5-0.9c4,3.5,4.4,9.5,0.9,13.5
	C127.1,98.7,124.4,99.9,121.6,99.9z M117.1,86.4c-2.2,2.5-1.9,6.3,0.6,8.5c2.5,2.2,6.3,1.9,8.5-0.6c2.2-2.5,1.9-6.3-0.6-8.5
	C123.1,83.6,119.3,83.9,117.1,86.4z"/>
<circle class="st5" cx="49.4" cy="114.4" r="7.8"/>
<path class="st4" d="M49.4,124c-5.3,0-9.6-4.3-9.6-9.6c0-2.3,0.8-4.6,2.4-6.3l0,0c3.5-4,9.6-4.4,13.5-0.9s4.4,9.6,0.9,13.5
	c-1.7,1.9-4.1,3.1-6.6,3.3C49.8,124,49.6,124,49.4,124z M49.4,108.4c-0.1,0-0.3,0-0.4,0c-1.6,0.1-3.1,0.8-4.1,2l0,0
	c-2.2,2.5-1.9,6.3,0.6,8.5c2.5,2.2,6.3,1.9,8.5-0.6c2.2-2.5,1.9-6.3-0.6-8.5C52.3,108.9,50.9,108.4,49.4,108.4z M43.5,109.3
	L43.5,109.3z"/>
<circle class="st3" cx="198.7" cy="75.9" r="7.8"/>
<path class="st4" d="M198.7,85.5c-5.3,0-9.6-4.3-9.6-9.6c0-2.3,0.8-4.6,2.4-6.3l0,0c3.5-4,9.6-4.4,13.5-0.9c4,3.5,4.4,9.6,0.9,13.5
	c-1.7,1.9-4.1,3.1-6.6,3.3C199.1,85.5,198.9,85.5,198.7,85.5z M194.2,71.9c-2.2,2.5-1.9,6.3,0.6,8.5c2.5,2.2,6.3,2,8.5-0.5
	c2.2-2.5,2-6.3-0.5-8.5c0,0-0.1-0.1-0.1-0.1C200.2,69.2,196.4,69.4,194.2,71.9z"/>
<circle class="st5" cx="213.1" cy="47" r="7.8"/>
<path class="st4" d="M213.1,56.6c-5.3,0-9.6-4.3-9.6-9.6c0-2.3,0.8-4.6,2.4-6.3l0,0c3.5-4,9.5-4.4,13.5-0.9c4,3.5,4.4,9.5,0.9,13.5
	C218.6,55.4,215.9,56.6,213.1,56.6L213.1,56.6z M208.6,43c-2.2,2.5-1.9,6.3,0.6,8.5c2.5,2.2,6.3,1.9,8.5-0.6
	c2.2-2.5,1.9-6.3-0.6-8.5c0,0,0,0,0,0C214.6,40.3,210.9,40.5,208.6,43C208.7,43,208.6,43,208.6,43z"/>
<circle class="st5" cx="184.3" cy="109.6" r="13"/>
<path class="st4" d="M184.2,124.4c-8.2,0-14.8-6.6-14.8-14.8s6.6-14.8,14.8-14.8c8.2,0,14.8,6.6,14.8,14.8c0,7.8-6,14.2-13.8,14.8
	C184.9,124.4,184.6,124.4,184.2,124.4z M184.3,98.4c-6.2,0-11.2,5-11.2,11.2c0,6.2,5,11.2,11.2,11.2s11.2-5,11.2-11.2
	c0-3.2-1.4-6.3-3.8-8.4C189.6,99.4,187,98.4,184.3,98.4z"/>
<circle class="st5" cx="54.2" cy="205.9" r="13"/>
<path class="st4" d="M54.2,220.7c-8.2,0-14.8-6.6-14.8-14.8c0-8.2,6.6-14.8,14.8-14.8c8.2,0,14.8,6.6,14.8,14.8
	c0,7.8-6,14.3-13.8,14.8C54.9,220.7,54.6,220.7,54.2,220.7z M54.2,194.7c-6.2,0-11.2,5-11.2,11.2s5,11.2,11.2,11.2s11.2-5,11.2-11.2
	c0-3.2-1.4-6.3-3.8-8.4C59.6,195.7,57,194.7,54.2,194.7L54.2,194.7z"/>
<circle class="st3" cx="174.6" cy="51.8" r="13"/>
<path class="st4" d="M174.6,66.6c-8.2,0-14.8-6.6-14.8-14.8s6.6-14.8,14.8-14.8c8.2,0,14.8,6.6,14.8,14.8c0,7.8-6,14.2-13.8,14.8
	C175.3,66.6,174.9,66.6,174.6,66.6z M174.6,40.6c-0.3,0-0.5,0-0.8,0c-3,0.2-5.7,1.6-7.7,3.8l0,0c-4.1,4.7-3.6,11.7,1.1,15.8
	s11.7,3.6,15.8-1.1c4.1-4.7,3.6-11.7-1.1-15.8C180,41.6,177.3,40.6,174.6,40.6L174.6,40.6z M164.8,43.2L164.8,43.2z"/>
<circle class="st3" cx="146" cy="128" r="15.8"/>
<path class="st4" d="M146,145.6c-9.7,0-17.6-7.9-17.6-17.6s7.9-17.6,17.6-17.6c9.7,0,17.6,7.9,17.6,17.6c0,9.3-7.2,16.9-16.4,17.5
	C146.8,145.6,146.4,145.6,146,145.6z M146,114c-0.3,0-0.6,0-1,0c-7.7,0.5-13.6,7.2-13,14.9s7.2,13.6,14.9,13
	c7.7-0.5,13.6-7.2,13-14.9C159.5,119.7,153.4,114,146,114z"/>
<circle class="st3" cx="206.2" cy="97.3" r="4.6"/>
<path class="st4" d="M206.2,103.7c-1.5,0-3-0.6-4.2-1.6c-2.6-2.3-2.9-6.3-0.6-9c2.3-2.6,6.3-2.9,9-0.6c2.6,2.3,2.9,6.3,0.6,9
	c-1.1,1.3-2.7,2-4.4,2.2C206.5,103.7,206.4,103.7,206.2,103.7z M206.2,94.5c-1.5,0-2.8,1.2-2.8,2.8c0,0.8,0.3,1.6,0.9,2.1
	c1.2,1,2.9,0.9,3.9-0.3c1-1.1,0.9-2.9-0.3-3.9C207.6,94.8,206.9,94.5,206.2,94.5L206.2,94.5z"/>
<circle class="st3" cx="177.3" cy="135.8" r="4.6"/>
<path class="st4" d="M177.3,142.2c-3.5,0-6.3-2.9-6.3-6.4c0-3.5,2.9-6.3,6.4-6.3c3.5,0,6.3,2.9,6.3,6.4c0,3.3-2.6,6.1-5.9,6.3
	C177.6,142.2,177.5,142.2,177.3,142.2z M177.3,133.1c-0.1,0-0.1,0-0.2,0c-1.5,0.1-2.7,1.4-2.6,2.9c0.1,1.5,1.4,2.7,2.9,2.6
	c1.5-0.1,2.7-1.4,2.6-2.9C180,134.2,178.8,133.1,177.3,133.1z"/>
<circle class="st3" cx="124.4" cy="188.8" r="4.6"/>
<path class="st4" d="M124.4,195.1c-3.5,0-6.3-2.9-6.3-6.4s2.9-6.3,6.4-6.3c3.5,0,6.3,2.9,6.3,6.4c0,1.5-0.6,3-1.6,4.2
	C127.9,194.4,126.2,195.2,124.4,195.1z M124.4,186c-1.5,0-2.8,1.2-2.8,2.8c0,1.5,1.2,2.8,2.8,2.8c1.5,0,2.8-1.2,2.8-2.8
	c0-0.8-0.3-1.6-0.9-2.1C125.7,186.3,125,186,124.4,186L124.4,186z"/>
<circle class="st3" cx="153.3" cy="92.5" r="4.6"/>
<path class="st4" d="M153.3,98.8c-3.5,0-6.3-2.9-6.3-6.4c0-3.5,2.9-6.3,6.4-6.3c3.5,0,6.3,2.9,6.3,6.4c0,3.3-2.6,6.1-5.9,6.3
	C153.5,98.8,153.4,98.8,153.3,98.8z M153.3,89.7c-0.1,0-0.1,0-0.2,0c-1.5,0.1-2.7,1.4-2.6,2.9c0,0.7,0.4,1.4,0.9,1.9
	c0.5,0.5,1.3,0.7,2,0.7c1.5-0.1,2.7-1.4,2.6-3C155.9,90.9,154.7,89.7,153.3,89.7z"/>
<circle class="st5" cx="105.1" cy="121.4" r="4.6"/>
<path class="st4" d="M105.1,127.7c-3.5,0-6.3-2.8-6.3-6.4s2.8-6.3,6.4-6.3c3.5,0,6.3,2.8,6.3,6.4c0,1.5-0.6,3-1.6,4.2
	C108.7,127,106.9,127.7,105.1,127.7z M105.1,118.6c-0.8,0-1.6,0.3-2.1,0.9l0,0c-1,1.2-0.9,2.9,0.3,3.9s2.9,0.9,3.9-0.3
	s0.9-2.9-0.3-3.9C106.4,118.9,105.8,118.6,105.1,118.6L105.1,118.6z M101.7,118.4L101.7,118.4z"/>
<circle class="st3" cx="52.1" cy="174.4" r="4.6"/>
<path class="st4" d="M52.1,180.7c-3.5,0-6.3-2.9-6.3-6.4c0-1.5,0.6-3,1.6-4.2c2.3-2.6,6.3-2.9,9-0.6s2.9,6.3,0.6,9
	c-1.1,1.3-2.7,2-4.4,2.2C52.4,180.7,52.3,180.7,52.1,180.7z M52.1,171.6c-1.5,0-2.8,1.2-2.8,2.8c0,0.8,0.3,1.6,0.9,2.1
	c0.5,0.5,1.3,0.7,2,0.7c1.5-0.1,2.7-1.4,2.6-2.9C54.8,172.7,53.6,171.6,52.1,171.6z"/>
</svg>
