<?xml version="1.0" encoding="UTF-8" standalone="no"?><!-- Generator: Gravit.io --><svg xmlns="http://www.w3.org/2000/svg" xmlns:xlink="http://www.w3.org/1999/xlink" style="isolation:isolate" viewBox="0 0 245.761 71.291" width="245.761pt" height="71.291pt"><defs><clipPath id="_clipPath_MP35VnaviE4KwjD5XDmUPLLoHQs7AwKR"><rect width="245.761" height="71.291"/></clipPath></defs><g clip-path="url(#_clipPath_MP35VnaviE4KwjD5XDmUPLLoHQs7AwKR)"><path d=" M 36.48 66.46 L 35.18 66.46 C 35.116 65.423 34.935 64.396 34.64 63.4 C 35.12 64.494 35.738 65.523 36.48 66.46 Z " fill="rgb(255,255,255)"/><path d=" M 36.48 67.4 L 35.18 67.4 C 34.685 67.4 34.276 67.016 34.243 66.523 C 34.184 65.557 34.016 64.6 33.743 63.671 C 33.603 63.202 33.847 62.704 34.303 62.526 C 34.759 62.349 35.275 62.551 35.489 62.991 C 35.914 64.005 36.478 64.954 37.164 65.813 C 37.423 66.086 37.494 66.487 37.345 66.832 C 37.196 67.177 36.856 67.401 36.48 67.4 Z " fill="rgb(255,255,255)"/><path d=" M 22.775 14.781 C 22.659 14.781 22.543 14.762 22.432 14.726 C 21.547 14.441 21.57 13.387 21.597 12.916 C 21.276 8.629 20.437 4.547 19.664 3.237 C 19.413 4.369 18.988 6.324 18.532 8.595 C 18.43 9.104 17.934 9.434 17.425 9.332 C 16.916 9.23 16.586 8.734 16.688 8.225 C 17.412 4.625 18.057 1.808 18.064 1.779 C 18.129 1.496 18.322 1.259 18.586 1.137 C 18.824 1.022 19.085 0.962 19.35 0.96 C 20.463 0.96 22.358 2.253 23.25 10.394 C 24.569 5.861 26.356 0.694 26.377 0.632 C 26.475 0.347 26.704 0.126 26.992 0.038 C 27.281 -0.05 27.594 0.006 27.834 0.188 C 29.658 1.553 30.366 4.27 30 8.492 C 29.955 9.009 29.499 9.392 28.981 9.347 C 28.464 9.301 28.082 8.845 28.127 8.328 C 28.409 6.491 28.232 4.613 27.613 2.861 C 26.792 5.3 25.253 10 24.37 13.415 C 24.345 13.509 24.306 13.599 24.255 13.681 C 23.712 14.543 23.188 14.781 22.775 14.781 Z " fill="rgb(255,255,255)"/><path d=" M 34.421 71.287 C 32.879 71.287 31.045 68.854 29.739 66.732 C 29.499 66.293 29.645 65.742 30.071 65.48 C 30.497 65.217 31.054 65.334 31.339 65.746 C 32.1 67.059 33.056 68.25 34.173 69.277 C 34.187 69.2 34.201 69.104 34.212 68.984 C 34.29 68.168 34.3 67.347 34.241 66.53 C 34.202 66.012 34.591 65.561 35.109 65.523 C 35.626 65.484 36.077 65.872 36.116 66.39 C 36.183 67.312 36.172 68.238 36.084 69.158 C 35.974 70.358 35.52 71.067 34.735 71.251 C 34.632 71.275 34.527 71.287 34.421 71.287 Z " fill="rgb(255,255,255)"/><path d=" M 37.48 66.46 C 37.27 67.01 36.9 66.91 36.48 66.46 L 37.48 66.46 Z " fill="rgb(255,255,255)"/><path d=" M 37.079 67.776 C 36.574 67.743 36.107 67.498 35.793 67.102 C 35.537 66.828 35.468 66.429 35.617 66.086 C 35.767 65.742 36.105 65.52 36.48 65.52 L 37.48 65.52 C 37.789 65.52 38.079 65.672 38.255 65.926 C 38.43 66.181 38.469 66.506 38.358 66.795 C 38.211 67.277 37.817 67.643 37.325 67.753 C 37.244 67.769 37.162 67.776 37.079 67.776 Z  M 37.084 65.896 C 37.026 65.896 36.969 65.904 36.914 65.92 C 36.783 65.952 36.669 66.032 36.594 66.144 L 36.758 66.201 L 37.085 65.901 L 37.084 65.896 Z " fill="rgb(255,255,255)"/><path d=" M 71.34 31.143 L 65.5 31.143 L 65.5 48.867 L 60.3 48.867 L 60.3 31.143 L 54.461 31.143 L 54.461 26.143 L 71.34 26.143 L 71.34 31.143 Z " fill="rgb(255,255,255)"/><path d=" M 81.241 32.312 L 81.241 37.83 C 79.228 37.506 76.372 38.317 76.372 41.53 L 76.372 48.866 L 71.5 48.866 L 71.5 32.637 L 76.369 32.637 L 76.369 35.525 C 77.102 33.493 79.084 32.185 81.241 32.312 L 81.241 32.312 Z " fill="rgb(255,255,255)"/><path d=" M 99.678 32.637 L 99.678 48.867 L 94.809 48.867 L 94.809 47.341 C 93.576 48.694 91.801 49.421 89.973 49.321 C 85.72 49.321 82.215 45.588 82.215 40.752 C 82.215 35.916 85.715 32.182 89.973 32.182 C 91.8 32.083 93.576 32.81 94.809 34.162 L 94.809 32.637 L 99.678 32.637 Z  M 94.809 40.752 C 94.848 39.346 94.121 38.03 92.909 37.316 C 91.698 36.602 90.195 36.602 88.984 37.316 C 87.772 38.03 87.045 39.346 87.084 40.752 C 87.045 42.158 87.772 43.474 88.984 44.188 C 90.195 44.902 91.698 44.902 92.909 44.188 C 94.121 43.474 94.848 42.158 94.809 40.752 Z " fill="rgb(255,255,255)"/><path d=" M 119.9 26.144 L 119.9 48.867 L 115.031 48.867 L 115.031 47.341 C 113.797 48.693 112.022 49.42 110.194 49.321 C 105.942 49.321 102.436 45.588 102.436 40.752 C 102.436 35.916 105.942 32.182 110.194 32.182 C 112.022 32.083 113.797 32.81 115.031 34.162 L 115.031 26.144 L 119.9 26.144 Z  M 115.031 40.752 C 115.063 39.351 114.334 38.042 113.125 37.333 C 111.917 36.623 110.419 36.623 109.211 37.333 C 108.002 38.042 107.273 39.351 107.305 40.752 C 107.273 42.153 108.002 43.462 109.211 44.171 C 110.419 44.881 111.917 44.881 113.125 44.171 C 114.334 43.462 115.063 42.153 115.031 40.752 Z " fill="rgb(255,255,255)"/><path d=" M 131.717 44.971 C 132.881 45.006 134.008 44.56 134.833 43.738 L 138.733 45.978 C 137.088 48.213 134.428 49.47 131.657 49.321 C 126.106 49.321 122.665 45.588 122.665 40.752 C 122.595 38.447 123.484 36.216 125.121 34.591 C 126.758 32.967 128.995 32.094 131.3 32.182 C 133.548 32.167 135.704 33.076 137.263 34.697 C 138.821 36.317 139.646 38.506 139.545 40.752 C 139.548 41.406 139.482 42.059 139.35 42.699 L 127.822 42.699 C 128.438 44.387 129.931 44.971 131.717 44.971 Z  M 134.703 39.064 C 134.226 37.538 132.812 36.499 131.214 36.499 C 129.615 36.499 128.201 37.538 127.724 39.064 L 134.703 39.064 Z " fill="rgb(255,255,255)"/><path d=" M 155.77 47.244 L 155.77 48.867 L 143.337 48.867 L 143.337 26.144 L 145.058 26.144 L 145.058 47.244 L 155.77 47.244 Z " fill="rgb(255,255,255)"/><path d=" M 159.016 25.171 L 160.639 25.171 L 160.639 48.871 L 159.016 48.871 L 159.016 25.171 Z " fill="rgb(255,255,255)"/><path d=" M 181.576 32.637 L 181.576 48.867 L 179.92 48.867 L 179.92 45.2 C 178.52 47.732 175.834 49.282 172.941 49.225 C 168.298 49.175 164.56 45.396 164.56 40.752 C 164.56 36.109 168.298 32.33 172.941 32.28 C 175.834 32.224 178.521 33.773 179.92 36.306 L 179.92 32.637 L 181.576 32.637 Z  M 179.92 40.752 C 179.893 36.965 176.804 33.915 173.017 33.936 C 169.23 33.957 166.175 37.041 166.19 40.828 C 166.205 44.615 169.284 47.675 173.071 47.666 C 174.903 47.679 176.663 46.953 177.952 45.652 C 179.241 44.35 179.951 42.584 179.92 40.752 Z " fill="rgb(255,255,255)"/><path d=" M 209.816 38.577 L 209.816 48.867 L 208.193 48.867 L 208.193 38.577 C 208.193 35.493 206.408 33.837 203.876 33.837 C 201.149 33.837 199.007 35.655 199.007 39.81 L 199.007 48.867 L 197.384 48.867 L 197.384 38.577 C 197.384 35.493 195.729 33.837 193.229 33.837 C 190.567 33.837 188.198 35.655 188.198 39.81 L 188.198 48.867 L 186.575 48.867 L 186.575 32.637 L 188.2 32.637 L 188.2 35.428 C 189.18 33.45 191.219 32.221 193.426 32.279 C 195.654 32.165 197.7 33.503 198.49 35.59 C 199.501 33.527 201.614 32.236 203.911 32.279 C 207.349 32.279 209.816 34.519 209.816 38.577 Z " fill="rgb(255,255,255)"/><path d=" M 230.332 32.637 L 230.332 48.867 L 228.676 48.867 L 228.676 45.2 C 227.276 47.732 224.59 49.282 221.697 49.225 C 217.054 49.175 213.316 45.396 213.316 40.752 C 213.316 36.109 217.054 32.33 221.697 32.28 C 224.59 32.224 227.277 33.773 228.676 36.306 L 228.676 32.637 L 230.332 32.637 Z  M 228.676 40.752 C 228.65 36.964 225.56 33.913 221.773 33.934 C 217.985 33.955 214.929 37.039 214.944 40.827 C 214.959 44.615 218.039 47.675 221.827 47.666 C 223.659 47.679 225.419 46.953 226.708 45.652 C 227.997 44.35 228.707 42.584 228.676 40.752 Z " fill="rgb(255,255,255)"/><path d=" M 244.822 67.4 L 37.48 67.4 C 37.173 67.4 36.885 67.249 36.71 66.997 C 36.534 66.745 36.492 66.423 36.598 66.135 C 36.691 65.818 36.735 65.488 36.73 65.158 C 36.908 61.43 35.919 57.739 33.9 54.6 C 33.628 54.182 33.729 53.624 34.131 53.329 C 34.533 53.034 35.096 53.104 35.413 53.489 L 35.438 53.521 C 27.938 37.016 28.725 28.647 28.763 28.288 C 28.824 27.783 29.27 27.414 29.778 27.451 C 32.294 27.666 36.773 27.551 38.1 26.351 C 38.292 26.203 38.405 25.976 38.409 25.734 C 38.43 24.083 35.843 22.434 33.342 20.846 C 30.917 19.303 28.408 17.708 27.437 15.646 C 27.169 15.079 27.288 14.238 27.607 12.221 C 27.784 11.102 28.007 9.709 28.122 8.321 C 28.163 7.834 28.57 7.46 29.058 7.46 L 244.822 7.46 C 245.071 7.46 245.31 7.559 245.486 7.735 C 245.662 7.912 245.761 8.151 245.761 8.4 L 245.761 66.46 C 245.762 66.709 245.663 66.949 245.487 67.125 C 245.31 67.301 245.071 67.4 244.822 67.4 L 244.822 67.4 Z  M 38.594 65.521 L 243.883 65.521 L 243.883 9.35 L 29.913 9.35 C 29.786 10.498 29.613 11.599 29.466 12.52 C 29.312 13.31 29.212 14.109 29.166 14.913 C 29.937 16.457 32.179 17.883 34.348 19.263 C 37.42 21.217 40.321 23.063 40.285 25.763 C 40.273 26.526 39.936 27.248 39.359 27.748 C 37.443 29.484 32.728 29.485 30.607 29.39 C 30.631 32.021 31.307 40.409 37.884 54.339 C 38.714 56.094 39.184 57.288 38.263 57.875 C 38.073 58.005 37.846 58.069 37.616 58.057 C 38.375 60.368 38.709 62.798 38.604 65.228 Q 38.6 65.379 38.594 65.521 Z  M 29.138 14.847" fill="rgb(255,255,255)"/><path d=" M 8.885 55.65 C 8.529 55.65 8.305 55.641 8.258 55.639 L 0.94 55.639 C 0.421 55.639 0.001 55.219 0 54.7 L 0 8.41 C 0 7.891 0.421 7.47 0.94 7.47 L 17.61 7.47 C 17.893 7.47 18.161 7.597 18.339 7.816 C 18.518 8.035 18.589 8.323 18.531 8.6 C 17.546 13.47 16.371 19.926 16.371 23.024 C 16.371 26.024 17.22 31.167 18.043 36.141 C 18.91 41.39 19.73 46.348 19.73 49.464 C 19.75 50.811 19.197 52.103 18.209 53.019 C 15.687 55.426 10.659 55.65 8.885 55.65 Z  M 1.885 53.759 L 8.3 53.759 C 10.027 53.834 14.881 53.598 16.91 51.659 C 17.524 51.097 17.866 50.297 17.849 49.465 C 17.849 46.503 17.005 41.392 16.188 36.448 C 15.353 31.399 14.488 26.178 14.488 23.025 C 14.488 20.012 15.513 14.141 16.462 9.355 L 1.881 9.355 L 1.885 53.759 Z " fill="rgb(255,255,255)"/></g></svg>