<svg id="Layer_1" data-name="Layer 1" xmlns="http://www.w3.org/2000/svg" viewBox="0 0 245.761 71.291"><defs><style>.cls-1{fill:#ffcd00;}.cls-2{fill:#323e48;}.cls-3{fill:#fff;}</style></defs><path class="cls-1" d="M18.79,49.46c0,5.7-10.49,5.24-10.49,5.24H.94V8.41H17.61c-1,4.94-2.18,11.44-2.18,14.61C15.43,29.16,18.79,43.37,18.79,49.46Z"/><path class="cls-2" d="M8.885,55.65c-.356,0-.58-.009-.627-.011H.94A.94.94,0,0,1,0,54.7V8.41a.94.94,0,0,1,.94-.94H17.61A.939.939,0,0,1,18.531,8.6c-.985,4.87-2.16,11.326-2.16,14.424,0,3,.849,8.143,1.672,13.117.867,5.249,1.687,10.207,1.687,13.323a4.754,4.754,0,0,1-1.521,3.555C15.687,55.426,10.659,55.65,8.885,55.65Zm-7-1.891H8.3c1.727.075,6.581-.161,8.61-2.1a2.894,2.894,0,0,0,.939-2.194c0-2.962-.844-8.073-1.661-13.017-.835-5.049-1.7-10.27-1.7-13.423,0-3.013,1.025-8.884,1.974-13.67H1.881Z"/><path class="cls-1" d="M244.822,8.41V66.46H37.48a4.234,4.234,0,0,0,.19-1.27,18.9,18.9,0,0,0-2.98-11.1c1.94,2.35,4.44,5.07,2.35.65C28.76,37.2,29.7,28.39,29.7,28.39s9.6.821,9.65-2.64c.053-3.99-9.18-6.51-11.06-10.5-.28-.59.5-3.64.77-6.84Z"/><path class="cls-2" d="M244.822,67.4H37.48a.941.941,0,0,1-.882-1.265,3.291,3.291,0,0,0,.132-.977A17.936,17.936,0,0,0,33.9,54.6a.94.94,0,0,1,1.513-1.111l.025.032c-7.5-16.505-6.713-24.874-6.675-25.233a.953.953,0,0,1,1.015-.837c2.516.215,6.995.1,8.322-1.1a.794.794,0,0,0,.309-.617c.021-1.651-2.566-3.3-5.067-4.888-2.425-1.543-4.934-3.138-5.905-5.2-.268-.567-.149-1.408.17-3.425.177-1.119.4-2.512.515-3.9a.94.94,0,0,1,.936-.861H244.822a.939.939,0,0,1,.939.94V66.46A.938.938,0,0,1,244.822,67.4ZM38.594,65.521H243.883V9.35H29.913c-.127,1.148-.3,2.249-.447,3.17a17.871,17.871,0,0,0-.3,2.393c.771,1.544,3.013,2.97,5.182,4.35,3.072,1.954,5.973,3.8,5.937,6.5a2.681,2.681,0,0,1-.926,1.985c-1.916,1.736-6.631,1.737-8.752,1.642.024,2.631.7,11.019,7.277,24.949.83,1.755,1.3,2.949.379,3.536a1.043,1.043,0,0,1-.647.182,20.193,20.193,0,0,1,.988,7.171Q38.6,65.379,38.594,65.521ZM29.138,14.847v0Z"/><path class="cls-1" d="M36.48,66.46h-1.3a13.735,13.735,0,0,0-.54-3.06A13.971,13.971,0,0,0,36.48,66.46Z"/><path class="cls-2" d="M36.48,67.4h-1.3a.939.939,0,0,1-.937-.877,12.9,12.9,0,0,0-.5-2.852.94.94,0,0,1,1.746-.68,11.9,11.9,0,0,0,1.675,2.822A.94.94,0,0,1,36.48,67.4Z"/><path class="cls-2" d="M22.775,14.781a1.121,1.121,0,0,1-.343-.055c-.885-.285-.862-1.339-.835-1.81-.321-4.287-1.16-8.369-1.933-9.679-.251,1.132-.676,3.087-1.132,5.358a.94.94,0,0,1-1.844-.37c.724-3.6,1.369-6.417,1.376-6.446a.94.94,0,0,1,.522-.642A1.789,1.789,0,0,1,19.35.96c1.113,0,3.008,1.293,3.9,9.434,1.319-4.533,3.106-9.7,3.127-9.762A.94.94,0,0,1,27.834.188C29.658,1.553,30.366,4.27,30,8.492a.94.94,0,0,1-1.873-.164,11.273,11.273,0,0,0-.514-5.467C26.792,5.3,25.253,10,24.37,13.415a.983.983,0,0,1-.115.266C23.712,14.543,23.188,14.781,22.775,14.781Z"/><path class="cls-2" d="M34.421,71.287c-1.542,0-3.376-2.433-4.682-4.555a.941.941,0,0,1,1.6-.986,15.041,15.041,0,0,0,2.834,3.531c.014-.077.028-.173.039-.293a14.626,14.626,0,0,0,.029-2.454.94.94,0,0,1,1.875-.14,16.45,16.45,0,0,1-.032,2.768c-.11,1.2-.564,1.909-1.349,2.093A1.344,1.344,0,0,1,34.421,71.287Z"/><path class="cls-3" d="M37.48,66.46c-.21.55-.58.45-1,0Z"/><path class="cls-2" d="M37.079,67.776a1.793,1.793,0,0,1-1.286-.674.94.94,0,0,1,.687-1.582h1a.939.939,0,0,1,.878,1.275,1.4,1.4,0,0,1-1.033.958A1.28,1.28,0,0,1,37.079,67.776Zm.005-1.88a.6.6,0,0,0-.17.024.543.543,0,0,0-.32.224l.164.057.327-.3Zm.219.047Z"/><path class="cls-2" d="M71.34,31.143H65.5V48.867H60.3V31.143H54.461v-5H71.34Z"/><path class="cls-2" d="M81.241,32.312V37.83c-2.013-.324-4.869.487-4.869,3.7v7.336H71.5V32.637h4.869v2.888A4.875,4.875,0,0,1,81.241,32.312Z"/><path class="cls-2" d="M99.678,32.637v16.23H94.809V47.341a6.093,6.093,0,0,1-4.836,1.98c-4.253,0-7.758-3.733-7.758-8.569s3.5-8.57,7.758-8.57a6.1,6.1,0,0,1,4.836,1.98V32.637Zm-4.869,8.115a3.864,3.864,0,1,0-7.725,0,3.864,3.864,0,1,0,7.725,0Z"/><path class="cls-2" d="M119.9,26.144V48.867h-4.869V47.341a6.1,6.1,0,0,1-4.837,1.98c-4.252,0-7.758-3.733-7.758-8.569s3.506-8.57,7.758-8.57a6.1,6.1,0,0,1,4.837,1.98V26.144Zm-4.869,14.608a3.864,3.864,0,1,0-7.726,0,3.864,3.864,0,1,0,7.726,0Z"/><path class="cls-2" d="M131.717,44.971a4.237,4.237,0,0,0,3.116-1.233l3.9,2.24a8.236,8.236,0,0,1-7.076,3.343c-5.551,0-8.992-3.733-8.992-8.569a8.322,8.322,0,0,1,8.635-8.57,8.2,8.2,0,0,1,8.245,8.57,9.425,9.425,0,0,1-.195,1.947H127.822C128.438,44.387,129.931,44.971,131.717,44.971Zm2.986-5.907a3.656,3.656,0,0,0-6.979,0Z"/><path class="cls-2" d="M155.77,47.244v1.623H143.337V26.144h1.721v21.1Z"/><path class="cls-2" d="M159.016,25.171h1.623v23.7h-1.623Z"/><path class="cls-2" d="M181.576,32.637v16.23H179.92V45.2a7.8,7.8,0,0,1-6.979,4.025,8.473,8.473,0,0,1,0-16.945,7.8,7.8,0,0,1,6.979,4.026V32.637Zm-1.656,8.115a6.865,6.865,0,1,0-6.849,6.914A6.8,6.8,0,0,0,179.92,40.752Z"/><path class="cls-2" d="M209.816,38.577v10.29h-1.623V38.577c0-3.084-1.785-4.74-4.317-4.74-2.727,0-4.869,1.818-4.869,5.973v9.057h-1.623V38.577c0-3.084-1.655-4.74-4.155-4.74-2.662,0-5.031,1.818-5.031,5.973v9.057h-1.623V32.637H188.2v2.791a5.667,5.667,0,0,1,5.226-3.149,5.135,5.135,0,0,1,5.064,3.311,5.914,5.914,0,0,1,5.421-3.311C207.349,32.279,209.816,34.519,209.816,38.577Z"/><path class="cls-2" d="M230.332,32.637v16.23h-1.656V45.2a7.8,7.8,0,0,1-6.979,4.025,8.473,8.473,0,0,1,0-16.945,7.8,7.8,0,0,1,6.979,4.026V32.637Zm-1.656,8.115a6.866,6.866,0,1,0-6.849,6.914A6.8,6.8,0,0,0,228.676,40.752Z"/></svg>