<?xml version="1.0" encoding="utf-8"?>
<!-- Generator: Adobe Illustrator 24.2.2, SVG Export Plug-In . SVG Version: 6.00 Build 0)  -->
<svg version="1.1" id="Layer_1" xmlns="http://www.w3.org/2000/svg" xmlns:xlink="http://www.w3.org/1999/xlink" x="0px" y="0px"
	 viewBox="0 0 126.35 83.39" style="enable-background:new 0 0 126.35 83.39;" xml:space="preserve">
<style type="text/css">
	.st0{clip-path:url(#SVGID_2_);}
	.st1{fill:#F2F2F2;}
	.st2{fill:#FFCD00;}
	.st3{fill:#323E48;}
	.st4{fill:#FFFFFF;}
</style>
<g>
	<g>
		<g>
			<defs>
				<path id="SVGID_1_" d="M74.73,12.39c-20.43,0-37,16.57-37,37c0,13.67,7.41,25.59,18.43,32h37.13
					c11.02-6.41,18.43-18.33,18.43-32C111.73,28.96,95.16,12.39,74.73,12.39z"/>
			</defs>
			<clipPath id="SVGID_2_">
				<use xlink:href="#SVGID_1_"  style="overflow:visible;"/>
			</clipPath>
			<g class="st0">
				
					<rect x="52.37" y="91.65" transform="matrix(0.7071 -0.7071 0.7071 0.7071 -30.0667 111.245)" class="st1" width="133.76" height="0.54"/>
				
					<rect x="51.42" y="90.7" transform="matrix(0.7071 -0.7071 0.7071 0.7071 -29.6766 110.295)" class="st1" width="133.76" height="0.54"/>
				
					<rect x="50.48" y="89.75" transform="matrix(0.7071 -0.7071 0.7071 0.7071 -29.2825 109.355)" class="st1" width="133.76" height="0.54"/>
				
					<rect x="49.53" y="88.81" transform="matrix(0.7071 -0.7071 0.7071 0.7071 -28.8939 108.4059)" class="st1" width="133.76" height="0.54"/>
				
					<rect x="48.59" y="87.86" transform="matrix(0.7071 -0.7071 0.7071 0.7071 -28.4953 107.458)" class="st1" width="133.76" height="0.54"/>
				
					<rect x="47.64" y="86.92" transform="matrix(0.7071 -0.7071 0.7071 0.7071 -28.1068 106.5142)" class="st1" width="133.76" height="0.54"/>
				
					<rect x="46.69" y="85.97" transform="matrix(0.7071 -0.7071 0.7071 0.7071 -27.7182 105.5651)" class="st1" width="133.76" height="0.54"/>
				
					<rect x="45.75" y="85.03" transform="matrix(0.7071 -0.7071 0.7071 0.7071 -27.3241 104.6251)" class="st1" width="133.76" height="0.54"/>
				
					<rect x="44.8" y="84.08" transform="matrix(0.7071 -0.7071 0.7071 0.7071 -26.9355 103.676)" class="st1" width="133.76" height="0.54"/>
				
					<rect x="43.86" y="83.13" transform="matrix(0.7071 -0.7071 0.7071 0.7071 -26.5399 102.7351)" class="st1" width="133.76" height="0.54"/>
				
					<rect x="42.91" y="82.19" transform="matrix(0.7071 -0.7071 0.7071 0.7071 -26.1499 101.7851)" class="st1" width="133.76" height="0.54"/>
				
					<rect x="41.97" y="81.24" transform="matrix(0.7071 -0.7071 0.7071 0.7071 -25.7528 100.838)" class="st1" width="133.76" height="0.54"/>
				
					<rect x="41.02" y="80.3" transform="matrix(0.7071 -0.7071 0.7071 0.7071 -25.3657 99.8951)" class="st1" width="133.76" height="0.54"/>
				
					<rect x="40.07" y="79.35" transform="matrix(0.7071 -0.7071 0.7071 0.7071 -24.9757 98.9452)" class="st1" width="133.76" height="0.54"/>
				
					<rect x="39.13" y="78.41" transform="matrix(0.7071 -0.7071 0.7071 0.7071 -24.5815 98.0052)" class="st1" width="133.76" height="0.54"/>
				
					<rect x="38.18" y="77.46" transform="matrix(0.7071 -0.7071 0.7071 0.7071 -24.1928 97.056)" class="st1" width="133.76" height="0.54"/>
				
					<rect x="37.24" y="76.51" transform="matrix(0.7071 -0.7071 0.7071 0.7071 -23.7944 96.1081)" class="st1" width="133.76" height="0.54"/>
				
					<rect x="36.29" y="75.57" transform="matrix(0.7071 -0.7071 0.7071 0.7071 -23.4086 95.166)" class="st1" width="133.76" height="0.54"/>
				
					<rect x="35.34" y="74.62" transform="matrix(0.7071 -0.7071 0.7071 0.7071 -23.0173 94.2152)" class="st1" width="133.76" height="0.54"/>
				
					<rect x="34.4" y="73.67" transform="matrix(0.7071 -0.7071 0.7071 0.7071 -22.6219 93.2744)" class="st1" width="133.76" height="0.54"/>
				
					<rect x="33.45" y="72.73" transform="matrix(0.7071 -0.7071 0.7071 0.7071 -22.2331 92.3252)" class="st1" width="133.76" height="0.54"/>
				
					<rect x="32.51" y="71.78" transform="matrix(0.7071 -0.7071 0.7071 0.7071 -21.839 91.3852)" class="st1" width="133.76" height="0.54"/>
				
					<rect x="31.56" y="70.84" transform="matrix(0.7071 -0.7071 0.7071 0.7071 -21.4489 90.4352)" class="st1" width="133.76" height="0.54"/>
				
					<rect x="30.62" y="69.89" transform="matrix(0.7071 -0.7071 0.7071 0.7071 -21.0518 89.4882)" class="st1" width="133.76" height="0.54"/>
				
					<rect x="29.67" y="68.95" transform="matrix(0.7071 -0.7071 0.7071 0.7071 -20.6647 88.5452)" class="st1" width="133.76" height="0.54"/>
				
					<rect x="28.72" y="68" transform="matrix(0.7071 -0.7071 0.7071 0.7071 -20.2747 87.5953)" class="st1" width="133.76" height="0.54"/>
				
					<rect x="27.78" y="67.06" transform="matrix(0.7071 -0.7071 0.7071 0.7071 -19.8805 86.6553)" class="st1" width="133.76" height="0.54"/>
				
					<rect x="26.83" y="66.11" transform="matrix(0.7071 -0.7071 0.7071 0.7071 -19.4905 85.7053)" class="st1" width="133.76" height="0.54"/>
				
					<rect x="25.89" y="65.16" transform="matrix(0.7071 -0.7071 0.7071 0.7071 -19.0934 84.7582)" class="st1" width="133.76" height="0.54"/>
				
					<rect x="24.94" y="64.22" transform="matrix(0.7071 -0.7071 0.7071 0.7071 -18.7074 83.816)" class="st1" width="133.76" height="0.54"/>
				
					<rect x="24" y="63.27" transform="matrix(0.7071 -0.7071 0.7071 0.7071 -18.3092 82.8682)" class="st1" width="133.76" height="0.54"/>
				
					<rect x="23.05" y="62.33" transform="matrix(0.7071 -0.7071 0.7071 0.7071 -17.9222 81.9254)" class="st1" width="133.76" height="0.54"/>
				
					<rect x="22.1" y="61.38" transform="matrix(0.7071 -0.7071 0.7071 0.7071 -17.5321 80.9753)" class="st1" width="133.76" height="0.54"/>
				
					<rect x="21.16" y="60.43" transform="matrix(0.7071 -0.7071 0.7071 0.7071 -17.137 80.0347)" class="st1" width="133.76" height="0.54"/>
				
					<rect x="20.21" y="59.49" transform="matrix(0.7071 -0.7071 0.7071 0.7071 -16.748 79.0854)" class="st1" width="133.76" height="0.54"/>
				
					<rect x="19.27" y="58.54" transform="matrix(0.7071 -0.7071 0.7071 0.7071 -16.3509 78.1383)" class="st1" width="133.76" height="0.54"/>
				
					<rect x="18.32" y="57.6" transform="matrix(0.7071 -0.7071 0.7071 0.7071 -15.9638 77.1953)" class="st1" width="133.76" height="0.54"/>
				
					<rect x="17.37" y="56.65" transform="matrix(0.7071 -0.7071 0.7071 0.7071 -15.5738 76.2454)" class="st1" width="133.76" height="0.54"/>
				
					<rect x="16.43" y="55.71" transform="matrix(0.7071 -0.7071 0.7071 0.7071 -15.1796 75.3054)" class="st1" width="133.76" height="0.54"/>
				
					<rect x="15.48" y="54.76" transform="matrix(0.7071 -0.7071 0.7071 0.7071 -14.7895 74.3554)" class="st1" width="133.76" height="0.54"/>
				
					<rect x="14.54" y="53.81" transform="matrix(0.7071 -0.7071 0.7071 0.7071 -14.3954 73.4154)" class="st1" width="133.76" height="0.54"/>
				
					<rect x="13.59" y="52.87" transform="matrix(0.7071 -0.7071 0.7071 0.7071 -14.0054 72.4654)" class="st1" width="133.76" height="0.54"/>
				
					<rect x="12.65" y="51.92" transform="matrix(0.7071 -0.7071 0.7071 0.7071 -13.6082 71.5184)" class="st1" width="133.76" height="0.54"/>
				
					<rect x="11.7" y="50.98" transform="matrix(0.7071 -0.7071 0.7071 0.7071 -13.2221 70.576)" class="st1" width="133.76" height="0.54"/>
				
					<rect x="10.75" y="50.03" transform="matrix(0.7071 -0.7071 0.7071 0.7071 -12.8312 69.6254)" class="st1" width="133.76" height="0.54"/>
				
					<rect x="9.81" y="49.09" transform="matrix(0.7071 -0.7071 0.7071 0.7071 -12.437 68.6854)" class="st1" width="133.76" height="0.54"/>
				
					<rect x="8.86" y="48.14" transform="matrix(0.7071 -0.7071 0.7071 0.7071 -12.0469 67.7355)" class="st1" width="133.76" height="0.54"/>
				
					<rect x="7.92" y="47.19" transform="matrix(0.7071 -0.7071 0.7071 0.7071 -11.6491 66.7878)" class="st1" width="133.76" height="0.54"/>
				
					<rect x="6.97" y="46.25" transform="matrix(0.7071 -0.7071 0.7071 0.7071 -11.2628 65.8455)" class="st1" width="133.76" height="0.54"/>
				
					<rect x="6.03" y="45.3" transform="matrix(0.7071 -0.7071 0.7071 0.7071 -10.8657 64.8984)" class="st1" width="133.76" height="0.54"/>
				
					<rect x="5.08" y="44.36" transform="matrix(0.7071 -0.7071 0.7071 0.7071 -10.4786 63.9555)" class="st1" width="133.76" height="0.54"/>
				
					<rect x="4.13" y="43.41" transform="matrix(0.7071 -0.7071 0.7071 0.7071 -10.0886 63.0055)" class="st1" width="133.76" height="0.54"/>
				
					<rect x="3.19" y="42.46" transform="matrix(0.7071 -0.7071 0.7071 0.7071 -9.6944 62.0655)" class="st1" width="133.76" height="0.54"/>
				
					<rect x="2.24" y="41.52" transform="matrix(0.7071 -0.7071 0.7071 0.7071 -9.3044 61.1155)" class="st1" width="133.76" height="0.54"/>
				
					<rect x="1.3" y="40.57" transform="matrix(0.7071 -0.7071 0.7071 0.7071 -8.9074 60.1685)" class="st1" width="133.76" height="0.54"/>
				
					<rect x="0.35" y="39.63" transform="matrix(0.7071 -0.7071 0.7071 0.7071 -8.5202 59.2255)" class="st1" width="133.76" height="0.54"/>
				
					<rect x="-0.6" y="38.68" transform="matrix(0.7071 -0.7071 0.7071 0.7071 -8.1302 58.2756)" class="st1" width="133.76" height="0.54"/>
				
					<rect x="-1.54" y="37.74" transform="matrix(0.7071 -0.7071 0.7071 0.7071 -7.7368 57.3361)" class="st1" width="133.76" height="0.54"/>
				
					<rect x="-2.49" y="36.79" transform="matrix(0.7071 -0.7071 0.7071 0.7071 -7.3461 56.3856)" class="st1" width="133.76" height="0.54"/>
				
					<rect x="-3.43" y="35.84" transform="matrix(0.7071 -0.7071 0.7071 0.7071 -6.9512 55.4451)" class="st1" width="133.76" height="0.54"/>
				
					<rect x="-4.38" y="34.9" transform="matrix(0.7071 -0.7071 0.7071 0.7071 -6.5619 54.4956)" class="st1" width="133.76" height="0.54"/>
				
					<rect x="-5.32" y="33.94" transform="matrix(0.7071 -0.7071 0.7071 0.7071 -6.1641 53.548)" class="st1" width="133.76" height="0.54"/>
				
					<rect x="-6.27" y="33.01" transform="matrix(0.7071 -0.7071 0.7071 0.7071 -5.7776 52.6057)" class="st1" width="133.76" height="0.54"/>
				
					<rect x="-7.22" y="32.06" transform="matrix(0.7071 -0.7071 0.7071 0.7071 -5.3876 51.6556)" class="st1" width="133.76" height="0.54"/>
				
					<rect x="-8.16" y="31.12" transform="matrix(0.7071 -0.7071 0.7071 0.7071 -4.9935 50.7157)" class="st1" width="133.76" height="0.54"/>
				
					<rect x="-9.11" y="30.17" transform="matrix(0.7071 -0.7071 0.7071 0.7071 -4.6035 49.7656)" class="st1" width="133.76" height="0.54"/>
				
					<rect x="-10.05" y="29.22" transform="matrix(0.7071 -0.7071 0.7071 0.7071 -4.2063 48.8186)" class="st1" width="133.76" height="0.54"/>
				
					<rect x="-11" y="28.28" transform="matrix(0.7071 -0.7071 0.7071 0.7071 -3.8192 47.8757)" class="st1" width="133.76" height="0.54"/>
				
					<rect x="-11.94" y="27.33" transform="matrix(0.7071 -0.7071 0.7071 0.7071 -3.4222 46.9286)" class="st1" width="133.76" height="0.54"/>
				
					<rect x="-12.89" y="26.39" transform="matrix(0.7071 -0.7071 0.7071 0.7071 -3.0351 45.9856)" class="st1" width="133.76" height="0.54"/>
				
					<rect x="-13.84" y="25.44" transform="matrix(0.7071 -0.7071 0.7071 0.7071 -2.6451 45.0357)" class="st1" width="133.76" height="0.54"/>
				
					<rect x="-14.78" y="24.5" transform="matrix(0.7071 -0.7071 0.7071 0.7071 -2.2514 44.0962)" class="st1" width="133.76" height="0.54"/>
				
					<rect x="-15.73" y="23.55" transform="matrix(0.7071 -0.7071 0.7071 0.7071 -1.8609 43.1457)" class="st1" width="133.76" height="0.54"/>
				
					<rect x="-16.67" y="22.6" transform="matrix(0.7071 -0.7071 0.7071 0.7071 -1.4633 42.1982)" class="st1" width="133.76" height="0.54"/>
				
					<rect x="-17.62" y="21.66" transform="matrix(0.7071 -0.7071 0.7071 0.7071 -1.0767 41.2557)" class="st1" width="133.76" height="0.54"/>
				
					<rect x="-18.57" y="20.71" transform="matrix(0.7071 -0.7071 0.7071 0.7071 -0.6867 40.3057)" class="st1" width="133.76" height="0.54"/>
				
					<rect x="-19.51" y="19.77" transform="matrix(0.7071 -0.7071 0.7071 0.7071 -0.2925 39.3657)" class="st1" width="133.76" height="0.54"/>
				
					<rect x="-20.46" y="18.82" transform="matrix(0.7071 -0.7071 0.7071 0.7071 0.0975 38.4157)" class="st1" width="133.76" height="0.54"/>
				
					<rect x="-21.4" y="17.87" transform="matrix(0.7071 -0.7071 0.7071 0.7071 0.4917 37.4757)" class="st1" width="133.76" height="0.54"/>
				
					<rect x="-22.35" y="16.93" transform="matrix(0.7071 -0.7071 0.7071 0.7071 0.8817 36.5258)" class="st1" width="133.76" height="0.54"/>
				
					<rect x="-23.29" y="15.98" transform="matrix(0.7071 -0.7071 0.7071 0.7071 1.2787 35.5787)" class="st1" width="133.76" height="0.54"/>
				
					<rect x="-24.24" y="15.04" transform="matrix(0.7071 -0.7071 0.7071 0.7071 1.6659 34.6358)" class="st1" width="133.76" height="0.54"/>
				
					<rect x="-25.19" y="14.09" transform="matrix(0.7071 -0.7071 0.7071 0.7071 2.0559 33.6858)" class="st1" width="133.76" height="0.54"/>
				
					<rect x="-26.13" y="13.15" transform="matrix(0.7071 -0.7071 0.7071 0.7071 2.4498 32.7462)" class="st1" width="133.76" height="0.54"/>
				
					<rect x="-27.08" y="12.2" transform="matrix(0.7071 -0.7071 0.7071 0.7071 2.8401 31.7958)" class="st1" width="133.76" height="0.54"/>
				
					<rect x="-28.02" y="11.25" transform="matrix(0.7071 -0.7071 0.7071 0.7071 3.2369 30.8491)" class="st1" width="133.76" height="0.54"/>
				
					<rect x="-28.97" y="10.31" transform="matrix(0.7071 -0.7071 0.7071 0.7071 3.6243 29.9058)" class="st1" width="133.76" height="0.54"/>
				
					<rect x="-29.91" y="9.35" transform="matrix(0.7071 -0.7071 0.7071 0.7071 4.0216 28.9585)" class="st1" width="133.76" height="0.54"/>
				
					<rect x="-30.86" y="8.42" transform="matrix(0.7071 -0.7071 0.7071 0.7071 4.4084 28.0158)" class="st1" width="133.76" height="0.54"/>
				
					<rect x="-31.81" y="7.47" transform="matrix(0.7071 -0.7071 0.7071 0.7071 4.7985 27.0659)" class="st1" width="133.76" height="0.54"/>
				
					<rect x="-32.75" y="6.52" transform="matrix(0.7071 -0.7071 0.7071 0.7071 5.1926 26.1258)" class="st1" width="133.76" height="0.54"/>
				
					<rect x="-33.7" y="5.58" transform="matrix(0.7071 -0.7071 0.7071 0.7071 5.5826 25.1759)" class="st1" width="133.76" height="0.54"/>
				
					<rect x="-34.64" y="4.63" transform="matrix(0.7071 -0.7071 0.7071 0.7071 5.9798 24.2288)" class="st1" width="133.76" height="0.54"/>
				
					<rect x="-35.59" y="3.69" transform="matrix(0.7071 -0.7071 0.7071 0.7071 6.3668 23.2859)" class="st1" width="133.76" height="0.54"/>
				
					<rect x="-36.54" y="2.74" transform="matrix(0.7071 -0.7071 0.7071 0.7071 6.7568 22.3359)" class="st1" width="133.76" height="0.54"/>
				
					<rect x="-37.48" y="1.8" transform="matrix(0.7071 -0.7071 0.7071 0.7071 7.151 21.3959)" class="st1" width="133.76" height="0.54"/>
				
					<rect x="-38.43" y="0.85" transform="matrix(0.7071 -0.7071 0.7071 0.7071 7.541 20.4459)" class="st1" width="133.76" height="0.54"/>
				
					<rect x="-39.37" y="-0.1" transform="matrix(0.7071 -0.7071 0.7071 0.7071 7.9352 19.506)" class="st1" width="133.76" height="0.54"/>
				
					<rect x="-40.32" y="-1.04" transform="matrix(0.7071 -0.7071 0.7071 0.7071 8.3252 18.5559)" class="st1" width="133.76" height="0.54"/>
				
					<rect x="-41.26" y="-1.99" transform="matrix(0.7071 -0.7071 0.7071 0.7071 8.7223 17.6089)" class="st1" width="133.76" height="0.54"/>
				
					<rect x="-42.21" y="-2.93" transform="matrix(0.7071 -0.7071 0.7071 0.7071 9.1095 16.666)" class="st1" width="133.76" height="0.54"/>
				
					<rect x="-43.16" y="-3.88" transform="matrix(0.7071 -0.7071 0.7071 0.7071 9.4995 15.7157)" class="st1" width="133.76" height="0.54"/>
				
					<rect x="-44.1" y="-4.82" transform="matrix(0.7071 -0.7071 0.7071 0.7071 9.8936 14.776)" class="st1" width="133.76" height="0.54"/>
			</g>
		</g>
	</g>
	<g>
		
			<rect x="38.29" y="1.89" transform="matrix(0.7071 -0.7071 0.7071 0.7071 8.6683 30.5453)" class="st2" width="5.83" height="5.83"/>
		<path class="st3" d="M41.2,9.62L41.2,9.62c-0.18,0-0.36-0.07-0.49-0.2L36.59,5.3c-0.27-0.27-0.27-0.7,0-0.97l4.12-4.12
			c0.26-0.26,0.71-0.26,0.97,0l4.12,4.12c0.13,0.13,0.2,0.3,0.2,0.48s-0.07,0.36-0.2,0.48l-4.12,4.12
			C41.56,9.54,41.38,9.62,41.2,9.62z M38.05,4.81l3.15,3.15l3.15-3.15L41.2,1.66L38.05,4.81z"/>
	</g>
	<g>
		<polyline class="st2" points="14.73,36.28 19.31,31.7 23.89,36.28 		"/>
		<path class="st3" d="M23.89,36.97c-0.18,0-0.35-0.07-0.49-0.2l-4.1-4.1l-4.09,4.1c-0.27,0.27-0.7,0.27-0.97,0s-0.27-0.7,0-0.97
			l4.58-4.58c0.26-0.26,0.71-0.26,0.97,0l4.58,4.58c0.27,0.27,0.27,0.7,0,0.97C24.24,36.9,24.07,36.97,23.89,36.97z"/>
	</g>
	<g>
		<circle class="st2" cx="122.1" cy="60.83" r="3.56"/>
		<path class="st3" d="M122.1,65.08c-2.34,0-4.25-1.91-4.25-4.25s1.91-4.25,4.25-4.25s4.25,1.91,4.25,4.25S124.45,65.08,122.1,65.08
			z M122.1,57.95c-1.59,0-2.88,1.29-2.88,2.88s1.29,2.88,2.88,2.88s2.88-1.29,2.88-2.88S123.69,57.95,122.1,57.95z"/>
	</g>
	<g>
		<path class="st2" d="M94.73,4.79c0,2.33-1.89,4.21-4.21,4.21s-4.21-1.89-4.21-4.21"/>
		<path class="st3" d="M90.52,9.69c-2.7,0-4.9-2.2-4.9-4.9c0-0.38,0.31-0.69,0.69-0.69S87,4.41,87,4.79c0,1.94,1.58,3.52,3.53,3.52
			s3.52-1.58,3.52-3.52c0-0.38,0.31-0.69,0.69-0.69s0.69,0.31,0.69,0.69C95.41,7.49,93.22,9.69,90.52,9.69z"/>
	</g>
	<g>
		<path class="st3" d="M4.93,68.7c-0.18,0-0.35-0.07-0.49-0.2L0.2,64.26c-0.27-0.27-0.27-0.7,0-0.97s0.7-0.27,0.97,0l4.24,4.24
			c0.27,0.27,0.27,0.7,0,0.97C5.28,68.63,5.1,68.7,4.93,68.7z"/>
		<path class="st3" d="M0.69,68.7c-0.18,0-0.35-0.07-0.49-0.2c-0.27-0.27-0.27-0.7,0-0.97l4.24-4.24c0.27-0.27,0.7-0.27,0.97,0
			c0.27,0.27,0.27,0.7,0,0.97L1.17,68.5C1.04,68.63,0.86,68.7,0.69,68.7z"/>
	</g>
	<g>
		<path class="st3" d="M113.81,24.58c-0.38,0-0.69-0.31-0.69-0.69v-6c0-0.38,0.31-0.69,0.69-0.69s0.69,0.31,0.69,0.69v6
			C114.49,24.27,114.19,24.58,113.81,24.58z"/>
		<path class="st3" d="M116.81,21.58h-6c-0.38,0-0.69-0.31-0.69-0.69s0.31-0.69,0.69-0.69h6c0.38,0,0.69,0.31,0.69,0.69
			S117.19,21.58,116.81,21.58z"/>
	</g>
	<g>
		<g>
			<path class="st3" d="M97.26,82.08l-8.13-27.11c-0.13-0.43-0.53-0.72-0.97-0.72H75.02c3.94-5.76,7.46-12.73,7.46-19.22
				c0-10.33-8.41-18.74-18.74-18.74S45,24.7,45,35.03c0,6.49,3.53,13.46,7.46,19.22H39.35c-0.45,0-0.85,0.29-0.97,0.72l-8.13,27.11
				c-0.09,0.31-0.03,0.64,0.16,0.9s0.49,0.41,0.82,0.41h65.08c0.32,0,0.62-0.15,0.82-0.41C97.3,82.73,97.36,82.39,97.26,82.08z
				 M87.4,56.28l1.66,5.53l-15.82,7.91l-7.77-3.88c1.61-1.65,4.87-5.13,8.12-9.55H87.4V56.28z M47.05,35.02
				c0-9.21,7.49-16.7,16.7-16.7s16.7,7.49,16.7,16.7c0,11.93-13.45,26.34-16.7,29.65C60.49,61.36,47.05,46.96,47.05,35.02z
				 M51.4,56.28h2.52c2.82,3.85,5.65,6.98,7.4,8.81H49.97L51.4,56.28z M40.11,56.28h9.23l-1.43,8.81H37.46L40.11,56.28z
				 M32.58,81.36l4.27-14.23h10.72l-2.31,14.23H32.58z M62.73,81.36H47.32l1.07-6.55h14.35L62.73,81.36L62.73,81.36z M64.77,81.36
				v-7.57c0-0.56-0.45-1.02-1.02-1.02H48.72l0.92-5.65h13.88l28.47,14.23L64.77,81.36L64.77,81.36z M75.51,70.85l14.14-7.07
				l4.99,16.63L75.51,70.85z"/>
			<path class="st4" d="M87.4,56.28l1.66,5.53l-15.82,7.91l-7.77-3.88c1.61-1.65,4.87-5.13,8.12-9.55H87.4V56.28z"/>
			<path class="st4" d="M51.4,56.28h2.52c2.82,3.85,5.65,6.98,7.4,8.81H49.97L51.4,56.28z"/>
			<polygon class="st4" points="40.11,56.28 49.34,56.28 47.91,65.09 37.46,65.09 			"/>
			<polygon class="st4" points="32.58,81.36 36.85,67.13 47.58,67.13 45.26,81.36 			"/>
			<polygon class="st4" points="62.73,81.36 47.32,81.36 48.39,74.81 62.73,74.81 			"/>
			<path class="st4" d="M64.77,81.36v-7.57c0-0.56-0.45-1.02-1.02-1.02H48.72l0.92-5.65h13.88l28.47,14.23L64.77,81.36L64.77,81.36z
				"/>
			<polygon class="st4" points="75.51,70.85 89.65,63.78 94.64,80.42 			"/>
		</g>
		<g>
			<path class="st3" d="M72.86,35.19c0-5.02-4.09-9.1-9.1-9.1c-5.02,0-9.1,4.08-9.1,9.1s4.09,9.1,9.1,9.1S72.86,40.21,72.86,35.19z
				 M56.68,35.19c0-3.9,3.17-7.07,7.07-7.07s7.07,3.17,7.07,7.07s-3.17,7.07-7.07,7.07S56.68,39.08,56.68,35.19z"/>
		</g>
	</g>
	<g>
		<path class="st2" d="M63.75,18.32c-9.21,0-16.7,7.49-16.7,16.7c0,11.94,13.44,26.34,16.7,29.65c3.26-3.31,16.7-17.72,16.7-29.65
			C80.46,25.81,72.96,18.32,63.75,18.32z M63.75,44.29c-5.02,0-9.1-4.08-9.1-9.1s4.09-9.1,9.1-9.1s9.1,4.08,9.1,9.1
			C72.86,40.21,68.77,44.29,63.75,44.29z"/>
	</g>
</g>
</svg>
