<?xml version="1.0" encoding="utf-8"?>
<!-- Generator: Adobe Illustrator 24.2.2, SVG Export Plug-In . SVG Version: 6.00 Build 0)  -->
<svg version="1.1" id="Layer_1" xmlns="http://www.w3.org/2000/svg" xmlns:xlink="http://www.w3.org/1999/xlink" x="0px" y="0px"
	 viewBox="0 0 115 91.19" style="enable-background:new 0 0 115 91.19;" xml:space="preserve">
<style type="text/css">
	.st0{clip-path:url(#SVGID_2_);}
	.st1{fill:#F2F2F2;}
	.st2{fill:#FFCD00;}
	.st3{fill:#323E48;}
</style>
<g>
	<g>
		<defs>
			<path id="SVGID_1_" d="M59.93,21.19c-20.43,0-37,16.57-37,37c0,13.67,7.41,25.59,18.43,32H78.5c11.02-6.41,18.43-18.33,18.43-32
				C96.93,37.75,80.36,21.19,59.93,21.19z"/>
		</defs>
		<clipPath id="SVGID_2_">
			<use xlink:href="#SVGID_1_"  style="overflow:visible;"/>
		</clipPath>
		<g class="st0">
			
				<rect x="37.57" y="100.44" transform="matrix(0.7071 -0.7071 0.7071 0.7071 -40.6197 103.3551)" class="st1" width="133.76" height="0.54"/>
			
				<rect x="36.63" y="99.49" transform="matrix(0.7071 -0.7071 0.7071 0.7071 -40.2225 102.408)" class="st1" width="133.76" height="0.54"/>
			
				<rect x="35.68" y="98.55" transform="matrix(0.7071 -0.7071 0.7071 0.7071 -39.8355 101.4651)" class="st1" width="133.76" height="0.54"/>
			
				<rect x="34.74" y="97.6" transform="matrix(0.7071 -0.7071 0.7071 0.7071 -39.4399 100.5187)" class="st1" width="133.76" height="0.54"/>
			
				<rect x="33.79" y="96.66" transform="matrix(0.7071 -0.7071 0.7071 0.7071 -39.0513 99.5751)" class="st1" width="133.76" height="0.54"/>
			
				<rect x="32.84" y="95.71" transform="matrix(0.7071 -0.7071 0.7071 0.7071 -38.6598 98.6245)" class="st1" width="133.76" height="0.54"/>
			
				<rect x="31.9" y="94.76" transform="matrix(0.7071 -0.7071 0.7071 0.7071 -38.2642 97.6781)" class="st1" width="133.76" height="0.54"/>
			
				<rect x="30.95" y="93.82" transform="matrix(0.7071 -0.7071 0.7071 0.7071 -37.8771 96.7352)" class="st1" width="133.76" height="0.54"/>
			
				<rect x="30.01" y="92.87" transform="matrix(0.7071 -0.7071 0.7071 0.7071 -37.4815 95.7887)" class="st1" width="133.76" height="0.54"/>
			
				<rect x="29.06" y="91.93" transform="matrix(0.7071 -0.7071 0.7071 0.7071 -37.0929 94.8452)" class="st1" width="133.76" height="0.54"/>
			
				<rect x="28.12" y="90.97" transform="matrix(0.7071 -0.7071 0.7071 0.7071 -36.6958 93.8981)" class="st1" width="133.76" height="0.54"/>
			
				<rect x="27.17" y="90.04" transform="matrix(0.7071 -0.7071 0.7071 0.7071 -36.3088 92.9552)" class="st1" width="133.76" height="0.54"/>
			
				<rect x="26.22" y="89.09" transform="matrix(0.7071 -0.7071 0.7071 0.7071 -35.9187 92.0052)" class="st1" width="133.76" height="0.54"/>
			
				<rect x="25.28" y="88.14" transform="matrix(0.7071 -0.7071 0.7071 0.7071 -35.5216 91.0582)" class="st1" width="133.76" height="0.54"/>
			
				<rect x="24.33" y="87.2" transform="matrix(0.7071 -0.7071 0.7071 0.7071 -35.1345 90.1152)" class="st1" width="133.76" height="0.54"/>
			
				<rect x="23.39" y="86.25" transform="matrix(0.7071 -0.7071 0.7071 0.7071 -34.7387 89.1687)" class="st1" width="133.76" height="0.54"/>
			
				<rect x="22.44" y="85.31" transform="matrix(0.7071 -0.7071 0.7071 0.7071 -34.3504 88.2252)" class="st1" width="133.76" height="0.54"/>
			
				<rect x="21.49" y="84.36" transform="matrix(0.7071 -0.7071 0.7071 0.7071 -33.9616 87.2759)" class="st1" width="133.76" height="0.54"/>
			
				<rect x="20.55" y="83.42" transform="matrix(0.7071 -0.7071 0.7071 0.7071 -33.5661 86.3353)" class="st1" width="133.76" height="0.54"/>
			
				<rect x="19.6" y="82.47" transform="matrix(0.7071 -0.7071 0.7071 0.7071 -33.1749 85.3847)" class="st1" width="133.76" height="0.54"/>
			
				<rect x="18.66" y="81.52" transform="matrix(0.7071 -0.7071 0.7071 0.7071 -32.779 84.4382)" class="st1" width="133.76" height="0.54"/>
			
				<rect x="17.71" y="80.58" transform="matrix(0.7071 -0.7071 0.7071 0.7071 -32.3919 83.4953)" class="st1" width="133.76" height="0.54"/>
			
				<rect x="16.77" y="79.63" transform="matrix(0.7071 -0.7071 0.7071 0.7071 -31.9948 82.5482)" class="st1" width="133.76" height="0.54"/>
			
				<rect x="15.82" y="78.69" transform="matrix(0.7071 -0.7071 0.7071 0.7071 -31.6077 81.6053)" class="st1" width="133.76" height="0.54"/>
			
				<rect x="14.87" y="77.74" transform="matrix(0.7071 -0.7071 0.7071 0.7071 -31.2177 80.6553)" class="st1" width="133.76" height="0.54"/>
			
				<rect x="13.93" y="76.79" transform="matrix(0.7071 -0.7071 0.7071 0.7071 -30.8207 79.7083)" class="st1" width="133.76" height="0.54"/>
			
				<rect x="12.98" y="75.85" transform="matrix(0.7071 -0.7071 0.7071 0.7071 -30.4336 78.7654)" class="st1" width="133.76" height="0.54"/>
			
				<rect x="12.04" y="74.9" transform="matrix(0.7071 -0.7071 0.7071 0.7071 -30.0365 77.8183)" class="st1" width="133.76" height="0.54"/>
			
				<rect x="11.09" y="73.96" transform="matrix(0.7071 -0.7071 0.7071 0.7071 -29.6494 76.8754)" class="st1" width="133.76" height="0.54"/>
			
				<rect x="10.15" y="73.01" transform="matrix(0.7071 -0.7071 0.7071 0.7071 -29.2534 75.9288)" class="st1" width="133.76" height="0.54"/>
			
				<rect x="9.2" y="72.07" transform="matrix(0.7071 -0.7071 0.7071 0.7071 -28.8652 74.9854)" class="st1" width="133.76" height="0.54"/>
			
				<rect x="8.25" y="71.12" transform="matrix(0.7071 -0.7071 0.7071 0.7071 -28.4751 74.0354)" class="st1" width="133.76" height="0.54"/>
			
				<rect x="7.31" y="70.17" transform="matrix(0.7071 -0.7071 0.7071 0.7071 -28.0781 73.0883)" class="st1" width="133.76" height="0.54"/>
			
				<rect x="6.36" y="69.23" transform="matrix(0.7071 -0.7071 0.7071 0.7071 -27.6899 72.1449)" class="st1" width="133.76" height="0.54"/>
			
				<rect x="5.42" y="68.28" transform="matrix(0.7071 -0.7071 0.7071 0.7071 -27.2939 71.1984)" class="st1" width="133.76" height="0.54"/>
			
				<rect x="4.47" y="67.34" transform="matrix(0.7071 -0.7071 0.7071 0.7071 -26.9068 70.2554)" class="st1" width="133.76" height="0.54"/>
			
				<rect x="3.52" y="66.39" transform="matrix(0.7071 -0.7071 0.7071 0.7071 -26.5168 69.3054)" class="st1" width="133.76" height="0.54"/>
			
				<rect x="2.58" y="65.45" transform="matrix(0.7071 -0.7071 0.7071 0.7071 -26.1226 68.3654)" class="st1" width="133.76" height="0.54"/>
			
				<rect x="1.63" y="64.5" transform="matrix(0.7071 -0.7071 0.7071 0.7071 -25.7325 67.4155)" class="st1" width="133.76" height="0.54"/>
			
				<rect x="0.69" y="63.55" transform="matrix(0.7071 -0.7071 0.7071 0.7071 -25.3355 66.4684)" class="st1" width="133.76" height="0.54"/>
			
				<rect x="-0.26" y="62.61" transform="matrix(0.7071 -0.7071 0.7071 0.7071 -24.9484 65.5255)" class="st1" width="133.76" height="0.54"/>
			
				<rect x="-1.2" y="61.66" transform="matrix(0.7071 -0.7071 0.7071 0.7071 -24.5513 64.5784)" class="st1" width="133.76" height="0.54"/>
			
				<rect x="-2.15" y="60.72" transform="matrix(0.7071 -0.7071 0.7071 0.7071 -24.1642 63.6355)" class="st1" width="133.76" height="0.54"/>
			
				<rect x="-3.1" y="59.77" transform="matrix(0.7071 -0.7071 0.7071 0.7071 -23.7751 62.6859)" class="st1" width="133.76" height="0.54"/>
			
				<rect x="-4.04" y="58.82" transform="matrix(0.7071 -0.7071 0.7071 0.7071 -23.3771 61.7384)" class="st1" width="133.76" height="0.54"/>
			
				<rect x="-4.99" y="57.88" transform="matrix(0.7071 -0.7071 0.7071 0.7071 -22.99 60.7955)" class="st1" width="133.76" height="0.54"/>
			
				<rect x="-5.93" y="56.93" transform="matrix(0.7071 -0.7071 0.7071 0.7071 -22.5929 59.8485)" class="st1" width="133.76" height="0.54"/>
			
				<rect x="-6.88" y="55.99" transform="matrix(0.7071 -0.7071 0.7071 0.7071 -22.205 58.9052)" class="st1" width="133.76" height="0.54"/>
			
				<rect x="-7.82" y="55.03" transform="matrix(0.7071 -0.7071 0.7071 0.7071 -21.8088 57.9585)" class="st1" width="133.76" height="0.54"/>
			
				<rect x="-8.77" y="54.1" transform="matrix(0.7071 -0.7071 0.7071 0.7071 -21.4216 57.0155)" class="st1" width="133.76" height="0.54"/>
			
				<rect x="-9.72" y="53.15" transform="matrix(0.7071 -0.7071 0.7071 0.7071 -21.0316 56.0656)" class="st1" width="133.76" height="0.54"/>
			
				<rect x="-10.66" y="52.2" transform="matrix(0.7071 -0.7071 0.7071 0.7071 -20.6346 55.1185)" class="st1" width="133.76" height="0.54"/>
			
				<rect x="-11.61" y="51.26" transform="matrix(0.7071 -0.7071 0.7071 0.7071 -20.2474 54.1756)" class="st1" width="133.76" height="0.54"/>
			
				<rect x="-12.55" y="50.31" transform="matrix(0.7071 -0.7071 0.7071 0.7071 -19.8504 53.2285)" class="st1" width="133.76" height="0.54"/>
			
				<rect x="-13.5" y="49.37" transform="matrix(0.7071 -0.7071 0.7071 0.7071 -19.4633 52.2857)" class="st1" width="133.76" height="0.54"/>
			
				<rect x="-14.45" y="48.42" transform="matrix(0.7071 -0.7071 0.7071 0.7071 -19.0732 51.3356)" class="st1" width="133.76" height="0.54"/>
			
				<rect x="-15.39" y="47.48" transform="matrix(0.7071 -0.7071 0.7071 0.7071 -18.6791 50.3957)" class="st1" width="133.76" height="0.54"/>
			
				<rect x="-16.34" y="46.53" transform="matrix(0.7071 -0.7071 0.7071 0.7071 -18.2897 49.446)" class="st1" width="133.76" height="0.54"/>
			
				<rect x="-17.28" y="45.58" transform="matrix(0.7071 -0.7071 0.7071 0.7071 -17.892 48.4986)" class="st1" width="133.76" height="0.54"/>
			
				<rect x="-18.23" y="44.64" transform="matrix(0.7071 -0.7071 0.7071 0.7071 -17.5042 47.5553)" class="st1" width="133.76" height="0.54"/>
			
				<rect x="-19.17" y="43.69" transform="matrix(0.7071 -0.7071 0.7071 0.7071 -17.1078 46.6086)" class="st1" width="133.76" height="0.54"/>
			
				<rect x="-20.12" y="42.75" transform="matrix(0.7071 -0.7071 0.7071 0.7071 -16.72 45.6654)" class="st1" width="133.76" height="0.54"/>
			
				<rect x="-21.07" y="41.8" transform="matrix(0.7071 -0.7071 0.7071 0.7071 -16.3307 44.7157)" class="st1" width="133.76" height="0.54"/>
			
				<rect x="-22.01" y="40.85" transform="matrix(0.7071 -0.7071 0.7071 0.7071 -15.9335 43.7686)" class="st1" width="133.76" height="0.54"/>
			
				<rect x="-22.96" y="39.91" transform="matrix(0.7071 -0.7071 0.7071 0.7071 -15.5464 42.8257)" class="st1" width="133.76" height="0.54"/>
			
				<rect x="-23.9" y="38.96" transform="matrix(0.7071 -0.7071 0.7071 0.7071 -15.1494 41.8786)" class="st1" width="133.76" height="0.54"/>
			
				<rect x="-24.85" y="38.02" transform="matrix(0.7071 -0.7071 0.7071 0.7071 -14.7623 40.9357)" class="st1" width="133.76" height="0.54"/>
			
				<rect x="-25.79" y="37.06" transform="matrix(0.7071 -0.7071 0.7071 0.7071 -14.3652 39.9887)" class="st1" width="133.76" height="0.54"/>
			
				<rect x="-26.74" y="36.13" transform="matrix(0.7071 -0.7071 0.7071 0.7071 -13.9781 39.0457)" class="st1" width="133.76" height="0.54"/>
			
				<rect x="-27.69" y="35.18" transform="matrix(0.7071 -0.7071 0.7071 0.7071 -13.5881 38.0957)" class="st1" width="133.76" height="0.54"/>
			
				<rect x="-28.63" y="34.23" transform="matrix(0.7071 -0.7071 0.7071 0.7071 -13.191 37.1487)" class="st1" width="133.76" height="0.54"/>
			
				<rect x="-29.58" y="33.29" transform="matrix(0.7071 -0.7071 0.7071 0.7071 -12.8045 36.206)" class="st1" width="133.76" height="0.54"/>
			
				<rect x="-30.52" y="32.34" transform="matrix(0.7071 -0.7071 0.7071 0.7071 -12.4068 35.2587)" class="st1" width="133.76" height="0.54"/>
			
				<rect x="-31.47" y="31.4" transform="matrix(0.7071 -0.7071 0.7071 0.7071 -12.0192 34.3156)" class="st1" width="133.76" height="0.54"/>
			
				<rect x="-32.42" y="30.45" transform="matrix(0.7071 -0.7071 0.7071 0.7071 -11.6297 33.3658)" class="st1" width="133.76" height="0.54"/>
			
				<rect x="-33.36" y="29.51" transform="matrix(0.7071 -0.7071 0.7071 0.7071 -11.2355 32.4258)" class="st1" width="133.76" height="0.54"/>
			
				<rect x="-34.31" y="28.56" transform="matrix(0.7071 -0.7071 0.7071 0.7071 -10.8455 31.4758)" class="st1" width="133.76" height="0.54"/>
			
				<rect x="-35.25" y="27.61" transform="matrix(0.7071 -0.7071 0.7071 0.7071 -10.4485 30.5287)" class="st1" width="133.76" height="0.54"/>
			
				<rect x="-36.2" y="26.67" transform="matrix(0.7071 -0.7071 0.7071 0.7071 -10.0614 29.5858)" class="st1" width="133.76" height="0.54"/>
			
				<rect x="-37.14" y="25.72" transform="matrix(0.7071 -0.7071 0.7071 0.7071 -9.6642 28.6388)" class="st1" width="133.76" height="0.54"/>
			
				<rect x="-38.09" y="24.78" transform="matrix(0.7071 -0.7071 0.7071 0.7071 -9.2772 27.6958)" class="st1" width="133.76" height="0.54"/>
			
				<rect x="-39.04" y="23.83" transform="matrix(0.7071 -0.7071 0.7071 0.7071 -8.8871 26.7459)" class="st1" width="133.76" height="0.54"/>
			
				<rect x="-39.98" y="22.88" transform="matrix(0.7071 -0.7071 0.7071 0.7071 -8.49 25.7988)" class="st1" width="133.76" height="0.54"/>
			
				<rect x="-40.93" y="21.94" transform="matrix(0.7071 -0.7071 0.7071 0.7071 -8.1033 24.856)" class="st1" width="133.76" height="0.54"/>
			
				<rect x="-41.87" y="20.99" transform="matrix(0.7071 -0.7071 0.7071 0.7071 -7.7058 23.9088)" class="st1" width="133.76" height="0.54"/>
			
				<rect x="-42.82" y="20.05" transform="matrix(0.7071 -0.7071 0.7071 0.7071 -7.3191 22.9661)" class="st1" width="133.76" height="0.54"/>
			
				<rect x="-43.76" y="19.09" transform="matrix(0.7071 -0.7071 0.7071 0.7071 -6.9216 22.0188)" class="st1" width="133.76" height="0.54"/>
			
				<rect x="-44.71" y="18.16" transform="matrix(0.7071 -0.7071 0.7071 0.7071 -6.5343 21.0758)" class="st1" width="133.76" height="0.54"/>
			
				<rect x="-45.66" y="17.21" transform="matrix(0.7071 -0.7071 0.7071 0.7071 -6.1446 20.1259)" class="st1" width="133.76" height="0.54"/>
			
				<rect x="-46.6" y="16.26" transform="matrix(0.7071 -0.7071 0.7071 0.7071 -5.7474 19.1789)" class="st1" width="133.76" height="0.54"/>
			
				<rect x="-47.55" y="15.32" transform="matrix(0.7071 -0.7071 0.7071 0.7071 -5.3604 18.2359)" class="st1" width="133.76" height="0.54"/>
			
				<rect x="-48.49" y="14.37" transform="matrix(0.7071 -0.7071 0.7071 0.7071 -4.9633 17.2889)" class="st1" width="133.76" height="0.54"/>
			
				<rect x="-49.44" y="13.43" transform="matrix(0.7071 -0.7071 0.7071 0.7071 -4.5762 16.346)" class="st1" width="133.76" height="0.54"/>
			
				<rect x="-50.39" y="12.48" transform="matrix(0.7071 -0.7071 0.7071 0.7071 -4.1862 15.396)" class="st1" width="133.76" height="0.54"/>
			
				<rect x="-51.33" y="11.54" transform="matrix(0.7071 -0.7071 0.7071 0.7071 -3.792 14.4559)" class="st1" width="133.76" height="0.54"/>
			
				<rect x="-52.28" y="10.59" transform="matrix(0.7071 -0.7071 0.7071 0.7071 -3.402 13.506)" class="st1" width="133.76" height="0.54"/>
			
				<rect x="-53.22" y="9.64" transform="matrix(0.7071 -0.7071 0.7071 0.7071 -3.0049 12.5589)" class="st1" width="133.76" height="0.54"/>
			
				<rect x="-54.17" y="8.7" transform="matrix(0.7071 -0.7071 0.7071 0.7071 -2.6178 11.616)" class="st1" width="133.76" height="0.54"/>
			
				<rect x="-55.11" y="7.75" transform="matrix(0.7071 -0.7071 0.7071 0.7071 -2.2207 10.6689)" class="st1" width="133.76" height="0.54"/>
			
				<rect x="-56.06" y="6.81" transform="matrix(0.7071 -0.7071 0.7071 0.7071 -1.8337 9.7261)" class="st1" width="133.76" height="0.54"/>
			
				<rect x="-57.01" y="5.86" transform="matrix(0.7071 -0.7071 0.7071 0.7071 -1.4436 8.776)" class="st1" width="133.76" height="0.54"/>
			
				<rect x="-57.95" y="4.91" transform="matrix(0.7071 -0.7071 0.7071 0.7071 -1.0464 7.8289)" class="st1" width="133.76" height="0.54"/>
			
				<rect x="-58.9" y="3.97" transform="matrix(0.7071 -0.7071 0.7071 0.7071 -0.6594 6.8861)" class="st1" width="133.76" height="0.54"/>
		</g>
	</g>
</g>
<g>
	
		<rect x="92.98" y="56.69" transform="matrix(0.7071 -0.7071 0.7071 0.7071 -14.058 85.2662)" class="st2" width="5.83" height="5.83"/>
	<path class="st3" d="M95.89,64.41L95.89,64.41c-0.18,0-0.36-0.07-0.49-0.2l-4.12-4.12c-0.27-0.27-0.27-0.7,0-0.97L95.4,55
		c0.26-0.26,0.71-0.26,0.97,0l4.12,4.12c0.13,0.13,0.2,0.3,0.2,0.48s-0.07,0.36-0.2,0.48l-4.12,4.12
		C96.25,64.34,96.07,64.41,95.89,64.41z M92.74,59.6l3.15,3.15l3.15-3.15l-3.15-3.15L92.74,59.6z"/>
</g>
<g>
	<polyline class="st2" points="9.76,34.84 16.24,34.84 16.24,41.31 	"/>
	<path class="st3" d="M16.24,42c-0.38,0-0.69-0.31-0.69-0.69v-5.79H9.76c-0.38,0-0.69-0.31-0.69-0.69s0.31-0.69,0.69-0.69h6.48
		c0.38,0,0.69,0.31,0.69,0.69v6.48C16.93,41.69,16.62,42,16.24,42z"/>
</g>
<g>
	<circle class="st2" cx="33.8" cy="11.62" r="3.56"/>
	<path class="st3" d="M33.8,15.87c-2.34,0-4.25-1.91-4.25-4.25s1.91-4.25,4.25-4.25s4.25,1.91,4.25,4.25S36.14,15.87,33.8,15.87z
		 M33.8,8.75c-1.59,0-2.88,1.29-2.88,2.88s1.29,2.88,2.88,2.88s2.88-1.29,2.88-2.88S35.38,8.75,33.8,8.75z"/>
</g>
<g>
	<path class="st2" d="M102.42,17.59c0,2.33-1.89,4.21-4.21,4.21S94,19.91,94,17.59"/>
	<path class="st3" d="M98.21,22.48c-2.7,0-4.9-2.2-4.9-4.9c0-0.38,0.31-0.69,0.69-0.69s0.69,0.31,0.69,0.69
		c0,1.94,1.58,3.52,3.53,3.52s3.52-1.58,3.52-3.52c0-0.38,0.31-0.69,0.69-0.69s0.69,0.31,0.69,0.69
		C103.11,20.28,100.91,22.48,98.21,22.48z"/>
</g>
<g>
	<path class="st3" d="M15.62,72.49c-0.18,0-0.35-0.07-0.49-0.2l-4.24-4.24c-0.27-0.27-0.27-0.7,0-0.97c0.27-0.27,0.7-0.27,0.97,0
		l4.24,4.24c0.27,0.27,0.27,0.7,0,0.97C15.97,72.43,15.8,72.49,15.62,72.49z"/>
	<path class="st3" d="M11.38,72.49c-0.18,0-0.35-0.07-0.49-0.2c-0.27-0.27-0.27-0.7,0-0.97l4.24-4.24c0.27-0.27,0.7-0.27,0.97,0
		s0.27,0.7,0,0.97l-4.24,4.24C11.73,72.43,11.55,72.49,11.38,72.49z"/>
</g>
<g>
	<path class="st3" d="M72.5,14.37c-0.38,0-0.69-0.31-0.69-0.69v-6C71.81,7.31,72.12,7,72.5,7s0.69,0.31,0.69,0.69v6
		C73.19,14.06,72.88,14.37,72.5,14.37z"/>
	<path class="st3" d="M75.5,11.37h-6c-0.38,0-0.69-0.31-0.69-0.69S69.12,10,69.5,10h6c0.38,0,0.69,0.31,0.69,0.69
		S75.88,11.37,75.5,11.37z"/>
</g>
<ellipse class="st1" cx="57.5" cy="89.69" rx="31.5" ry="1.5"/>
<g>
	<path class="st3" d="M74.19,46.73c-0.33-0.38-0.85-0.56-1.34-0.45l-14.99,3.13l-0.17-27.15c0-0.68-0.49-1.25-1.16-1.37
		c-0.67-0.11-1.32,0.26-1.55,0.9l-14.9,41c-0.17,0.48-0.07,1.01,0.26,1.39c0.33,0.38,0.84,0.55,1.34,0.45l14.98-3.12l0.04,26.92
		c0,0.68,0.49,1.25,1.15,1.37c0.08,0.01,0.16,0.02,0.24,0.02c0.58,0,1.11-0.36,1.31-0.92l15.03-40.78
		C74.62,47.65,74.52,47.12,74.19,46.73z M59.49,80.63L59.45,59.8c0-0.42-0.19-0.82-0.52-1.09c-0.25-0.2-0.56-0.31-0.88-0.31
		c-0.1,0-0.19,0.01-0.29,0.03l-14.2,2.96l11.37-31.31l0.13,21.06c0,0.42,0.19,0.81,0.52,1.08c0.32,0.26,0.75,0.36,1.16,0.28
		l14.19-2.96L59.49,80.63z"/>
	<path class="st2" d="M59.49,80.63L59.45,59.8c0-0.42-0.19-0.82-0.52-1.09c-0.25-0.2-0.56-0.31-0.88-0.31
		c-0.1,0-0.19,0.01-0.29,0.03l-14.2,2.96l11.37-31.31l0.13,21.06c0,0.42,0.19,0.81,0.52,1.08c0.32,0.26,0.75,0.36,1.16,0.28
		l14.19-2.96L59.49,80.63z"/>
</g>
</svg>
