<svg id="Layer_1" data-name="Layer 1" xmlns="http://www.w3.org/2000/svg" viewBox="0 0 201.935 112.153">
  <defs>
    <style>
      .cls-1{fill:#ffcd00;}.cls-2{fill:#323e48;}.cls-3{fill:#fff;}
    </style>
  </defs>
  <path class="cls-1" d="M86.059,55.709c0,6.426-11.816,5.9-11.816,5.9h-8.29V9.473H84.73c-1.127,5.564-2.456,12.885-2.456,16.455C82.274,32.844,86.059,48.85,86.059,55.709Z"/>
  <path class="cls-2" d="M74.9,62.681c-.4,0-.654-.009-.707-.012H65.953A1.058,1.058,0,0,1,64.9,61.611V9.472a1.057,1.057,0,0,1,1.058-1.058H84.73a1.058,1.058,0,0,1,1.037,1.268c-1.593,7.868-2.434,13.486-2.434,16.246,0,3.379.958,9.172,1.884,14.775.977,5.912,1.9,11.5,1.9,15.006a5.352,5.352,0,0,1-1.714,4C82.564,62.43,76.9,62.681,74.9,62.681Zm-7.891-2.129h7.231c1.953.083,7.413-.182,9.7-2.371A3.26,3.26,0,0,0,85,55.709c0-3.336-.952-9.093-1.873-14.661-.939-5.687-1.912-11.567-1.912-15.12,0-3.392,1.155-10.005,2.223-15.4H67.012Z"/>
  <path class="cls-1" d="M135.981,9.473V74.857H107.11a4.739,4.739,0,0,0,.214-1.43,21.287,21.287,0,0,0-3.356-12.5c2.185,2.647,5,5.711,2.647.732C97.289,41.9,98.347,31.977,98.347,31.977s10.818.925,10.87-2.973c.059-4.494-10.34-7.333-12.458-11.827-.315-.665.563-4.1.867-7.7Z"/>
  <path class="cls-2" d="M135.982,75.916H107.11a1.059,1.059,0,0,1-.992-1.426,3.789,3.789,0,0,0,.148-1.1A20.2,20.2,0,0,0,103.08,61.5a1.058,1.058,0,0,1,1.7-1.25l.03.036c-8.445-18.592-7.562-28.018-7.52-28.422a1.069,1.069,0,0,1,1.143-.942c2.833.241,7.879.117,9.373-1.239a.9.9,0,0,0,.348-.7c.025-1.86-2.889-3.714-5.707-5.506-2.732-1.738-5.556-3.535-6.65-5.855-.3-.638-.169-1.584.191-3.854.2-1.261.448-2.831.58-4.39a1.058,1.058,0,0,1,1.055-.97h38.355a1.058,1.058,0,0,1,1.058,1.058V74.857A1.059,1.059,0,0,1,135.982,75.916ZM108.366,73.8h26.557V10.531H98.586c-.142,1.294-.339,2.536-.5,3.574a20.223,20.223,0,0,0-.331,2.693c.868,1.738,3.393,3.344,5.835,4.9,3.46,2.2,6.728,4.279,6.688,7.321a3.019,3.019,0,0,1-1.043,2.235c-2.158,1.955-7.473,1.957-9.857,1.849.027,2.964.791,12.412,8.2,28.1.934,1.975,1.469,3.321.427,3.983a1.128,1.128,0,0,1-.729.2,22.778,22.778,0,0,1,1.112,8.078C108.378,73.582,108.373,73.692,108.366,73.8ZM97.756,16.841Zm-.041-.117h0Z"/>
  <path class="cls-1" d="M105.984,74.857H104.52a15.442,15.442,0,0,0-.609-3.446A15.74,15.74,0,0,0,105.984,74.857Z"/>
  <path class="cls-2" d="M105.984,75.916H104.52a1.06,1.06,0,0,1-1.057-.99,14.466,14.466,0,0,0-.565-3.21,1.059,1.059,0,0,1,1.967-.765,13.452,13.452,0,0,0,1.886,3.177,1.059,1.059,0,0,1-.767,1.788Z"/>
  <path class="cls-2" d="M90.547,16.649a1.258,1.258,0,0,1-.385-.061c-1-.323-.972-1.509-.94-2.04-.363-4.829-1.308-9.427-2.179-10.9-.283,1.275-.761,3.477-1.275,6.035a1.059,1.059,0,0,1-2.077-.418c.816-4.055,1.542-7.227,1.549-7.258a1.061,1.061,0,0,1,.59-.725,2.016,2.016,0,0,1,.86-.2c2.652,0,3.855,5.805,4.4,10.634,1.485-5.108,3.5-10.933,3.524-11a1.06,1.06,0,0,1,1.635-.5C98.3,1.75,99.1,4.81,98.681,9.565a1.059,1.059,0,0,1-2.109-.185,12.7,12.7,0,0,0-.579-6.157c-.922,2.746-2.656,8.039-3.649,11.887a1.066,1.066,0,0,1-.13.3C91.6,16.38,91.013,16.649,90.547,16.649Z"/>
  <path class="cls-2" d="M103.664,80.3c-1.736,0-3.8-2.742-5.272-5.131a1.059,1.059,0,0,1,1.8-1.11,17.032,17.032,0,0,0,3.192,3.977c.016-.087.032-.2.045-.33a16.312,16.312,0,0,0,.032-2.764,1.059,1.059,0,1,1,2.111-.16,18.319,18.319,0,0,1-.035,3.12c-.123,1.355-.635,2.15-1.519,2.357A1.583,1.583,0,0,1,103.664,80.3Z"/>
  <path class="cls-3" d="M107.11,74.857c-.236.62-.653.507-1.126,0Z"/>
  <path class="cls-2" d="M106.658,76.341a2.022,2.022,0,0,1-1.448-.761,1.058,1.058,0,0,1,.774-1.781h1.126a1.058,1.058,0,0,1,.989,1.436,1.571,1.571,0,0,1-1.163,1.078A1.456,1.456,0,0,1,106.658,76.341Zm.006-2.12a.719.719,0,0,0-.191.027.613.613,0,0,0-.36.252l.183.065.369-.344Zm.247.054Z"/>
  <path class="cls-2" d="M19.381,91.281H12.672v20.35H6.709V91.281H0v-5.74H19.381Z"/>
  <path class="cls-2" d="M30.749,92.623v6.336c-2.311-.373-5.591.559-5.591,4.249v8.423h-5.59V93h5.59v3.317A5.6,5.6,0,0,1,30.749,92.623Z"/>
  <path class="cls-2" d="M51.919,93v18.636H46.328v-1.752a7,7,0,0,1-5.553,2.274c-4.883,0-8.908-4.286-8.908-9.84s4.025-9.839,8.908-9.839a7,7,0,0,1,5.553,2.273V93Zm-5.591,9.318a4.436,4.436,0,1,0-4.435,4.547A4.255,4.255,0,0,0,46.328,102.313Z"/>
  <path class="cls-2" d="M75.139,85.541v26.09H69.548v-1.752a7,7,0,0,1-5.554,2.274c-4.882,0-8.907-4.286-8.907-9.84s4.025-9.839,8.907-9.839a7,7,0,0,1,5.554,2.273V85.541Zm-5.591,16.772a4.437,4.437,0,1,0-4.435,4.547A4.256,4.256,0,0,0,69.548,102.313Z"/><path class="cls-2" d="M88.705,107.158a4.865,4.865,0,0,0,3.578-1.416l4.473,2.572a9.459,9.459,0,0,1-8.125,3.839c-6.374,0-10.324-4.286-10.324-9.84a9.554,9.554,0,0,1,9.914-9.839c5.441,0,9.466,4.211,9.466,9.839a10.835,10.835,0,0,1-.223,2.236H84.233C84.941,106.488,86.655,107.158,88.705,107.158Zm3.429-6.783a4.2,4.2,0,0,0-8.013,0Z"/><path class="cls-2" d="M116.323,109.767v1.864H102.048V85.541h1.975v24.226Z"/><path class="cls-2" d="M120.05,84.423h1.864v27.208H120.05Z"/><path class="cls-2" d="M145.953,93v18.636h-1.9v-4.212a8.961,8.961,0,0,1-8.014,4.622,9.728,9.728,0,0,1,0-19.456,8.963,8.963,0,0,1,8.014,4.622V93Zm-1.9,9.318a7.883,7.883,0,1,0-7.865,7.939A7.813,7.813,0,0,0,144.053,102.313Z"/><path class="cls-2" d="M178.379,99.816v11.815h-1.863V99.816c0-3.541-2.05-5.442-4.957-5.442-3.131,0-5.591,2.088-5.591,6.858v10.4H164.1V99.816c0-3.541-1.9-5.442-4.77-5.442-3.057,0-5.777,2.088-5.777,6.858v10.4h-1.864V93h1.864V96.2a6.507,6.507,0,0,1,6-3.616,5.9,5.9,0,0,1,5.815,3.8,6.79,6.79,0,0,1,6.224-3.8C175.546,92.585,178.379,95.157,178.379,99.816Z"/><path class="cls-2" d="M201.935,93v18.636h-1.9v-4.212a8.958,8.958,0,0,1-8.013,4.622,9.728,9.728,0,0,1,0-19.456,8.96,8.96,0,0,1,8.013,4.622V93Zm-1.9,9.318a7.883,7.883,0,1,0-7.864,7.939A7.812,7.812,0,0,0,200.034,102.313Z"/>
</svg>