<?xml version="1.0" encoding="utf-8"?>
<!-- Generator: Adobe Illustrator 24.2.2, SVG Export Plug-In . SVG Version: 6.00 Build 0)  -->
<svg version="1.1" id="Layer_1" xmlns="http://www.w3.org/2000/svg" xmlns:xlink="http://www.w3.org/1999/xlink" x="0px" y="0px"
	 viewBox="0 0 115 91.19" style="enable-background:new 0 0 115 91.19;" xml:space="preserve">
<style type="text/css">
	.st0{clip-path:url(#SVGID_2_);}
	.st1{fill:#F2F2F2;}
	.st2{fill:#FFCD00;}
	.st3{fill:#323E48;}
	.st4{fill:#FFFFFF;}
</style>
<g>
	<g>
		<g>
			<defs>
				<path id="SVGID_1_" d="M56.74,20.19c-20.43,0-37,16.57-37,37c0,13.67,7.41,25.59,18.43,32H75.3c11.02-6.41,18.43-18.33,18.43-32
					C93.74,36.75,77.18,20.19,56.74,20.19z"/>
			</defs>
			<clipPath id="SVGID_2_">
				<use xlink:href="#SVGID_1_"  style="overflow:visible;"/>
			</clipPath>
			<g class="st0">
				
					<rect x="34.39" y="99.44" transform="matrix(0.7071 -0.7071 0.7071 0.7071 -40.8416 100.8112)" class="st1" width="133.76" height="0.54"/>
				
					<rect x="33.44" y="98.49" transform="matrix(0.7071 -0.7071 0.7071 0.7071 -40.4515 99.8613)" class="st1" width="133.76" height="0.54"/>
				
					<rect x="32.5" y="97.54" transform="matrix(0.7071 -0.7071 0.7071 0.7071 -40.0574 98.9212)" class="st1" width="133.76" height="0.54"/>
				
					<rect x="31.55" y="96.6" transform="matrix(0.7071 -0.7071 0.7071 0.7071 -39.6688 97.9719)" class="st1" width="133.76" height="0.54"/>
				
					<rect x="30.6" y="95.66" transform="matrix(0.7071 -0.7071 0.7071 0.7071 -39.2802 97.0283)" class="st1" width="133.76" height="0.54"/>
				
					<rect x="29.66" y="94.7" transform="matrix(0.7071 -0.7071 0.7071 0.7071 -38.8817 96.0807)" class="st1" width="133.76" height="0.54"/>
				
					<rect x="28.71" y="93.76" transform="matrix(0.7071 -0.7071 0.7071 0.7071 -38.4931 95.1313)" class="st1" width="133.76" height="0.54"/>
				
					<rect x="27.77" y="92.82" transform="matrix(0.7071 -0.7071 0.7071 0.7071 -38.0989 94.1913)" class="st1" width="133.76" height="0.54"/>
				
					<rect x="26.82" y="91.87" transform="matrix(0.7071 -0.7071 0.7071 0.7071 -37.7104 93.2419)" class="st1" width="133.76" height="0.54"/>
				
					<rect x="25.88" y="90.92" transform="matrix(0.7071 -0.7071 0.7071 0.7071 -37.3148 92.3013)" class="st1" width="133.76" height="0.54"/>
				
					<rect x="24.93" y="89.98" transform="matrix(0.7071 -0.7071 0.7071 0.7071 -36.9248 91.3513)" class="st1" width="133.76" height="0.54"/>
				
					<rect x="23.98" y="89.04" transform="matrix(0.7071 -0.7071 0.7071 0.7071 -36.5377 90.4084)" class="st1" width="133.76" height="0.54"/>
				
					<rect x="23.04" y="88.09" transform="matrix(0.7071 -0.7071 0.7071 0.7071 -36.1405 89.4613)" class="st1" width="133.76" height="0.54"/>
				
					<rect x="22.09" y="87.14" transform="matrix(0.7071 -0.7071 0.7071 0.7071 -35.7506 88.5114)" class="st1" width="133.76" height="0.54"/>
				
					<rect x="21.15" y="86.19" transform="matrix(0.7071 -0.7071 0.7071 0.7071 -35.3564 87.5714)" class="st1" width="133.76" height="0.54"/>
				
					<rect x="20.2" y="85.25" transform="matrix(0.7071 -0.7071 0.7071 0.7071 -34.9677 86.6219)" class="st1" width="133.76" height="0.54"/>
				
					<rect x="19.25" y="84.31" transform="matrix(0.7071 -0.7071 0.7071 0.7071 -34.5793 85.6785)" class="st1" width="133.76" height="0.54"/>
				
					<rect x="18.31" y="83.36" transform="matrix(0.7071 -0.7071 0.7071 0.7071 -34.1834 84.732)" class="st1" width="133.76" height="0.54"/>
				
					<rect x="17.36" y="82.42" transform="matrix(0.7071 -0.7071 0.7071 0.7071 -33.7951 83.7885)" class="st1" width="133.76" height="0.54"/>
				
					<rect x="16.42" y="81.46" transform="matrix(0.7071 -0.7071 0.7071 0.7071 -33.3968 82.8409)" class="st1" width="133.76" height="0.54"/>
				
					<rect x="15.47" y="80.52" transform="matrix(0.7071 -0.7071 0.7071 0.7071 -33.008 81.8914)" class="st1" width="133.76" height="0.54"/>
				
					<rect x="14.53" y="79.57" transform="matrix(0.7071 -0.7071 0.7071 0.7071 -32.6138 80.9514)" class="st1" width="133.76" height="0.54"/>
				
					<rect x="13.58" y="78.63" transform="matrix(0.7071 -0.7071 0.7071 0.7071 -32.2238 80.0014)" class="st1" width="133.76" height="0.54"/>
				
					<rect x="12.63" y="77.69" transform="matrix(0.7071 -0.7071 0.7071 0.7071 -31.8367 79.0585)" class="st1" width="133.76" height="0.54"/>
				
					<rect x="11.69" y="76.74" transform="matrix(0.7071 -0.7071 0.7071 0.7071 -31.4397 78.1114)" class="st1" width="133.76" height="0.54"/>
				
					<rect x="10.74" y="75.79" transform="matrix(0.7071 -0.7071 0.7071 0.7071 -31.0496 77.1615)" class="st1" width="133.76" height="0.54"/>
				
					<rect x="9.8" y="74.85" transform="matrix(0.7071 -0.7071 0.7071 0.7071 -30.6554 76.2215)" class="st1" width="133.76" height="0.54"/>
				
					<rect x="8.85" y="73.9" transform="matrix(0.7071 -0.7071 0.7071 0.7071 -30.2654 75.2715)" class="st1" width="133.76" height="0.54"/>
				
					<rect x="7.91" y="72.95" transform="matrix(0.7071 -0.7071 0.7071 0.7071 -29.8712 74.3315)" class="st1" width="133.76" height="0.54"/>
				
					<rect x="6.96" y="72.01" transform="matrix(0.7071 -0.7071 0.7071 0.7071 -29.4823 73.382)" class="st1" width="133.76" height="0.54"/>
				
					<rect x="6.01" y="71.07" transform="matrix(0.7071 -0.7071 0.7071 0.7071 -29.0941 72.4386)" class="st1" width="133.76" height="0.54"/>
				
					<rect x="5.07" y="70.12" transform="matrix(0.7071 -0.7071 0.7071 0.7071 -28.697 71.4915)" class="st1" width="133.76" height="0.54"/>
				
					<rect x="4.12" y="69.17" transform="matrix(0.7071 -0.7071 0.7071 0.7071 -28.307 70.5415)" class="st1" width="133.76" height="0.54"/>
				
					<rect x="3.18" y="68.22" transform="matrix(0.7071 -0.7071 0.7071 0.7071 -27.9118 69.6011)" class="st1" width="133.76" height="0.54"/>
				
					<rect x="2.23" y="67.28" transform="matrix(0.7071 -0.7071 0.7071 0.7071 -27.5229 68.6516)" class="st1" width="133.76" height="0.54"/>
				
					<rect x="1.28" y="66.34" transform="matrix(0.7071 -0.7071 0.7071 0.7071 -27.1357 67.7086)" class="st1" width="133.76" height="0.54"/>
				
					<rect x="0.34" y="65.39" transform="matrix(0.7071 -0.7071 0.7071 0.7071 -26.7387 66.7616)" class="st1" width="133.76" height="0.54"/>
				
					<rect x="-0.61" y="64.45" transform="matrix(0.7071 -0.7071 0.7071 0.7071 -26.3516 65.8186)" class="st1" width="133.76" height="0.54"/>
				
					<rect x="-1.55" y="63.5" transform="matrix(0.7071 -0.7071 0.7071 0.7071 -25.9545 64.8716)" class="st1" width="133.76" height="0.54"/>
				
					<rect x="-2.5" y="62.55" transform="matrix(0.7071 -0.7071 0.7071 0.7071 -25.5644 63.9216)" class="st1" width="133.76" height="0.54"/>
				
					<rect x="-3.44" y="61.6" transform="matrix(0.7071 -0.7071 0.7071 0.7071 -25.1703 62.9816)" class="st1" width="133.76" height="0.54"/>
				
					<rect x="-4.39" y="60.66" transform="matrix(0.7071 -0.7071 0.7071 0.7071 -24.7803 62.0316)" class="st1" width="133.76" height="0.54"/>
				
					<rect x="-5.34" y="59.72" transform="matrix(0.7071 -0.7071 0.7071 0.7071 -24.3931 61.0887)" class="st1" width="133.76" height="0.54"/>
				
					<rect x="-6.28" y="58.77" transform="matrix(0.7071 -0.7071 0.7071 0.7071 -23.997 60.142)" class="st1" width="133.76" height="0.54"/>
				
					<rect x="-7.23" y="57.82" transform="matrix(0.7071 -0.7071 0.7071 0.7071 -23.6061 59.1916)" class="st1" width="133.76" height="0.54"/>
				
					<rect x="-8.17" y="56.88" transform="matrix(0.7071 -0.7071 0.7071 0.7071 -23.2119 58.2516)" class="st1" width="133.76" height="0.54"/>
				
					<rect x="-9.12" y="55.93" transform="matrix(0.7071 -0.7071 0.7071 0.7071 -22.8218 57.3017)" class="st1" width="133.76" height="0.54"/>
				
					<rect x="-10.06" y="54.98" transform="matrix(0.7071 -0.7071 0.7071 0.7071 -22.4269 56.3613)" class="st1" width="133.76" height="0.54"/>
				
					<rect x="-11.01" y="54.04" transform="matrix(0.7071 -0.7071 0.7071 0.7071 -22.0377 55.4117)" class="st1" width="133.76" height="0.54"/>
				
					<rect x="-11.96" y="53.1" transform="matrix(0.7071 -0.7071 0.7071 0.7071 -21.6506 54.4687)" class="st1" width="133.76" height="0.54"/>
				
					<rect x="-12.9" y="52.15" transform="matrix(0.7071 -0.7071 0.7071 0.7071 -21.2535 53.5217)" class="st1" width="133.76" height="0.54"/>
				
					<rect x="-13.85" y="51.2" transform="matrix(0.7071 -0.7071 0.7071 0.7071 -20.8635 52.5717)" class="st1" width="133.76" height="0.54"/>
				
					<rect x="-14.79" y="50.25" transform="matrix(0.7071 -0.7071 0.7071 0.7071 -20.4693 51.6317)" class="st1" width="133.76" height="0.54"/>
				
					<rect x="-15.74" y="49.31" transform="matrix(0.7071 -0.7071 0.7071 0.7071 -20.0793 50.6817)" class="st1" width="133.76" height="0.54"/>
				
					<rect x="-16.69" y="48.37" transform="matrix(0.7071 -0.7071 0.7071 0.7071 -19.6922 49.7388)" class="st1" width="133.76" height="0.54"/>
				
					<rect x="-17.63" y="47.42" transform="matrix(0.7071 -0.7071 0.7071 0.7071 -19.2951 48.7917)" class="st1" width="133.76" height="0.54"/>
				
					<rect x="-18.57" y="46.48" transform="matrix(0.7071 -0.7071 0.7071 0.7071 -18.908 47.8488)" class="st1" width="133.76" height="0.54"/>
				
					<rect x="-19.52" y="45.53" transform="matrix(0.7071 -0.7071 0.7071 0.7071 -18.5116 46.902)" class="st1" width="133.76" height="0.54"/>
				
					<rect x="-20.47" y="44.58" transform="matrix(0.7071 -0.7071 0.7071 0.7071 -18.1209 45.9518)" class="st1" width="133.76" height="0.54"/>
				
					<rect x="-21.41" y="43.63" transform="matrix(0.7071 -0.7071 0.7071 0.7071 -17.7261 45.0115)" class="st1" width="133.76" height="0.54"/>
				
					<rect x="-22.36" y="42.69" transform="matrix(0.7071 -0.7071 0.7071 0.7071 -17.3368 44.0618)" class="st1" width="133.76" height="0.54"/>
				
					<rect x="-23.31" y="41.75" transform="matrix(0.7071 -0.7071 0.7071 0.7071 -16.949 43.1186)" class="st1" width="133.76" height="0.54"/>
				
					<rect x="-24.25" y="40.8" transform="matrix(0.7071 -0.7071 0.7071 0.7071 -16.5526 42.1719)" class="st1" width="133.76" height="0.54"/>
				
					<rect x="-25.2" y="39.85" transform="matrix(0.7071 -0.7071 0.7071 0.7071 -16.1625 41.2218)" class="st1" width="133.76" height="0.54"/>
				
					<rect x="-26.14" y="38.91" transform="matrix(0.7071 -0.7071 0.7071 0.7071 -15.7684 40.2819)" class="st1" width="133.76" height="0.54"/>
				
					<rect x="-27.09" y="37.96" transform="matrix(0.7071 -0.7071 0.7071 0.7071 -15.3784 39.3318)" class="st1" width="133.76" height="0.54"/>
				
					<rect x="-28.03" y="37.01" transform="matrix(0.7071 -0.7071 0.7071 0.7071 -14.9842 38.3919)" class="st1" width="133.76" height="0.54"/>
				
					<rect x="-28.98" y="36.07" transform="matrix(0.7071 -0.7071 0.7071 0.7071 -14.5941 37.4419)" class="st1" width="133.76" height="0.54"/>
				
					<rect x="-29.92" y="35.13" transform="matrix(0.7071 -0.7071 0.7071 0.7071 -14.2071 36.4989)" class="st1" width="133.76" height="0.54"/>
				
					<rect x="-30.87" y="34.18" transform="matrix(0.7071 -0.7071 0.7071 0.7071 -13.81 35.5518)" class="st1" width="133.76" height="0.54"/>
				
					<rect x="-31.82" y="33.23" transform="matrix(0.7071 -0.7071 0.7071 0.7071 -13.4199 34.6019)" class="st1" width="133.76" height="0.54"/>
				
					<rect x="-32.76" y="32.29" transform="matrix(0.7071 -0.7071 0.7071 0.7071 -13.0263 33.6621)" class="st1" width="133.76" height="0.54"/>
				
					<rect x="-33.71" y="31.34" transform="matrix(0.7071 -0.7071 0.7071 0.7071 -12.6358 32.7119)" class="st1" width="133.76" height="0.54"/>
				
					<rect x="-34.66" y="30.4" transform="matrix(0.7071 -0.7071 0.7071 0.7071 -12.2482 31.7688)" class="st1" width="133.76" height="0.54"/>
				
					<rect x="-35.6" y="29.45" transform="matrix(0.7071 -0.7071 0.7071 0.7071 -11.8516 30.822)" class="st1" width="133.76" height="0.54"/>
				
					<rect x="-36.54" y="28.51" transform="matrix(0.7071 -0.7071 0.7071 0.7071 -11.4645 29.879)" class="st1" width="133.76" height="0.54"/>
				
					<rect x="-37.49" y="27.56" transform="matrix(0.7071 -0.7071 0.7071 0.7071 -11.0674 28.932)" class="st1" width="133.76" height="0.54"/>
				
					<rect x="-38.44" y="26.61" transform="matrix(0.7071 -0.7071 0.7071 0.7071 -10.6774 27.9819)" class="st1" width="133.76" height="0.54"/>
				
					<rect x="-39.38" y="25.66" transform="matrix(0.7071 -0.7071 0.7071 0.7071 -10.2832 27.042)" class="st1" width="133.76" height="0.54"/>
				
					<rect x="-40.33" y="24.72" transform="matrix(0.7071 -0.7071 0.7071 0.7071 -9.8932 26.092)" class="st1" width="133.76" height="0.54"/>
				
					<rect x="-41.27" y="23.78" transform="matrix(0.7071 -0.7071 0.7071 0.7071 -9.5061 25.149)" class="st1" width="133.76" height="0.54"/>
				
					<rect x="-42.22" y="22.83" transform="matrix(0.7071 -0.7071 0.7071 0.7071 -9.109 24.202)" class="st1" width="133.76" height="0.54"/>
				
					<rect x="-43.17" y="21.88" transform="matrix(0.7071 -0.7071 0.7071 0.7071 -8.719 23.252)" class="st1" width="133.76" height="0.54"/>
				
					<rect x="-44.11" y="20.94" transform="matrix(0.7071 -0.7071 0.7071 0.7071 -8.3252 22.3121)" class="st1" width="133.76" height="0.54"/>
				
					<rect x="-45.06" y="19.99" transform="matrix(0.7071 -0.7071 0.7071 0.7071 -7.9348 21.362)" class="st1" width="133.76" height="0.54"/>
				
					<rect x="-46" y="19.04" transform="matrix(0.7071 -0.7071 0.7071 0.7071 -7.5409 20.4222)" class="st1" width="133.76" height="0.54"/>
				
					<rect x="-46.95" y="18.1" transform="matrix(0.7071 -0.7071 0.7071 0.7071 -7.1506 19.472)" class="st1" width="133.76" height="0.54"/>
				
					<rect x="-47.89" y="17.16" transform="matrix(0.7071 -0.7071 0.7071 0.7071 -6.7633 18.529)" class="st1" width="133.76" height="0.54"/>
				
					<rect x="-48.84" y="16.21" transform="matrix(0.7071 -0.7071 0.7071 0.7071 -6.3665 17.5821)" class="st1" width="133.76" height="0.54"/>
				
					<rect x="-49.79" y="15.26" transform="matrix(0.7071 -0.7071 0.7071 0.7071 -5.9764 16.6321)" class="st1" width="133.76" height="0.54"/>
				
					<rect x="-50.73" y="14.31" transform="matrix(0.7071 -0.7071 0.7071 0.7071 -5.5823 15.6921)" class="st1" width="133.76" height="0.54"/>
				
					<rect x="-51.68" y="13.37" transform="matrix(0.7071 -0.7071 0.7071 0.7071 -5.1922 14.7421)" class="st1" width="133.76" height="0.54"/>
				
					<rect x="-52.62" y="12.43" transform="matrix(0.7071 -0.7071 0.7071 0.7071 -4.8051 13.7992)" class="st1" width="133.76" height="0.54"/>
				
					<rect x="-53.57" y="11.48" transform="matrix(0.7071 -0.7071 0.7071 0.7071 -4.4081 12.8521)" class="st1" width="133.76" height="0.54"/>
				
					<rect x="-54.51" y="10.54" transform="matrix(0.7071 -0.7071 0.7071 0.7071 -4.0209 11.9092)" class="st1" width="133.76" height="0.54"/>
				
					<rect x="-55.46" y="9.59" transform="matrix(0.7071 -0.7071 0.7071 0.7071 -3.6238 10.9622)" class="st1" width="133.76" height="0.54"/>
				
					<rect x="-56.41" y="8.64" transform="matrix(0.7071 -0.7071 0.7071 0.7071 -3.2338 10.0121)" class="st1" width="133.76" height="0.54"/>
				
					<rect x="-57.35" y="7.69" transform="matrix(0.7071 -0.7071 0.7071 0.7071 -2.8396 9.0722)" class="st1" width="133.76" height="0.54"/>
				
					<rect x="-58.3" y="6.75" transform="matrix(0.7071 -0.7071 0.7071 0.7071 -2.4496 8.1221)" class="st1" width="133.76" height="0.54"/>
				
					<rect x="-59.24" y="5.81" transform="matrix(0.7071 -0.7071 0.7071 0.7071 -2.0626 7.1793)" class="st1" width="133.76" height="0.54"/>
				
					<rect x="-60.19" y="4.86" transform="matrix(0.7071 -0.7071 0.7071 0.7071 -1.6654 6.2322)" class="st1" width="133.76" height="0.54"/>
				
					<rect x="-61.14" y="3.91" transform="matrix(0.7071 -0.7071 0.7071 0.7071 -1.2754 5.2822)" class="st1" width="133.76" height="0.54"/>
				
					<rect x="-62.08" y="2.96" transform="matrix(0.7071 -0.7071 0.7071 0.7071 -0.8813 4.3422)" class="st1" width="133.76" height="0.54"/>
			</g>
		</g>
	</g>
	<g>
		<rect x="7.98" y="35.69" class="st2" width="5.83" height="5.83"/>
		<path class="st3" d="M13.81,42.2H7.98c-0.38,0-0.69-0.31-0.69-0.69v-5.83C7.29,35.31,7.6,35,7.98,35h5.83
			c0.38,0,0.69,0.31,0.69,0.69v5.83C14.49,41.89,14.19,42.2,13.81,42.2z M8.66,40.83h4.46v-4.46H8.66V40.83z"/>
	</g>
	<g>
		<polyline class="st2" points="97.24,36.31 90.76,36.31 90.76,29.84 		"/>
		<path class="st3" d="M97.24,37h-6.48c-0.38,0-0.69-0.31-0.69-0.69v-6.48c0-0.38,0.31-0.69,0.69-0.69s0.69,0.31,0.69,0.69v5.79
			h5.79c0.38,0,0.69,0.31,0.69,0.69S97.62,37,97.24,37z"/>
	</g>
	<g>
		<circle class="st2" cx="37.8" cy="9.62" r="3.56"/>
		<path class="st3" d="M37.8,13.87c-2.34,0-4.25-1.91-4.25-4.25s1.91-4.25,4.25-4.25s4.25,1.91,4.25,4.25S40.14,13.87,37.8,13.87z
			 M37.8,6.75c-1.59,0-2.88,1.29-2.88,2.88s1.29,2.88,2.88,2.88s2.88-1.29,2.88-2.88S39.38,6.75,37.8,6.75z"/>
	</g>
	<g>
		<path class="st2" d="M109.42,55.59c0,2.33-1.89,4.21-4.21,4.21S101,57.91,101,55.59"/>
		<path class="st3" d="M105.21,60.48c-2.7,0-4.9-2.2-4.9-4.9c0-0.38,0.31-0.69,0.69-0.69s0.69,0.31,0.69,0.69
			c0,1.94,1.58,3.52,3.53,3.52s3.52-1.58,3.52-3.52c0-0.38,0.31-0.69,0.69-0.69s0.69,0.31,0.69,0.69
			C110.11,58.28,107.91,60.48,105.21,60.48z"/>
	</g>
	<g>
		<g>
			<path class="st3" d="M57.36,55.86c-2.41,0-4.37,1.96-4.37,4.37s1.96,4.37,4.37,4.37s4.37-1.96,4.37-4.37S59.77,55.86,57.36,55.86
				z M57.36,62.58c-1.3,0-2.35-1.06-2.35-2.35c0-1.3,1.05-2.35,2.35-2.35s2.35,1.06,2.35,2.35C59.71,61.53,58.66,62.58,57.36,62.58z
				"/>
		</g>
		<g>
			<path class="st3" d="M57.36,42.42c-2.41,0-4.37,1.96-4.37,4.37s1.96,4.37,4.37,4.37s4.37-1.96,4.37-4.37
				C61.73,44.38,59.77,42.42,57.36,42.42z M57.36,49.14c-1.3,0-2.35-1.06-2.35-2.35c0-1.3,1.05-2.35,2.35-2.35s2.35,1.06,2.35,2.35
				C59.71,48.09,58.66,49.14,57.36,49.14z"/>
		</g>
		<g>
			<path class="st3" d="M56.35,74.39v10.75c0,0.56,0.45,1.01,1.01,1.01s1.01-0.45,1.01-1.01V74.39c0-0.56-0.45-1.01-1.01-1.01
				S56.35,73.84,56.35,74.39z"/>
		</g>
		<g>
			<path class="st3" d="M50.98,74.39v7.39c0,1.3-1.06,2.35-2.35,2.35c-1.3,0-2.35-1.05-2.35-2.35c0-0.56-0.45-1.01-1.01-1.01
				c-0.56,0-1.01,0.45-1.01,1.01c0,2.41,1.96,4.37,4.37,4.37S53,84.19,53,81.78v-7.39c0-0.56-0.45-1.01-1.01-1.01
				S50.98,73.84,50.98,74.39z"/>
		</g>
		<g>
			<path class="st3" d="M62.74,73.39c-0.56,0-1.01,0.45-1.01,1.01v7.39c0,2.41,1.96,4.37,4.37,4.37s4.37-1.96,4.37-4.37
				c0-0.56-0.45-1.01-1.01-1.01c-0.56,0-1.01,0.45-1.01,1.01c0,1.3-1.06,2.35-2.35,2.35c-1.3,0-2.35-1.05-2.35-2.35V74.4
				C63.75,73.84,63.29,73.39,62.74,73.39z"/>
		</g>
		<g>
			<path class="st3" d="M32.91,78.57c0.15,0,0.3-0.03,0.44-0.1l14.84-7.1h18.36l14.86,7.1c0.14,0.07,0.29,0.1,0.43,0.1
				c0.19,0,0.37-0.05,0.54-0.16c0.29-0.18,0.47-0.51,0.47-0.85V64.6c0-0.25-0.09-0.49-0.27-0.68l-14.8-16.16v-4.28
				c0-10.72-9.34-19.21-9.74-19.56c-0.38-0.34-0.96-0.34-1.35,0c-0.4,0.36-9.74,8.85-9.74,19.56v4.28L32.16,63.92
				c-0.17,0.19-0.26,0.43-0.26,0.68v12.96c0,0.35,0.18,0.67,0.47,0.85C32.53,78.52,32.72,78.57,32.91,78.57z M67.78,50.75L80.82,65
				v10.97l-4.7-2.25V64.6c0-0.55-0.45-1.01-1.01-1.01c-0.56,0-1.01,0.45-1.01,1.01v8.15l-6.33-3.02V50.75H67.78z M57.36,26.08
				c1.43,1.45,4.8,5.18,6.81,10.02H50.55C52.56,31.27,55.93,27.53,57.36,26.08z M48.96,43.49c0-1.87,0.34-3.67,0.86-5.38H64.9
				c0.53,1.7,0.86,3.51,0.86,5.38v25.87h-16.8C48.96,69.36,48.96,43.49,48.96,43.49z M33.92,65l13.03-14.24v18.97l-6.31,3.02V64.6
				c0-0.55-0.45-1.01-1.01-1.01c-0.56,0-1.01,0.45-1.01,1.01v9.11l-4.7,2.25V65z"/>
			<path class="st4" d="M67.78,50.75L80.82,65v10.97l-4.7-2.25V64.6c0-0.55-0.45-1.01-1.01-1.01c-0.56,0-1.01,0.45-1.01,1.01v8.15
				l-6.33-3.02V50.75H67.78z"/>
			<path class="st4" d="M57.36,26.08c1.43,1.45,4.8,5.18,6.81,10.02H50.55C52.56,31.27,55.93,27.53,57.36,26.08z"/>
			<path class="st4" d="M33.92,65l13.03-14.24v18.97l-6.31,3.02V64.6c0-0.55-0.45-1.01-1.01-1.01c-0.56,0-1.01,0.45-1.01,1.01v9.11
				l-4.7,2.25V65z"/>
		</g>
	</g>
	<g>
		<path class="st2" d="M64.9,38.11H49.83c-0.53,1.71-0.86,3.51-0.86,5.38v25.87h16.8V43.49C65.76,41.62,65.42,39.81,64.9,38.11z
			 M57.36,64.6c-2.41,0-4.37-1.96-4.37-4.37s1.96-4.37,4.37-4.37s4.37,1.96,4.37,4.37S59.77,64.6,57.36,64.6z M57.36,51.16
			c-2.41,0-4.37-1.96-4.37-4.37s1.96-4.37,4.37-4.37s4.37,1.96,4.37,4.37S59.77,51.16,57.36,51.16z"/>
	</g>
	<g>
		<path class="st3" d="M15.62,72.49c-0.18,0-0.35-0.07-0.48-0.2l-4.24-4.24c-0.27-0.27-0.27-0.7,0-0.97c0.27-0.27,0.7-0.27,0.97,0
			l4.24,4.24c0.27,0.27,0.27,0.7,0,0.97C15.97,72.43,15.8,72.49,15.62,72.49z"/>
		<path class="st3" d="M11.38,72.49c-0.18,0-0.35-0.07-0.48-0.2c-0.27-0.27-0.27-0.7,0-0.97l4.24-4.24c0.27-0.27,0.7-0.27,0.97,0
			s0.27,0.7,0,0.97l-4.24,4.24C11.73,72.43,11.55,72.49,11.38,72.49z"/>
	</g>
	<g>
		<path class="st3" d="M76.5,7.37c-0.38,0-0.69-0.31-0.69-0.69v-6C75.81,0.31,76.12,0,76.5,0s0.69,0.31,0.69,0.69v6
			C77.19,7.06,76.88,7.37,76.5,7.37z"/>
		<path class="st3" d="M79.5,4.37h-6c-0.38,0-0.69-0.31-0.69-0.69S73.12,3,73.5,3h6c0.38,0,0.69,0.31,0.69,0.69
			S79.88,4.37,79.5,4.37z"/>
	</g>
	<ellipse class="st1" cx="57.5" cy="89.69" rx="57.5" ry="1.5"/>
</g>
</svg>
