<?xml version="1.0" encoding="utf-8"?>
<!-- Generator: Adobe Illustrator 24.2.2, SVG Export Plug-In . SVG Version: 6.00 Build 0)  -->
<svg version="1.1" id="Layer_1" xmlns="http://www.w3.org/2000/svg" xmlns:xlink="http://www.w3.org/1999/xlink" x="0px" y="0px"
	 viewBox="0 0 115 91.19" style="enable-background:new 0 0 115 91.19;" xml:space="preserve">
<style type="text/css">
	.st0{clip-path:url(#SVGID_2_);}
	.st1{fill:#F2F2F2;}
	.st2{fill:#FFCD00;}
	.st3{fill:#323E48;}
	.st4{fill:#FFFFFF;}
</style>
<g>
	<g>
		<defs>
			<path id="SVGID_1_" d="M60.93,20.19c-20.43,0-37,16.57-37,37c0,13.67,7.41,25.59,18.43,32H79.5c11.02-6.41,18.43-18.33,18.43-32
				C97.93,36.75,81.36,20.19,60.93,20.19z"/>
		</defs>
		<clipPath id="SVGID_2_">
			<use xlink:href="#SVGID_1_"  style="overflow:visible;"/>
		</clipPath>
		<g class="st0">
			
				<rect x="38.57" y="99.44" transform="matrix(0.7071 -0.7071 0.7071 0.7071 -39.6197 103.7693)" class="st1" width="133.76" height="0.54"/>
			
				<rect x="37.63" y="98.49" transform="matrix(0.7071 -0.7071 0.7071 0.7071 -39.2226 102.8222)" class="st1" width="133.76" height="0.54"/>
			
				<rect x="36.68" y="97.55" transform="matrix(0.7071 -0.7071 0.7071 0.7071 -38.8355 101.8793)" class="st1" width="133.76" height="0.54"/>
			
				<rect x="35.74" y="96.6" transform="matrix(0.7071 -0.7071 0.7071 0.7071 -38.4399 100.9329)" class="st1" width="133.76" height="0.54"/>
			
				<rect x="34.79" y="95.66" transform="matrix(0.7071 -0.7071 0.7071 0.7071 -38.0513 99.9893)" class="st1" width="133.76" height="0.54"/>
			
				<rect x="33.84" y="94.71" transform="matrix(0.7071 -0.7071 0.7071 0.7071 -37.6598 99.0387)" class="st1" width="133.76" height="0.54"/>
			
				<rect x="32.9" y="93.76" transform="matrix(0.7071 -0.7071 0.7071 0.7071 -37.2642 98.0923)" class="st1" width="133.76" height="0.54"/>
			
				<rect x="31.95" y="92.82" transform="matrix(0.7071 -0.7071 0.7071 0.7071 -36.8771 97.1494)" class="st1" width="133.76" height="0.54"/>
			
				<rect x="31.01" y="91.87" transform="matrix(0.7071 -0.7071 0.7071 0.7071 -36.4815 96.2029)" class="st1" width="133.76" height="0.54"/>
			
				<rect x="30.06" y="90.93" transform="matrix(0.7071 -0.7071 0.7071 0.7071 -36.0929 95.2594)" class="st1" width="133.76" height="0.54"/>
			
				<rect x="29.12" y="89.97" transform="matrix(0.7071 -0.7071 0.7071 0.7071 -35.6958 94.3123)" class="st1" width="133.76" height="0.54"/>
			
				<rect x="28.17" y="89.04" transform="matrix(0.7071 -0.7071 0.7071 0.7071 -35.3088 93.3694)" class="st1" width="133.76" height="0.54"/>
			
				<rect x="27.22" y="88.09" transform="matrix(0.7071 -0.7071 0.7071 0.7071 -34.9187 92.4194)" class="st1" width="133.76" height="0.54"/>
			
				<rect x="26.28" y="87.14" transform="matrix(0.7071 -0.7071 0.7071 0.7071 -34.5216 91.4724)" class="st1" width="133.76" height="0.54"/>
			
				<rect x="25.33" y="86.2" transform="matrix(0.7071 -0.7071 0.7071 0.7071 -34.1345 90.5294)" class="st1" width="133.76" height="0.54"/>
			
				<rect x="24.39" y="85.25" transform="matrix(0.7071 -0.7071 0.7071 0.7071 -33.7387 89.5829)" class="st1" width="133.76" height="0.54"/>
			
				<rect x="23.44" y="84.31" transform="matrix(0.7071 -0.7071 0.7071 0.7071 -33.3504 88.6394)" class="st1" width="133.76" height="0.54"/>
			
				<rect x="22.49" y="83.36" transform="matrix(0.7071 -0.7071 0.7071 0.7071 -32.9616 87.6901)" class="st1" width="133.76" height="0.54"/>
			
				<rect x="21.55" y="82.42" transform="matrix(0.7071 -0.7071 0.7071 0.7071 -32.5661 86.7495)" class="st1" width="133.76" height="0.54"/>
			
				<rect x="20.6" y="81.47" transform="matrix(0.7071 -0.7071 0.7071 0.7071 -32.1749 85.7989)" class="st1" width="133.76" height="0.54"/>
			
				<rect x="19.66" y="80.52" transform="matrix(0.7071 -0.7071 0.7071 0.7071 -31.779 84.8524)" class="st1" width="133.76" height="0.54"/>
			
				<rect x="18.71" y="79.58" transform="matrix(0.7071 -0.7071 0.7071 0.7071 -31.3919 83.9095)" class="st1" width="133.76" height="0.54"/>
			
				<rect x="17.77" y="78.63" transform="matrix(0.7071 -0.7071 0.7071 0.7071 -30.9949 82.9625)" class="st1" width="133.76" height="0.54"/>
			
				<rect x="16.82" y="77.69" transform="matrix(0.7071 -0.7071 0.7071 0.7071 -30.6077 82.0195)" class="st1" width="133.76" height="0.54"/>
			
				<rect x="15.87" y="76.74" transform="matrix(0.7071 -0.7071 0.7071 0.7071 -30.2177 81.0695)" class="st1" width="133.76" height="0.54"/>
			
				<rect x="14.93" y="75.79" transform="matrix(0.7071 -0.7071 0.7071 0.7071 -29.8207 80.1225)" class="st1" width="133.76" height="0.54"/>
			
				<rect x="13.98" y="74.85" transform="matrix(0.7071 -0.7071 0.7071 0.7071 -29.4336 79.1796)" class="st1" width="133.76" height="0.54"/>
			
				<rect x="13.04" y="73.9" transform="matrix(0.7071 -0.7071 0.7071 0.7071 -29.0365 78.2325)" class="st1" width="133.76" height="0.54"/>
			
				<rect x="12.09" y="72.96" transform="matrix(0.7071 -0.7071 0.7071 0.7071 -28.6494 77.2896)" class="st1" width="133.76" height="0.54"/>
			
				<rect x="11.15" y="72.01" transform="matrix(0.7071 -0.7071 0.7071 0.7071 -28.2534 76.343)" class="st1" width="133.76" height="0.54"/>
			
				<rect x="10.2" y="71.07" transform="matrix(0.7071 -0.7071 0.7071 0.7071 -27.8652 75.3996)" class="st1" width="133.76" height="0.54"/>
			
				<rect x="9.25" y="70.12" transform="matrix(0.7071 -0.7071 0.7071 0.7071 -27.4751 74.4496)" class="st1" width="133.76" height="0.54"/>
			
				<rect x="8.31" y="69.17" transform="matrix(0.7071 -0.7071 0.7071 0.7071 -27.0781 73.5025)" class="st1" width="133.76" height="0.54"/>
			
				<rect x="7.36" y="68.23" transform="matrix(0.7071 -0.7071 0.7071 0.7071 -26.6899 72.5591)" class="st1" width="133.76" height="0.54"/>
			
				<rect x="6.42" y="67.28" transform="matrix(0.7071 -0.7071 0.7071 0.7071 -26.2939 71.6126)" class="st1" width="133.76" height="0.54"/>
			
				<rect x="5.47" y="66.34" transform="matrix(0.7071 -0.7071 0.7071 0.7071 -25.9068 70.6696)" class="st1" width="133.76" height="0.54"/>
			
				<rect x="4.52" y="65.39" transform="matrix(0.7071 -0.7071 0.7071 0.7071 -25.5168 69.7196)" class="st1" width="133.76" height="0.54"/>
			
				<rect x="3.58" y="64.45" transform="matrix(0.7071 -0.7071 0.7071 0.7071 -25.1226 68.7796)" class="st1" width="133.76" height="0.54"/>
			
				<rect x="2.63" y="63.5" transform="matrix(0.7071 -0.7071 0.7071 0.7071 -24.7326 67.8297)" class="st1" width="133.76" height="0.54"/>
			
				<rect x="1.69" y="62.55" transform="matrix(0.7071 -0.7071 0.7071 0.7071 -24.3355 66.8827)" class="st1" width="133.76" height="0.54"/>
			
				<rect x="0.74" y="61.61" transform="matrix(0.7071 -0.7071 0.7071 0.7071 -23.9484 65.9397)" class="st1" width="133.76" height="0.54"/>
			
				<rect x="-0.2" y="60.66" transform="matrix(0.7071 -0.7071 0.7071 0.7071 -23.5513 64.9926)" class="st1" width="133.76" height="0.54"/>
			
				<rect x="-1.15" y="59.72" transform="matrix(0.7071 -0.7071 0.7071 0.7071 -23.1642 64.0497)" class="st1" width="133.76" height="0.54"/>
			
				<rect x="-2.1" y="58.77" transform="matrix(0.7071 -0.7071 0.7071 0.7071 -22.7751 63.1001)" class="st1" width="133.76" height="0.54"/>
			
				<rect x="-3.04" y="57.82" transform="matrix(0.7071 -0.7071 0.7071 0.7071 -22.3771 62.1526)" class="st1" width="133.76" height="0.54"/>
			
				<rect x="-3.99" y="56.88" transform="matrix(0.7071 -0.7071 0.7071 0.7071 -21.99 61.2097)" class="st1" width="133.76" height="0.54"/>
			
				<rect x="-4.93" y="55.93" transform="matrix(0.7071 -0.7071 0.7071 0.7071 -21.5929 60.2627)" class="st1" width="133.76" height="0.54"/>
			
				<rect x="-5.88" y="54.99" transform="matrix(0.7071 -0.7071 0.7071 0.7071 -21.205 59.3193)" class="st1" width="133.76" height="0.54"/>
			
				<rect x="-6.82" y="54.03" transform="matrix(0.7071 -0.7071 0.7071 0.7071 -20.8088 58.3727)" class="st1" width="133.76" height="0.54"/>
			
				<rect x="-7.77" y="53.1" transform="matrix(0.7071 -0.7071 0.7071 0.7071 -20.4216 57.4297)" class="st1" width="133.76" height="0.54"/>
			
				<rect x="-8.72" y="52.15" transform="matrix(0.7071 -0.7071 0.7071 0.7071 -20.0317 56.4798)" class="st1" width="133.76" height="0.54"/>
			
				<rect x="-9.66" y="51.2" transform="matrix(0.7071 -0.7071 0.7071 0.7071 -19.6346 55.5328)" class="st1" width="133.76" height="0.54"/>
			
				<rect x="-10.61" y="50.26" transform="matrix(0.7071 -0.7071 0.7071 0.7071 -19.2475 54.5898)" class="st1" width="133.76" height="0.54"/>
			
				<rect x="-11.55" y="49.31" transform="matrix(0.7071 -0.7071 0.7071 0.7071 -18.8504 53.6428)" class="st1" width="133.76" height="0.54"/>
			
				<rect x="-12.5" y="48.37" transform="matrix(0.7071 -0.7071 0.7071 0.7071 -18.4633 52.6999)" class="st1" width="133.76" height="0.54"/>
			
				<rect x="-13.45" y="47.42" transform="matrix(0.7071 -0.7071 0.7071 0.7071 -18.0732 51.7498)" class="st1" width="133.76" height="0.54"/>
			
				<rect x="-14.39" y="46.48" transform="matrix(0.7071 -0.7071 0.7071 0.7071 -17.6791 50.8099)" class="st1" width="133.76" height="0.54"/>
			
				<rect x="-15.34" y="45.53" transform="matrix(0.7071 -0.7071 0.7071 0.7071 -17.2898 49.8602)" class="st1" width="133.76" height="0.54"/>
			
				<rect x="-16.28" y="44.58" transform="matrix(0.7071 -0.7071 0.7071 0.7071 -16.892 48.9128)" class="st1" width="133.76" height="0.54"/>
			
				<rect x="-17.23" y="43.64" transform="matrix(0.7071 -0.7071 0.7071 0.7071 -16.5042 47.9695)" class="st1" width="133.76" height="0.54"/>
			
				<rect x="-18.17" y="42.69" transform="matrix(0.7071 -0.7071 0.7071 0.7071 -16.1078 47.0228)" class="st1" width="133.76" height="0.54"/>
			
				<rect x="-19.12" y="41.75" transform="matrix(0.7071 -0.7071 0.7071 0.7071 -15.72 46.0796)" class="st1" width="133.76" height="0.54"/>
			
				<rect x="-20.07" y="40.8" transform="matrix(0.7071 -0.7071 0.7071 0.7071 -15.3307 45.1299)" class="st1" width="133.76" height="0.54"/>
			
				<rect x="-21.01" y="39.85" transform="matrix(0.7071 -0.7071 0.7071 0.7071 -14.9335 44.1828)" class="st1" width="133.76" height="0.54"/>
			
				<rect x="-21.96" y="38.91" transform="matrix(0.7071 -0.7071 0.7071 0.7071 -14.5465 43.24)" class="st1" width="133.76" height="0.54"/>
			
				<rect x="-22.9" y="37.96" transform="matrix(0.7071 -0.7071 0.7071 0.7071 -14.1494 42.2929)" class="st1" width="133.76" height="0.54"/>
			
				<rect x="-23.85" y="37.02" transform="matrix(0.7071 -0.7071 0.7071 0.7071 -13.7623 41.35)" class="st1" width="133.76" height="0.54"/>
			
				<rect x="-24.79" y="36.06" transform="matrix(0.7071 -0.7071 0.7071 0.7071 -13.3652 40.4029)" class="st1" width="133.76" height="0.54"/>
			
				<rect x="-25.74" y="35.13" transform="matrix(0.7071 -0.7071 0.7071 0.7071 -12.9781 39.46)" class="st1" width="133.76" height="0.54"/>
			
				<rect x="-26.69" y="34.18" transform="matrix(0.7071 -0.7071 0.7071 0.7071 -12.5881 38.5099)" class="st1" width="133.76" height="0.54"/>
			
				<rect x="-27.63" y="33.23" transform="matrix(0.7071 -0.7071 0.7071 0.7071 -12.191 37.5629)" class="st1" width="133.76" height="0.54"/>
			
				<rect x="-28.58" y="32.29" transform="matrix(0.7071 -0.7071 0.7071 0.7071 -11.8044 36.6203)" class="st1" width="133.76" height="0.54"/>
			
				<rect x="-29.52" y="31.34" transform="matrix(0.7071 -0.7071 0.7071 0.7071 -11.4068 35.6729)" class="st1" width="133.76" height="0.54"/>
			
				<rect x="-30.47" y="30.4" transform="matrix(0.7071 -0.7071 0.7071 0.7071 -11.0192 34.7297)" class="st1" width="133.76" height="0.54"/>
			
				<rect x="-31.42" y="29.45" transform="matrix(0.7071 -0.7071 0.7071 0.7071 -10.6297 33.78)" class="st1" width="133.76" height="0.54"/>
			
				<rect x="-32.36" y="28.51" transform="matrix(0.7071 -0.7071 0.7071 0.7071 -10.2355 32.84)" class="st1" width="133.76" height="0.54"/>
			
				<rect x="-33.31" y="27.56" transform="matrix(0.7071 -0.7071 0.7071 0.7071 -9.8455 31.8901)" class="st1" width="133.76" height="0.54"/>
			
				<rect x="-34.25" y="26.61" transform="matrix(0.7071 -0.7071 0.7071 0.7071 -9.4485 30.943)" class="st1" width="133.76" height="0.54"/>
			
				<rect x="-35.2" y="25.67" transform="matrix(0.7071 -0.7071 0.7071 0.7071 -9.0614 30.0001)" class="st1" width="133.76" height="0.54"/>
			
				<rect x="-36.14" y="24.72" transform="matrix(0.7071 -0.7071 0.7071 0.7071 -8.6642 29.053)" class="st1" width="133.76" height="0.54"/>
			
				<rect x="-37.09" y="23.78" transform="matrix(0.7071 -0.7071 0.7071 0.7071 -8.2772 28.1101)" class="st1" width="133.76" height="0.54"/>
			
				<rect x="-38.04" y="22.83" transform="matrix(0.7071 -0.7071 0.7071 0.7071 -7.8871 27.1601)" class="st1" width="133.76" height="0.54"/>
			
				<rect x="-38.98" y="21.88" transform="matrix(0.7071 -0.7071 0.7071 0.7071 -7.49 26.2131)" class="st1" width="133.76" height="0.54"/>
			
				<rect x="-39.93" y="20.94" transform="matrix(0.7071 -0.7071 0.7071 0.7071 -7.1033 25.2702)" class="st1" width="133.76" height="0.54"/>
			
				<rect x="-40.87" y="19.99" transform="matrix(0.7071 -0.7071 0.7071 0.7071 -6.7058 24.3231)" class="st1" width="133.76" height="0.54"/>
			
				<rect x="-41.82" y="19.05" transform="matrix(0.7071 -0.7071 0.7071 0.7071 -6.3191 23.3803)" class="st1" width="133.76" height="0.54"/>
			
				<rect x="-42.76" y="18.09" transform="matrix(0.7071 -0.7071 0.7071 0.7071 -5.9216 22.4331)" class="st1" width="133.76" height="0.54"/>
			
				<rect x="-43.71" y="17.16" transform="matrix(0.7071 -0.7071 0.7071 0.7071 -5.5343 21.49)" class="st1" width="133.76" height="0.54"/>
			
				<rect x="-44.66" y="16.21" transform="matrix(0.7071 -0.7071 0.7071 0.7071 -5.1446 20.5402)" class="st1" width="133.76" height="0.54"/>
			
				<rect x="-45.6" y="15.26" transform="matrix(0.7071 -0.7071 0.7071 0.7071 -4.7474 19.5931)" class="st1" width="133.76" height="0.54"/>
			
				<rect x="-46.55" y="14.32" transform="matrix(0.7071 -0.7071 0.7071 0.7071 -4.3604 18.6502)" class="st1" width="133.76" height="0.54"/>
			
				<rect x="-47.49" y="13.37" transform="matrix(0.7071 -0.7071 0.7071 0.7071 -3.9633 17.7031)" class="st1" width="133.76" height="0.54"/>
			
				<rect x="-48.44" y="12.43" transform="matrix(0.7071 -0.7071 0.7071 0.7071 -3.5762 16.7602)" class="st1" width="133.76" height="0.54"/>
			
				<rect x="-49.39" y="11.48" transform="matrix(0.7071 -0.7071 0.7071 0.7071 -3.1862 15.8102)" class="st1" width="133.76" height="0.54"/>
			
				<rect x="-50.33" y="10.54" transform="matrix(0.7071 -0.7071 0.7071 0.7071 -2.792 14.8702)" class="st1" width="133.76" height="0.54"/>
			
				<rect x="-51.28" y="9.59" transform="matrix(0.7071 -0.7071 0.7071 0.7071 -2.402 13.9202)" class="st1" width="133.76" height="0.54"/>
			
				<rect x="-52.22" y="8.64" transform="matrix(0.7071 -0.7071 0.7071 0.7071 -2.0049 12.9732)" class="st1" width="133.76" height="0.54"/>
			
				<rect x="-53.17" y="7.7" transform="matrix(0.7071 -0.7071 0.7071 0.7071 -1.6178 12.0303)" class="st1" width="133.76" height="0.54"/>
			
				<rect x="-54.11" y="6.75" transform="matrix(0.7071 -0.7071 0.7071 0.7071 -1.2207 11.0832)" class="st1" width="133.76" height="0.54"/>
			
				<rect x="-55.06" y="5.81" transform="matrix(0.7071 -0.7071 0.7071 0.7071 -0.8337 10.1403)" class="st1" width="133.76" height="0.54"/>
			
				<rect x="-56.01" y="4.86" transform="matrix(0.7071 -0.7071 0.7071 0.7071 -0.4436 9.1902)" class="st1" width="133.76" height="0.54"/>
			
				<rect x="-56.95" y="3.91" transform="matrix(0.7071 -0.7071 0.7071 0.7071 -0.0464 8.2431)" class="st1" width="133.76" height="0.54"/>
			
				<rect x="-57.9" y="2.97" transform="matrix(0.7071 -0.7071 0.7071 0.7071 0.3406 7.3003)" class="st1" width="133.76" height="0.54"/>
		</g>
	</g>
</g>
<g>
	<rect x="76.98" y="8.68" class="st2" width="5.83" height="5.83"/>
	<path class="st3" d="M82.81,15.2h-5.83c-0.38,0-0.69-0.31-0.69-0.69V8.69C76.29,8.31,76.6,8,76.98,8h5.83
		c0.38,0,0.69,0.31,0.69,0.69v5.83C83.49,14.89,83.19,15.2,82.81,15.2z M77.66,13.83h4.46V9.37h-4.46V13.83z"/>
</g>
<g>
	<polyline class="st2" points="108.24,43.31 101.76,43.31 101.76,36.84 	"/>
	<path class="st3" d="M108.24,44h-6.48c-0.38,0-0.69-0.31-0.69-0.69v-6.48c0-0.38,0.31-0.69,0.69-0.69s0.69,0.31,0.69,0.69v5.79
		h5.79c0.38,0,0.69,0.31,0.69,0.69S108.62,44,108.24,44z"/>
</g>
<g>
	<circle class="st2" cx="46.8" cy="10.62" r="3.56"/>
	<path class="st3" d="M46.8,14.87c-2.34,0-4.25-1.91-4.25-4.25s1.91-4.25,4.25-4.25s4.25,1.91,4.25,4.25S49.14,14.87,46.8,14.87z
		 M46.8,7.75c-1.59,0-2.88,1.29-2.88,2.88s1.29,2.88,2.88,2.88s2.88-1.29,2.88-2.88S48.38,7.75,46.8,7.75z"/>
</g>
<g>
	<path class="st2" d="M15.7,17.22c1.64,1.64,1.64,4.31,0,5.95s-4.31,1.64-5.95,0"/>
	<path class="st3" d="M12.72,25.1c-1.25,0-2.51-0.48-3.46-1.43c-0.27-0.27-0.27-0.7,0-0.97c0.27-0.27,0.7-0.27,0.97,0
		c1.38,1.37,3.61,1.37,4.99,0c1.37-1.37,1.37-3.61,0-4.99c-0.27-0.27-0.27-0.7,0-0.97c0.27-0.27,0.7-0.27,0.97,0
		c1.91,1.91,1.91,5.02,0,6.92C15.23,24.62,13.98,25.1,12.72,25.1z"/>
</g>
<g>
	<path class="st3" d="M17.62,78.49c-0.18,0-0.35-0.07-0.49-0.2l-4.24-4.24c-0.27-0.27-0.27-0.7,0-0.97c0.27-0.27,0.7-0.27,0.97,0
		l4.24,4.24c0.27,0.27,0.27,0.7,0,0.97C17.97,78.43,17.8,78.49,17.62,78.49z"/>
	<path class="st3" d="M13.38,78.49c-0.18,0-0.35-0.07-0.49-0.2c-0.27-0.27-0.27-0.7,0-0.97l4.24-4.24c0.27-0.27,0.7-0.27,0.97,0
		c0.27,0.27,0.27,0.7,0,0.97l-4.24,4.24C13.73,78.43,13.55,78.49,13.38,78.49z"/>
</g>
<g>
	<path class="st3" d="M104.5,78.37c-0.38,0-0.69-0.31-0.69-0.69v-6c0-0.38,0.31-0.69,0.69-0.69s0.69,0.31,0.69,0.69v6
		C105.19,78.06,104.88,78.37,104.5,78.37z"/>
	<path class="st3" d="M107.5,75.37h-6c-0.38,0-0.69-0.31-0.69-0.69S101.12,74,101.5,74h6c0.38,0,0.69,0.31,0.69,0.69
		S107.88,75.37,107.5,75.37z"/>
</g>
<ellipse class="st1" cx="57.5" cy="89.69" rx="57.5" ry="1.5"/>
<g>
	<polygon class="st4" points="84.33,32.56 88.48,37.54 84.33,42.53 62.37,42.53 62.37,32.56 	"/>
	<polygon class="st2" points="35.43,42.53 31.28,37.54 35.43,32.56 53.4,32.56 53.4,42.53 	"/>
	<polygon class="st4" points="31.45,62.46 27.29,57.48 31.45,52.49 53.4,52.49 53.4,62.46 	"/>
	<path class="st4" d="M55.4,87.85v-59.3c0-1.37,1.12-2.49,2.49-2.49c1.37,0,2.49,1.12,2.49,2.49v59.3H55.4z"/>
	<polygon class="st2" points="80.34,52.49 84.49,57.48 80.34,62.46 62.37,62.46 62.37,52.49 	"/>
	<path class="st3" d="M84.79,44.52c0.3,0,0.58-0.13,0.77-0.36l4.98-5.98c0.31-0.37,0.31-0.91,0-1.28l-4.98-5.98
		c-0.19-0.23-0.47-0.36-0.77-0.36H62.37v-2.01c0-2.47-2.01-4.48-4.48-4.48s-4.48,2.01-4.48,4.48v2.01H34.97
		c-0.3,0-0.58,0.13-0.77,0.36l-4.98,5.98c-0.31,0.37-0.31,0.91,0,1.28l4.98,5.98c0.19,0.23,0.47,0.36,0.77,0.36H53.4v5.98H30.98
		c-0.3,0-0.58,0.13-0.77,0.36l-4.98,5.98c-0.31,0.37-0.31,0.91,0,1.28l4.98,5.98c0.19,0.23,0.47,0.36,0.77,0.36H53.4v23.4h-7.47
		c-0.55,0-1,0.45-1,1s0.45,1,1,1h8.47h6.98h8.47c0.55,0,1-0.45,1-1s-0.45-1-1-1h-7.47v-23.4h18.44c0.3,0,0.58-0.13,0.77-0.36
		l4.98-5.98c0.31-0.37,0.31-0.91,0-1.28l-4.98-5.98c-0.19-0.23-0.47-0.36-0.77-0.36H62.37v-5.98H84.79z M84.33,32.56l4.15,4.98
		l-4.15,4.98H62.37v-9.97h21.96V32.56z M35.43,42.53l-4.15-4.98l4.15-4.98H53.4v9.97H35.43V42.53z M31.45,62.46l-4.15-4.98
		l4.15-4.98H53.4v9.97H31.45V62.46z M55.4,87.85v-59.3c0-1.37,1.12-2.49,2.49-2.49c1.37,0,2.49,1.12,2.49,2.49v59.3H55.4z
		 M80.34,52.49l4.15,4.98l-4.15,4.98H62.37v-9.97h17.97V52.49z"/>
	<path class="st3" d="M66.77,38.54h3.99c0.55,0,1-0.45,1-1s-0.45-1-1-1h-3.99c-0.55,0-1,0.45-1,1
		C65.78,38.09,66.22,38.54,66.77,38.54z"/>
	<path class="st3" d="M74.75,38.54h8.1c0.55,0,1-0.45,1-1s-0.45-1-1-1h-8.1c-0.55,0-1,0.45-1,1S74.2,38.54,74.75,38.54z"/>
	<path class="st3" d="M47.96,36.55h-9.22c-0.55,0-1,0.45-1,1s0.45,1,1,1h9.22c0.55,0,1-0.45,1-1
		C48.96,36.99,48.51,36.55,47.96,36.55z"/>
	<path class="st3" d="M39.49,56.48h-5.98c-0.55,0-1,0.45-1,1s0.45,1,1,1h5.98c0.55,0,1-0.45,1-1S40.04,56.48,39.49,56.48z"/>
	<path class="st3" d="M49.46,56.48h-5.98c-0.55,0-1,0.45-1,1s0.45,1,1,1h5.98c0.55,0,1-0.45,1-1S50.01,56.48,49.46,56.48z"/>
</g>
</svg>
