<?xml version="1.0" encoding="utf-8"?>
<!-- Generator: Adobe Illustrator 24.2.2, SVG Export Plug-In . SVG Version: 6.00 Build 0)  -->
<svg version="1.1" id="Layer_1" xmlns="http://www.w3.org/2000/svg" xmlns:xlink="http://www.w3.org/1999/xlink" x="0px" y="0px"
	 viewBox="0 0 115 91.19" style="enable-background:new 0 0 115 91.19;" xml:space="preserve">
<style type="text/css">
	.st0{clip-path:url(#SVGID_2_);}
	.st1{fill:#F2F2F2;}
	.st2{fill:#FFCD00;}
	.st3{fill:#323E48;}
	.st4{fill:#FFFFFF;}
</style>
<g>
	<g>
		<defs>
			<path id="SVGID_1_" d="M61.65,20.19c-20.43,0-37,16.57-37,37c0,13.67,7.41,25.59,18.43,32h37.13c11.02-6.41,18.43-18.33,18.43-32
				C98.65,36.75,82.09,20.19,61.65,20.19z"/>
		</defs>
		<clipPath id="SVGID_2_">
			<use xlink:href="#SVGID_1_"  style="overflow:visible;"/>
		</clipPath>
		<g class="st0">
			
				<rect x="39.29" y="99.44" transform="matrix(0.7071 -0.7071 0.7071 0.7071 -39.4094 104.279)" class="st1" width="133.76" height="0.54"/>
			
				<rect x="38.35" y="98.49" transform="matrix(0.7071 -0.7071 0.7071 0.7071 -39.0122 103.3319)" class="st1" width="133.76" height="0.54"/>
			
				<rect x="37.4" y="97.55" transform="matrix(0.7071 -0.7071 0.7071 0.7071 -38.6252 102.389)" class="st1" width="133.76" height="0.54"/>
			
				<rect x="36.46" y="96.6" transform="matrix(0.7071 -0.7071 0.7071 0.7071 -38.2296 101.4426)" class="st1" width="133.76" height="0.54"/>
			
				<rect x="35.51" y="95.66" transform="matrix(0.7071 -0.7071 0.7071 0.7071 -37.8409 100.499)" class="st1" width="133.76" height="0.54"/>
			
				<rect x="34.57" y="94.7" transform="matrix(0.7071 -0.7071 0.7071 0.7071 -37.4424 99.5513)" class="st1" width="133.76" height="0.54"/>
			
				<rect x="33.62" y="93.76" transform="matrix(0.7071 -0.7071 0.7071 0.7071 -37.0539 98.602)" class="st1" width="133.76" height="0.54"/>
			
				<rect x="32.67" y="92.82" transform="matrix(0.7071 -0.7071 0.7071 0.7071 -36.6668 97.6591)" class="st1" width="133.76" height="0.54"/>
			
				<rect x="31.73" y="91.87" transform="matrix(0.7071 -0.7071 0.7071 0.7071 -36.2712 96.7126)" class="st1" width="133.76" height="0.54"/>
			
				<rect x="30.78" y="90.93" transform="matrix(0.7071 -0.7071 0.7071 0.7071 -35.8826 95.7691)" class="st1" width="133.76" height="0.54"/>
			
				<rect x="29.84" y="89.98" transform="matrix(0.7071 -0.7071 0.7071 0.7071 -35.4855 94.822)" class="st1" width="133.76" height="0.54"/>
			
				<rect x="28.89" y="89.04" transform="matrix(0.7071 -0.7071 0.7071 0.7071 -35.0984 93.8791)" class="st1" width="133.76" height="0.54"/>
			
				<rect x="27.95" y="88.08" transform="matrix(0.7071 -0.7071 0.7071 0.7071 -34.7013 92.932)" class="st1" width="133.76" height="0.54"/>
			
				<rect x="27" y="87.14" transform="matrix(0.7071 -0.7071 0.7071 0.7071 -34.3113 91.982)" class="st1" width="133.76" height="0.54"/>
			
				<rect x="26.05" y="86.2" transform="matrix(0.7071 -0.7071 0.7071 0.7071 -33.9242 91.0391)" class="st1" width="133.76" height="0.54"/>
			
				<rect x="25.11" y="85.25" transform="matrix(0.7071 -0.7071 0.7071 0.7071 -33.5284 90.0926)" class="st1" width="133.76" height="0.54"/>
			
				<rect x="24.16" y="84.31" transform="matrix(0.7071 -0.7071 0.7071 0.7071 -33.1401 89.1491)" class="st1" width="133.76" height="0.54"/>
			
				<rect x="23.22" y="83.36" transform="matrix(0.7071 -0.7071 0.7071 0.7071 -32.7442 88.2027)" class="st1" width="133.76" height="0.54"/>
			
				<rect x="22.27" y="82.42" transform="matrix(0.7071 -0.7071 0.7071 0.7071 -32.3559 87.2591)" class="st1" width="133.76" height="0.54"/>
			
				<rect x="21.32" y="81.47" transform="matrix(0.7071 -0.7071 0.7071 0.7071 -31.9646 86.3086)" class="st1" width="133.76" height="0.54"/>
			
				<rect x="20.38" y="80.52" transform="matrix(0.7071 -0.7071 0.7071 0.7071 -31.5687 85.3621)" class="st1" width="133.76" height="0.54"/>
			
				<rect x="19.43" y="79.58" transform="matrix(0.7071 -0.7071 0.7071 0.7071 -31.1816 84.4192)" class="st1" width="133.76" height="0.54"/>
			
				<rect x="18.49" y="78.63" transform="matrix(0.7071 -0.7071 0.7071 0.7071 -30.7845 83.4721)" class="st1" width="133.76" height="0.54"/>
			
				<rect x="17.54" y="77.69" transform="matrix(0.7071 -0.7071 0.7071 0.7071 -30.3974 82.5292)" class="st1" width="133.76" height="0.54"/>
			
				<rect x="16.6" y="76.73" transform="matrix(0.7071 -0.7071 0.7071 0.7071 -30.0003 81.5821)" class="st1" width="133.76" height="0.54"/>
			
				<rect x="15.65" y="75.79" transform="matrix(0.7071 -0.7071 0.7071 0.7071 -29.6104 80.6321)" class="st1" width="133.76" height="0.54"/>
			
				<rect x="14.7" y="74.85" transform="matrix(0.7071 -0.7071 0.7071 0.7071 -29.2232 79.6892)" class="st1" width="133.76" height="0.54"/>
			
				<rect x="13.76" y="73.9" transform="matrix(0.7071 -0.7071 0.7071 0.7071 -28.8261 78.7422)" class="st1" width="133.76" height="0.54"/>
			
				<rect x="12.81" y="72.96" transform="matrix(0.7071 -0.7071 0.7071 0.7071 -28.4391 77.7993)" class="st1" width="133.76" height="0.54"/>
			
				<rect x="11.87" y="72.01" transform="matrix(0.7071 -0.7071 0.7071 0.7071 -28.043 76.8527)" class="st1" width="133.76" height="0.54"/>
			
				<rect x="10.92" y="71.07" transform="matrix(0.7071 -0.7071 0.7071 0.7071 -27.6549 75.9093)" class="st1" width="133.76" height="0.54"/>
			
				<rect x="9.98" y="70.11" transform="matrix(0.7071 -0.7071 0.7071 0.7071 -27.2578 74.9623)" class="st1" width="133.76" height="0.54"/>
			
				<rect x="9.03" y="69.17" transform="matrix(0.7071 -0.7071 0.7071 0.7071 -26.8678 74.0122)" class="st1" width="133.76" height="0.54"/>
			
				<rect x="8.08" y="68.23" transform="matrix(0.7071 -0.7071 0.7071 0.7071 -26.4796 73.0688)" class="st1" width="133.76" height="0.54"/>
			
				<rect x="7.14" y="67.28" transform="matrix(0.7071 -0.7071 0.7071 0.7071 -26.0836 72.1222)" class="st1" width="133.76" height="0.54"/>
			
				<rect x="6.19" y="66.34" transform="matrix(0.7071 -0.7071 0.7071 0.7071 -25.6965 71.1793)" class="st1" width="133.76" height="0.54"/>
			
				<rect x="5.25" y="65.39" transform="matrix(0.7071 -0.7071 0.7071 0.7071 -25.2994 70.2322)" class="st1" width="133.76" height="0.54"/>
			
				<rect x="4.3" y="64.45" transform="matrix(0.7071 -0.7071 0.7071 0.7071 -24.9123 69.2893)" class="st1" width="133.76" height="0.54"/>
			
				<rect x="3.35" y="63.5" transform="matrix(0.7071 -0.7071 0.7071 0.7071 -24.5223 68.3393)" class="st1" width="133.76" height="0.54"/>
			
				<rect x="2.41" y="62.55" transform="matrix(0.7071 -0.7071 0.7071 0.7071 -24.1252 67.3923)" class="st1" width="133.76" height="0.54"/>
			
				<rect x="1.46" y="61.61" transform="matrix(0.7071 -0.7071 0.7071 0.7071 -23.738 66.4494)" class="st1" width="133.76" height="0.54"/>
			
				<rect x="0.52" y="60.66" transform="matrix(0.7071 -0.7071 0.7071 0.7071 -23.341 65.5023)" class="st1" width="133.76" height="0.54"/>
			
				<rect x="-0.43" y="59.72" transform="matrix(0.7071 -0.7071 0.7071 0.7071 -22.9539 64.5594)" class="st1" width="133.76" height="0.54"/>
			
				<rect x="-1.37" y="58.77" transform="matrix(0.7071 -0.7071 0.7071 0.7071 -22.5577 63.6127)" class="st1" width="133.76" height="0.54"/>
			
				<rect x="-2.32" y="57.82" transform="matrix(0.7071 -0.7071 0.7071 0.7071 -22.1668 62.6623)" class="st1" width="133.76" height="0.54"/>
			
				<rect x="-3.27" y="56.88" transform="matrix(0.7071 -0.7071 0.7071 0.7071 -21.7797 61.7194)" class="st1" width="133.76" height="0.54"/>
			
				<rect x="-4.21" y="55.93" transform="matrix(0.7071 -0.7071 0.7071 0.7071 -21.3826 60.7723)" class="st1" width="133.76" height="0.54"/>
			
				<rect x="-5.16" y="54.99" transform="matrix(0.7071 -0.7071 0.7071 0.7071 -20.9947 59.829)" class="st1" width="133.76" height="0.54"/>
			
				<rect x="-6.1" y="54.04" transform="matrix(0.7071 -0.7071 0.7071 0.7071 -20.5984 58.8824)" class="st1" width="133.76" height="0.54"/>
			
				<rect x="-7.05" y="53.1" transform="matrix(0.7071 -0.7071 0.7071 0.7071 -20.2113 57.9394)" class="st1" width="133.76" height="0.54"/>
			
				<rect x="-8" y="52.15" transform="matrix(0.7071 -0.7071 0.7071 0.7071 -19.8213 56.9895)" class="st1" width="133.76" height="0.54"/>
			
				<rect x="-8.94" y="51.2" transform="matrix(0.7071 -0.7071 0.7071 0.7071 -19.4243 56.0425)" class="st1" width="133.76" height="0.54"/>
			
				<rect x="-9.89" y="50.26" transform="matrix(0.7071 -0.7071 0.7071 0.7071 -19.0371 55.0995)" class="st1" width="133.76" height="0.54"/>
			
				<rect x="-10.83" y="49.31" transform="matrix(0.7071 -0.7071 0.7071 0.7071 -18.64 54.1524)" class="st1" width="133.76" height="0.54"/>
			
				<rect x="-11.78" y="48.37" transform="matrix(0.7071 -0.7071 0.7071 0.7071 -18.253 53.2095)" class="st1" width="133.76" height="0.54"/>
			
				<rect x="-12.72" y="47.42" transform="matrix(0.7071 -0.7071 0.7071 0.7071 -17.8559 52.2625)" class="st1" width="133.76" height="0.54"/>
			
				<rect x="-13.67" y="46.48" transform="matrix(0.7071 -0.7071 0.7071 0.7071 -17.4688 51.3196)" class="st1" width="133.76" height="0.54"/>
			
				<rect x="-14.62" y="45.53" transform="matrix(0.7071 -0.7071 0.7071 0.7071 -17.0794 50.3699)" class="st1" width="133.76" height="0.54"/>
			
				<rect x="-15.56" y="44.58" transform="matrix(0.7071 -0.7071 0.7071 0.7071 -16.6817 49.4224)" class="st1" width="133.76" height="0.54"/>
			
				<rect x="-16.51" y="43.64" transform="matrix(0.7071 -0.7071 0.7071 0.7071 -16.2939 48.4792)" class="st1" width="133.76" height="0.54"/>
			
				<rect x="-17.45" y="42.69" transform="matrix(0.7071 -0.7071 0.7071 0.7071 -15.8975 47.5325)" class="st1" width="133.76" height="0.54"/>
			
				<rect x="-18.4" y="41.75" transform="matrix(0.7071 -0.7071 0.7071 0.7071 -15.5097 46.5892)" class="st1" width="133.76" height="0.54"/>
			
				<rect x="-19.34" y="40.79" transform="matrix(0.7071 -0.7071 0.7071 0.7071 -15.1133 45.6425)" class="st1" width="133.76" height="0.54"/>
			
				<rect x="-20.29" y="39.85" transform="matrix(0.7071 -0.7071 0.7071 0.7071 -14.7233 44.6925)" class="st1" width="133.76" height="0.54"/>
			
				<rect x="-21.24" y="38.91" transform="matrix(0.7071 -0.7071 0.7071 0.7071 -14.3361 43.7496)" class="st1" width="133.76" height="0.54"/>
			
				<rect x="-22.18" y="37.96" transform="matrix(0.7071 -0.7071 0.7071 0.7071 -13.9391 42.8026)" class="st1" width="133.76" height="0.54"/>
			
				<rect x="-23.13" y="37.02" transform="matrix(0.7071 -0.7071 0.7071 0.7071 -13.552 41.8596)" class="st1" width="133.76" height="0.54"/>
			
				<rect x="-24.07" y="36.07" transform="matrix(0.7071 -0.7071 0.7071 0.7071 -13.1549 40.9126)" class="st1" width="133.76" height="0.54"/>
			
				<rect x="-25.02" y="35.13" transform="matrix(0.7071 -0.7071 0.7071 0.7071 -12.7678 39.9697)" class="st1" width="133.76" height="0.54"/>
			
				<rect x="-25.97" y="34.18" transform="matrix(0.7071 -0.7071 0.7071 0.7071 -12.3778 39.0196)" class="st1" width="133.76" height="0.54"/>
			
				<rect x="-26.91" y="33.23" transform="matrix(0.7071 -0.7071 0.7071 0.7071 -11.9807 38.0726)" class="st1" width="133.76" height="0.54"/>
			
				<rect x="-27.86" y="32.29" transform="matrix(0.7071 -0.7071 0.7071 0.7071 -11.5942 37.1299)" class="st1" width="133.76" height="0.54"/>
			
				<rect x="-28.8" y="31.34" transform="matrix(0.7071 -0.7071 0.7071 0.7071 -11.1965 36.1826)" class="st1" width="133.76" height="0.54"/>
			
				<rect x="-29.75" y="30.4" transform="matrix(0.7071 -0.7071 0.7071 0.7071 -10.8089 35.2394)" class="st1" width="133.76" height="0.54"/>
			
				<rect x="-30.69" y="29.45" transform="matrix(0.7071 -0.7071 0.7071 0.7071 -10.4123 34.2926)" class="st1" width="133.76" height="0.54"/>
			
				<rect x="-31.64" y="28.51" transform="matrix(0.7071 -0.7071 0.7071 0.7071 -10.0252 33.3497)" class="st1" width="133.76" height="0.54"/>
			
				<rect x="-32.59" y="27.56" transform="matrix(0.7071 -0.7071 0.7071 0.7071 -9.6352 32.3997)" class="st1" width="133.76" height="0.54"/>
			
				<rect x="-33.53" y="26.61" transform="matrix(0.7071 -0.7071 0.7071 0.7071 -9.2381 31.4526)" class="st1" width="133.76" height="0.54"/>
			
				<rect x="-34.48" y="25.67" transform="matrix(0.7071 -0.7071 0.7071 0.7071 -8.851 30.5097)" class="st1" width="133.76" height="0.54"/>
			
				<rect x="-35.42" y="24.72" transform="matrix(0.7071 -0.7071 0.7071 0.7071 -8.454 29.5627)" class="st1" width="133.76" height="0.54"/>
			
				<rect x="-36.37" y="23.78" transform="matrix(0.7071 -0.7071 0.7071 0.7071 -8.0669 28.6198)" class="st1" width="133.76" height="0.54"/>
			
				<rect x="-37.31" y="22.82" transform="matrix(0.7071 -0.7071 0.7071 0.7071 -7.6698 27.6727)" class="st1" width="133.76" height="0.54"/>
			
				<rect x="-38.26" y="21.88" transform="matrix(0.7071 -0.7071 0.7071 0.7071 -7.2797 26.7227)" class="st1" width="133.76" height="0.54"/>
			
				<rect x="-39.21" y="20.94" transform="matrix(0.7071 -0.7071 0.7071 0.7071 -6.893 25.7799)" class="st1" width="133.76" height="0.54"/>
			
				<rect x="-40.15" y="19.99" transform="matrix(0.7071 -0.7071 0.7071 0.7071 -6.4956 24.8327)" class="st1" width="133.76" height="0.54"/>
			
				<rect x="-41.1" y="19.05" transform="matrix(0.7071 -0.7071 0.7071 0.7071 -6.1088 23.89)" class="st1" width="133.76" height="0.54"/>
			
				<rect x="-42.04" y="18.1" transform="matrix(0.7071 -0.7071 0.7071 0.7071 -5.7113 22.9428)" class="st1" width="133.76" height="0.54"/>
			
				<rect x="-42.99" y="17.16" transform="matrix(0.7071 -0.7071 0.7071 0.7071 -5.324 21.9997)" class="st1" width="133.76" height="0.54"/>
			
				<rect x="-43.94" y="16.21" transform="matrix(0.7071 -0.7071 0.7071 0.7071 -4.9343 21.0499)" class="st1" width="133.76" height="0.54"/>
			
				<rect x="-44.88" y="15.26" transform="matrix(0.7071 -0.7071 0.7071 0.7071 -4.5371 20.1028)" class="st1" width="133.76" height="0.54"/>
			
				<rect x="-45.83" y="14.32" transform="matrix(0.7071 -0.7071 0.7071 0.7071 -4.1501 19.1599)" class="st1" width="133.76" height="0.54"/>
			
				<rect x="-46.77" y="13.37" transform="matrix(0.7071 -0.7071 0.7071 0.7071 -3.753 18.2128)" class="st1" width="133.76" height="0.54"/>
			
				<rect x="-47.72" y="12.43" transform="matrix(0.7071 -0.7071 0.7071 0.7071 -3.3658 17.2698)" class="st1" width="133.76" height="0.54"/>
			
				<rect x="-48.66" y="11.48" transform="matrix(0.7071 -0.7071 0.7071 0.7071 -2.9688 16.3228)" class="st1" width="133.76" height="0.54"/>
			
				<rect x="-49.61" y="10.54" transform="matrix(0.7071 -0.7071 0.7071 0.7071 -2.5817 15.3799)" class="st1" width="133.76" height="0.54"/>
			
				<rect x="-50.56" y="9.59" transform="matrix(0.7071 -0.7071 0.7071 0.7071 -2.1917 14.4299)" class="st1" width="133.76" height="0.54"/>
			
				<rect x="-51.5" y="8.64" transform="matrix(0.7071 -0.7071 0.7071 0.7071 -1.7946 13.4829)" class="st1" width="133.76" height="0.54"/>
			
				<rect x="-52.45" y="7.7" transform="matrix(0.7071 -0.7071 0.7071 0.7071 -1.4075 12.5399)" class="st1" width="133.76" height="0.54"/>
			
				<rect x="-53.39" y="6.75" transform="matrix(0.7071 -0.7071 0.7071 0.7071 -1.0104 11.5929)" class="st1" width="133.76" height="0.54"/>
			
				<rect x="-54.34" y="5.81" transform="matrix(0.7071 -0.7071 0.7071 0.7071 -0.6233 10.65)" class="st1" width="133.76" height="0.54"/>
			
				<rect x="-55.28" y="4.85" transform="matrix(0.7071 -0.7071 0.7071 0.7071 -0.2262 9.7029)" class="st1" width="133.76" height="0.54"/>
			
				<rect x="-56.23" y="3.91" transform="matrix(0.7071 -0.7071 0.7071 0.7071 0.1639 8.7528)" class="st1" width="133.76" height="0.54"/>
			
				<rect x="-57.18" y="2.97" transform="matrix(0.7071 -0.7071 0.7071 0.7071 0.5508 7.81)" class="st1" width="133.76" height="0.54"/>
		</g>
	</g>
</g>
<path class="st2" d="M80.07,84.54c0,2.13-1.73,3.86-3.87,3.86H64.32c-0.6,0-1.16-0.15-1.67-0.4c0.03-0.05,0.06-0.09,0.09-0.14
	c0.82-1.45,0.8-3.18-0.06-4.61l0,0l-2.23-3.72V58.08c1.23,0.48,2.57,0.69,3.92,0.69c2.21,0,4.44-0.54,6.23-1.28
	c2.83-1.16,6.77-1.64,9.47-0.27C80.07,57.22,80.07,84.54,80.07,84.54z"/>
<g>
	
		<rect x="99.98" y="55.69" transform="matrix(0.7071 -0.7071 0.7071 0.7071 -11.3008 89.923)" class="st2" width="5.83" height="5.83"/>
	<path class="st3" d="M102.89,63.41L102.89,63.41c-0.18,0-0.36-0.07-0.49-0.2l-4.12-4.12c-0.27-0.27-0.27-0.7,0-0.97L102.4,54
		c0.26-0.26,0.71-0.26,0.97,0l4.12,4.12c0.13,0.13,0.2,0.3,0.2,0.48s-0.07,0.36-0.2,0.48l-4.12,4.12
		C103.25,63.34,103.07,63.41,102.89,63.41z M99.74,58.6l3.15,3.15l3.15-3.15l-3.15-3.15L99.74,58.6z"/>
</g>
<g>
	<polyline class="st2" points="103.24,20.31 96.76,20.31 96.76,13.84 	"/>
	<path class="st3" d="M103.24,21h-6.48c-0.38,0-0.69-0.31-0.69-0.69v-6.48c0-0.38,0.31-0.69,0.69-0.69s0.69,0.31,0.69,0.69v5.79
		h5.79c0.38,0,0.69,0.31,0.69,0.69S103.62,21,103.24,21z"/>
</g>
<g>
	<circle class="st2" cx="38.8" cy="16.62" r="3.56"/>
	<path class="st3" d="M38.8,20.87c-2.34,0-4.25-1.91-4.25-4.25s1.91-4.25,4.25-4.25s4.25,1.91,4.25,4.25S41.14,20.87,38.8,20.87z
		 M38.8,13.75c-1.59,0-2.88,1.29-2.88,2.88s1.29,2.88,2.88,2.88s2.88-1.29,2.88-2.88S40.38,13.75,38.8,13.75z"/>
</g>
<g>
	<path class="st2" d="M22.42,35.59c0,2.33-1.89,4.21-4.21,4.21S14,37.91,14,35.59"/>
	<path class="st3" d="M18.21,40.48c-2.7,0-4.9-2.2-4.9-4.9c0-0.38,0.31-0.69,0.69-0.69s0.69,0.31,0.69,0.69
		c0,1.94,1.58,3.52,3.52,3.52s3.53-1.58,3.53-3.52c0-0.38,0.31-0.69,0.69-0.69s0.69,0.31,0.69,0.69
		C23.11,38.28,20.91,40.48,18.21,40.48z"/>
</g>
<g>
	<path class="st3" d="M15.62,72.49c-0.18,0-0.35-0.07-0.48-0.2l-4.24-4.24c-0.27-0.27-0.27-0.7,0-0.97c0.27-0.27,0.7-0.27,0.97,0
		l4.24,4.24c0.27,0.27,0.27,0.7,0,0.97C15.97,72.43,15.8,72.49,15.62,72.49z"/>
	<path class="st3" d="M11.38,72.49c-0.18,0-0.35-0.07-0.48-0.2c-0.27-0.27-0.27-0.7,0-0.97l4.24-4.24c0.27-0.27,0.7-0.27,0.97,0
		s0.27,0.7,0,0.97l-4.24,4.24C11.73,72.43,11.55,72.49,11.38,72.49z"/>
</g>
<g>
	<path class="st3" d="M72.5,14.37c-0.38,0-0.69-0.31-0.69-0.69v-6C71.81,7.31,72.12,7,72.5,7s0.69,0.31,0.69,0.69v6
		C73.19,14.06,72.88,14.37,72.5,14.37z"/>
	<path class="st3" d="M75.5,11.37h-6c-0.38,0-0.69-0.31-0.69-0.69S69.12,10,69.5,10h6c0.38,0,0.69,0.31,0.69,0.69
		S75.88,11.37,75.5,11.37z"/>
</g>
<ellipse class="st1" cx="57.5" cy="89.69" rx="57.5" ry="1.5"/>
<g>
	<path class="st4" d="M80.07,55.23c-3.3-1.25-7.4-0.53-10.15,0.6c-2.75,1.13-6.61,1.74-9.47,0.27V33.09h19.62V55.23z"/>
	<g>
		<path class="st3" d="M73.83,49.41h3.57c0.49,0,0.89-0.4,0.89-0.89c0-0.49-0.4-0.89-0.89-0.89h-3.57c-0.49,0-0.89,0.4-0.89,0.89
			S73.34,49.41,73.83,49.41z"/>
	</g>
	<g>
		<path class="st3" d="M73.83,41.25h3.57c0.49,0,0.89-0.4,0.89-0.89c0-0.49-0.4-0.89-0.89-0.89h-3.57c-0.49,0-0.89,0.4-0.89,0.89
			S73.34,41.25,73.83,41.25z"/>
	</g>
	<g>
		<path class="st3" d="M77.4,80.25h-3.57c-0.49,0-0.89,0.4-0.89,0.89s0.4,0.89,0.89,0.89h3.57c0.49,0,0.89-0.4,0.89-0.89
			S77.89,80.25,77.4,80.25z"/>
	</g>
	<g>
		<path class="st3" d="M77.4,72.09h-3.57c-0.49,0-0.89,0.4-0.89,0.89s0.4,0.89,0.89,0.89h3.57c0.49,0,0.89-0.4,0.89-0.89
			S77.89,72.09,77.4,72.09z"/>
	</g>
	<g>
		<path class="st3" d="M72.94,64.83c0,0.49,0.4,0.89,0.89,0.89h3.57c0.49,0,0.89-0.4,0.89-0.89s-0.4-0.89-0.89-0.89h-3.57
			C73.34,63.93,72.94,64.33,72.94,64.83z"/>
	</g>
	<path class="st3" d="M83.34,31.31H57.18c-0.49,0-0.89,0.4-0.89,0.89s0.4,0.89,0.89,0.89h1.49v43.45l-6.94-11.58
		c-1.02-1.71-1.56-3.66-1.56-5.65V47.13h1.57c0.49,0,0.89-0.4,0.89-0.89c0-0.49-0.4-0.89-0.89-0.89H36.97
		c-0.49,0-0.89,0.4-0.89,0.89c0,0.49,0.4,0.89,0.89,0.89h1.57v12.19c0,1.99-0.54,3.95-1.57,5.65L26.02,83.25
		c-0.86,1.44-0.88,3.16-0.06,4.61c0.82,1.46,2.31,2.32,3.99,2.32h28.8c0.97,0,1.88-0.3,2.64-0.83c0.85,0.52,1.85,0.83,2.93,0.83
		h11.89c3.12,0,5.65-2.53,5.65-5.65V33.09h1.49c0.49,0,0.89-0.4,0.89-0.89C84.24,31.71,83.84,31.31,83.34,31.31z M38.5,65.89
		c1.19-1.98,1.82-4.26,1.82-6.57V47.13h8.06v12.19c0,2.31,0.63,4.59,1.82,6.57l2.77,4.62c-3.05-0.72-6.52-0.06-8.95,0.94
		c-2.64,1.09-6.3,1.69-9.11,0.45L38.5,65.89z M61.18,86.98c-0.5,0.89-1.41,1.42-2.43,1.42h-28.8c-1.02,0-1.93-0.53-2.44-1.42
		c-0.5-0.89-0.49-1.94,0.03-2.82l6.43-10.73c1.39,0.65,2.92,0.94,4.48,0.94c2.21,0,4.44-0.54,6.23-1.28
		c2.93-1.2,7.04-1.69,9.75-0.14l6.71,11.2C61.68,85.04,61.69,86.1,61.18,86.98z M80.07,84.54c0,2.13-1.73,3.86-3.87,3.86H64.32
		c-0.6,0-1.16-0.15-1.67-0.4c0.03-0.05,0.06-0.09,0.09-0.14c0.82-1.45,0.8-3.18-0.06-4.61l0,0l-2.23-3.72V58.08
		c1.23,0.48,2.57,0.69,3.92,0.69c2.21,0,4.44-0.54,6.23-1.28c2.83-1.16,6.77-1.64,9.47-0.27C80.07,57.22,80.07,84.54,80.07,84.54z
		 M80.07,55.23c-3.3-1.25-7.4-0.53-10.15,0.6c-2.75,1.13-6.61,1.74-9.47,0.27V33.09h19.62V55.23z"/>
	<path class="st4" d="M38.5,65.89c1.19-1.98,1.82-4.26,1.82-6.57V47.13h8.06v12.19c0,2.31,0.63,4.59,1.82,6.57l2.77,4.62
		c-3.05-0.72-6.52-0.06-8.95,0.94c-2.64,1.09-6.3,1.69-9.11,0.45L38.5,65.89z"/>
</g>
<path class="st2" d="M61.18,86.98c-0.5,0.89-1.41,1.42-2.43,1.42h-28.8c-1.02,0-1.93-0.53-2.44-1.42c-0.5-0.89-0.49-1.94,0.03-2.82
	l6.43-10.73c1.39,0.65,2.92,0.94,4.48,0.94c2.21,0,4.44-0.54,6.23-1.28c2.93-1.2,7.04-1.69,9.75-0.14l6.71,11.2
	C61.68,85.04,61.69,86.1,61.18,86.98z"/>
</svg>
